<?xml version="1.0" encoding="UTF-8"?>
<svg version="1.1" xmlns="http://www.w3.org/2000/svg" width="768" height="470">
<path d="M0 0 C1.13509293 -0.00380567 2.27018586 -0.00761134 3.43967554 -0.01153234 C7.25899566 -0.0218727 11.07816784 -0.01793736 14.89749813 -0.01409245 C17.65718263 -0.01744193 20.41685852 -0.0237784 23.17653793 -0.02996117 C29.18492573 -0.0418067 35.19328316 -0.04617399 41.20168209 -0.04563999 C50.1366943 -0.04484678 59.07166816 -0.05539647 68.00667013 -0.06805556 C85.82411276 -0.09279743 103.6415461 -0.10157858 121.45900355 -0.10659205 C122.38179485 -0.10685322 123.30458614 -0.1071144 124.25534081 -0.10738349 C125.1799847 -0.10764376 126.10462859 -0.10790404 127.05729199 -0.1081722 C137.30322253 -0.11125431 147.54915048 -0.11775902 157.79507923 -0.12438488 C188.74176469 -0.14403331 219.68844736 -0.16043726 250.63513947 -0.16326141 C251.62504067 -0.16335547 252.61494187 -0.16344954 253.63484008 -0.16354645 C257.64648627 -0.16392493 261.65813246 -0.16428893 265.66977865 -0.16464943 C268.6892022 -0.16492115 271.70862574 -0.16519782 274.72804928 -0.16547489 C275.72578305 -0.16556291 276.72351683 -0.16565094 277.75148496 -0.16574163 C309.09689091 -0.16864671 340.44223518 -0.19073903 371.78761959 -0.22699833 C407.00158769 -0.26773161 442.21551377 -0.29142003 477.42950672 -0.29172093 C481.18516346 -0.29181775 484.9408202 -0.29198447 488.69647694 -0.29220104 C489.62121833 -0.29224516 490.54595973 -0.29228927 491.49872359 -0.29233472 C506.3757208 -0.29345425 521.25265619 -0.31085836 536.1296335 -0.33402036 C551.08493529 -0.35687216 566.04015363 -0.36108214 580.99546648 -0.34647106 C589.87757496 -0.33832461 598.7594204 -0.3439927 607.64149694 -0.36965191 C613.57968017 -0.38542068 619.51767699 -0.38290926 625.45585581 -0.36574518 C628.83613027 -0.35648537 632.21548746 -0.35772133 635.59578747 -0.37571125 C656.78865547 -0.48121915 671.34709026 1.67055129 687.46413326 16.57256222 C700.51448794 30.37221956 705.0558728 47.70913371 704.96810055 66.2272253 C704.97122053 67.26215036 704.97434051 68.29707541 704.97755504 69.36336184 C704.98546465 72.79448321 704.97923903 76.22542424 704.97292233 79.65654659 C704.97563531 82.13142658 704.97919797 84.60630577 704.98354244 87.08118343 C704.99169005 93.0834142 704.9905326 99.08557549 704.98471716 105.08780348 C704.98018465 109.96966469 704.97959461 114.85151189 704.98176479 119.7333746 C704.98207126 120.43045044 704.98237773 121.12752628 704.98269348 121.84572563 C704.98333298 123.26219945 704.98398141 124.67867326 704.98463866 126.09514707 C704.99033009 139.35081551 704.98380274 152.60645621 704.97303793 165.86212009 C704.9641035 177.21499619 704.96565587 188.56783138 704.97487545 199.92070675 C704.98559911 213.13171355 704.98978088 226.3426961 704.98365092 239.55370665 C704.98301388 240.96472104 704.98238514 242.37573544 704.98176479 243.78674984 C704.98145624 244.48084134 704.98114769 245.17493284 704.98082979 245.89005741 C704.97910913 250.76121631 704.98200433 255.6323597 704.9867239 260.5035162 C704.99294665 267.06994201 704.98846227 273.63630289 704.97693539 280.20272541 C704.97429996 282.60685441 704.97503471 285.01098994 704.97946072 287.41511631 C704.98496182 290.70779685 704.97802692 294.00023392 704.96810055 297.29289913 C704.97479271 298.70480471 704.97479271 298.70480471 704.98162007 300.14523363 C704.87574227 318.3709577 699.0908077 334.78771672 686.33913326 348.07256222 C673.18979214 360.45100395 657.62983723 365.41994503 639.77275085 365.39428329 C638.10774747 365.39781164 638.10774747 365.39781164 636.40910766 365.40141127 C632.66914406 365.40809738 628.92921525 365.40764316 625.18924618 365.40723324 C622.4888877 365.4105321 619.78853227 365.41422 617.08817524 365.41837472 C610.43177619 365.42769592 603.77538379 365.43162196 597.11897903 365.43389368 C589.14650718 365.43685701 581.17404414 365.4455552 573.20157691 365.45430796 C553.93129105 365.47514823 534.66100366 365.48562158 515.39070916 365.49443757 C506.2735396 365.49864475 497.15637069 365.50386665 488.03920168 365.5091221 C456.82719951 365.52701209 425.61519714 365.54200782 394.40319061 365.54944229 C392.44382816 365.54991705 390.48446572 365.55039294 388.52510327 365.55086995 C387.0676095 365.55122452 387.0676095 365.55122452 385.58067141 365.55158624 C380.65779216 365.55278744 375.7349129 365.55400289 370.81203365 365.55522823 C369.3465965 365.55558846 369.3465965 365.55558846 367.85155455 365.55595596 C336.17929462 365.56384813 304.50707214 365.58727839 272.83482856 365.61978418 C239.34557011 365.65409201 205.85633358 365.67379432 172.36705726 365.67708653 C168.68972392 365.67750407 165.01239059 365.67798363 161.33505726 365.67850971 C159.97687271 365.6786945 159.97687271 365.6786945 158.59125008 365.67888302 C144.02775673 365.68121386 129.46430692 365.69686733 114.90082908 365.71735156 C100.25793635 365.73762049 85.61509586 365.7430818 70.9721917 365.73358092 C62.27696049 365.72837013 53.58190334 365.73422351 44.88669723 365.7561156 C39.0717722 365.76964732 33.25696668 365.76852581 27.4420404 365.75571364 C24.13305526 365.74883255 20.82467158 365.75032639 17.51567347 365.76527373 C-1.1862493 365.84450563 -16.09147851 365.5143089 -31.32102299 353.66240597 C-33.25303872 352.20061588 -33.25303872 352.20061588 -35.46946049 351.20146847 C-37.28586674 350.26006222 -37.28586674 350.26006222 -38.28586674 348.26006222 C-38.92524174 347.97131222 -39.56461674 347.68256222 -40.22336674 347.38506222 C-42.7365311 346.01424529 -43.22680955 344.86697222 -44.28586674 342.26006222 C-44.61586674 341.60006222 -44.94586674 340.94006222 -45.28586674 340.26006222 C-45.94586674 340.26006222 -46.60586674 340.26006222 -47.28586674 340.26006222 C-47.62617924 339.11537472 -47.62617924 339.11537472 -47.97336674 337.94756222 C-49.37358565 334.01361384 -51.11301788 330.3634132 -52.96946049 326.62724972 C-56.38433505 317.89246671 -57.73177051 309.38835376 -57.68027592 300.05406857 C-57.68636702 298.99338091 -57.69245812 297.93269325 -57.69873381 296.83986354 C-57.71524903 293.32128911 -57.71060438 289.80308113 -57.70578861 286.28447628 C-57.71313562 283.74711898 -57.72172369 281.20976501 -57.7314539 278.67241573 C-57.75131566 272.51642983 -57.75705416 266.36057651 -57.75526601 260.20456293 C-57.75395356 255.19544035 -57.75778703 250.18634697 -57.76519108 245.17722988 C-57.76729049 243.72920569 -57.76938809 242.2811815 -57.7714839 240.8331573 C-57.77252743 240.11221958 -57.77357095 239.39128187 -57.7746461 238.64849755 C-57.79351084 225.04123308 -57.79250995 211.43402261 -57.78567678 197.82675049 C-57.78010484 185.40957365 -57.80091852 172.99260336 -57.83403724 160.57547477 C-57.86786473 147.79229962 -57.88293129 135.00922315 -57.87832022 122.22600245 C-57.87608456 115.0625585 -57.88118531 107.89930537 -57.90621281 100.73589993 C-57.92956458 93.99532477 -57.92653383 87.25524741 -57.90628529 80.51463985 C-57.90288965 78.05090912 -57.90790134 75.58714909 -57.92226887 73.12345791 C-58.01805776 55.46991281 -57.13931332 34.86202236 -44.24680424 21.08037472 C-43.59969486 20.47967159 -42.95258549 19.87896847 -42.28586674 19.26006222 C-41.52274174 18.47631222 -40.75961674 17.69256222 -39.97336674 16.88506222 C-39.08649174 16.01881222 -38.19961674 15.15256222 -37.28586674 14.26006222 C-36.56656986 13.54656612 -36.56656986 13.54656612 -35.83274174 12.81865597 C-25.58061191 3.28815664 -13.59731006 -0.04941173 0 0 Z M-32.28586674 35.26006222 C-39.07533571 45.73006468 -40.59692889 56.60986565 -40.54656315 68.87245846 C-40.5503887 69.88132221 -40.55421424 70.89018596 -40.55815572 71.92962134 C-40.56839733 75.27859228 -40.56451047 78.62738893 -40.56052494 81.97637081 C-40.56487629 84.39036879 -40.57006085 86.80436539 -40.57601261 89.21835995 C-40.58798335 95.0760017 -40.59055959 100.93360089 -40.58821235 106.79125021 C-40.58642347 111.55632757 -40.58819098 116.32139108 -40.59243679 121.08646679 C-40.59303198 121.76673723 -40.59362717 122.44700767 -40.59424039 123.14789236 C-40.59545225 124.53021998 -40.59666638 125.9125476 -40.59788277 127.29487522 C-40.60873898 140.23486383 -40.60660488 153.17482632 -40.60049792 166.11481638 C-40.59533004 177.92941127 -40.60658424 189.74392367 -40.62559614 201.55850224 C-40.64500967 213.71672447 -40.65322442 225.87490774 -40.64947289 238.03314555 C-40.64756623 244.8482568 -40.64999604 251.66329788 -40.66418743 258.47839642 C-40.67679515 264.88889765 -40.67479368 271.2992342 -40.66177654 277.70973301 C-40.65941768 280.05539093 -40.66212054 282.40106056 -40.67039967 284.74670506 C-40.73238403 303.68089817 -40.24505643 319.48916879 -26.71555424 333.92803097 C-15.48100904 344.71102692 -3.63555585 346.42352572 11.34084225 346.37358761 C12.49278576 346.37373363 13.64472927 346.37387966 14.83158016 346.37403011 C18.62448186 346.3733356 22.41733394 346.36556478 26.21022701 346.35771847 C28.84581125 346.35585265 31.48139584 346.35442952 34.11698055 346.35343075 C40.33579978 346.35032969 46.55460131 346.34213289 52.77341276 346.33208126 C59.85687196 346.32088198 66.94033202 346.31540008 74.02379787 346.31038582 C88.58725211 346.29994919 103.15069244 346.28237358 117.71413326 346.26006222 C117.7183652 345.36423459 117.72259714 344.46840696 117.72695732 343.54543304 C117.83011535 321.78076695 117.93873049 300.01613411 118.05347252 278.25152588 C118.10882756 267.72646939 118.16231324 257.20140951 118.21144772 246.67632198 C118.25426168 237.50615494 118.30053251 228.33601309 118.35101181 219.16588491 C118.37763529 214.30722556 118.40248883 209.44857127 118.42320728 204.58988285 C118.44273919 200.02223198 118.46687242 195.45462916 118.49462414 190.88702106 C118.5040129 189.20555268 118.51168156 187.52407373 118.51755238 185.84258938 C118.5257827 183.5570162 118.54005036 181.27156062 118.55591488 178.98602962 C118.56236743 177.70381558 118.56881998 176.42160154 118.57546806 175.10053253 C118.71413326 172.26006222 118.71413326 172.26006222 119.71413326 171.26006222 C119.92562509 169.8912401 120.08325774 168.51392928 120.21413326 167.13506222 C120.29921139 166.31779659 120.38428951 165.50053097 120.47194576 164.65849972 C120.55186764 163.86701534 120.63178951 163.07553097 120.71413326 162.26006222 C121.6791219 153.25350157 125.13060049 145.00934259 128.27663326 136.57256222 C130.16835869 131.49181347 132.03934032 126.41775789 133.71413326 121.26006222 C134.37413326 121.26006222 135.03413326 121.26006222 135.71413326 121.26006222 C135.96807858 120.71736691 136.22202389 120.17467159 136.48366451 119.61553097 C136.8278442 118.90010128 137.17202389 118.18467159 137.52663326 117.44756222 C137.86307858 116.73986691 138.19952389 116.03217159 138.54616451 115.30303097 C139.71413326 113.26006222 139.71413326 113.26006222 141.35085201 111.68584347 C143.05967714 110.22745347 143.05967714 110.22745347 142.71413326 107.26006222 C143.37413326 107.26006222 144.03413326 107.26006222 144.71413326 107.26006222 C146.04677749 105.77150156 147.30632805 104.21702576 148.52663326 102.63506222 C150.86928042 99.62247771 153.21231657 96.64181096 155.71413326 93.76006222 C157.92236495 91.5333663 157.92236495 91.5333663 157.71413326 89.26006222 C158.31225826 89.15693722 158.91038326 89.05381222 159.52663326 88.94756222 C162.02671612 88.16182189 163.08948408 87.29087369 164.71413326 85.26006222 C164.71413326 84.60006222 164.71413326 83.94006222 164.71413326 83.26006222 C165.45147701 82.99322628 166.18882076 82.72639034 166.94850826 82.45146847 C169.66158489 81.28269958 171.62200794 79.97943094 173.96413326 78.19756222 C200.56218556 59.26670479 233.66852261 52.42190485 265.81178951 57.44756222 C298.59033047 64.2723235 328.00310851 82.58147609 346.90163326 110.51006222 C366.71671057 140.85590372 374.64834964 177.82383306 367.74928951 213.60771847 C364.64235056 228.12425054 359.9155644 241.28872175 352.71413326 254.26006222 C352.23331295 255.15724972 351.75249264 256.05443722 351.25710201 256.97881222 C336.30979495 283.51351295 310.15963401 304.96015346 280.81569576 313.41240597 C276.1913147 314.69037833 271.5694972 315.94789786 266.83522701 316.74443722 C265.78528561 316.99967159 265.78528561 316.99967159 264.71413326 317.26006222 C264.38413326 317.92006222 264.05413326 318.58006222 263.71413326 319.26006222 C261.65163326 319.88506222 261.65163326 319.88506222 259.71413326 320.26006222 C259.38413326 319.60006222 259.05413326 318.94006222 258.71413326 318.26006222 C257.35980647 318.4044009 256.00568101 318.55062882 254.65163326 318.69756222 C253.82921139 318.78650753 253.00678951 318.87545284 252.15944576 318.96709347 C250.10707867 319.21298409 248.06461211 319.53964207 246.02663326 319.88506222 C242.55326636 320.27827356 240.14048635 319.90654393 236.71413326 319.26006222 C232.75413326 318.93006222 228.79413326 318.60006222 224.71413326 318.26006222 C224.71413326 303.74006222 224.71413326 289.22006222 224.71413326 274.26006222 C227.68413326 274.92006222 230.65413326 275.58006222 233.71413326 276.26006222 C255.68490548 278.5631999 277.48321084 273.78532379 294.96022701 259.78349972 C297.31799661 257.68848305 299.53761027 255.54087694 301.71413326 253.26006222 C302.66288326 252.35256222 303.61163326 251.44506222 304.58913326 250.51006222 C308.91603512 246.47467438 308.91603512 246.47467438 310.71413326 241.26006222 C311.37413326 241.26006222 312.03413326 241.26006222 312.71413326 241.26006222 C326.41942168 222.77456282 330.5055949 200.81671887 329.71413326 178.26006222 C329.38413326 177.93006222 329.05413326 177.60006222 328.71413326 177.26006222 C328.55371171 175.59643134 328.43646308 173.92857344 328.33913326 172.26006222 C327.88484697 166.8365828 326.64070985 162.31838665 324.71413326 157.26006222 C324.39057858 156.32678097 324.06702389 155.39349972 323.73366451 154.43193722 C322.08199294 149.69841102 320.397243 145.51328802 317.71413326 141.26006222 C317.18175045 140.38607784 316.64936764 139.51209347 316.10085201 138.61162472 C308.32550955 126.13532807 298.07317991 115.00571943 284.71413326 108.26006222 C283.39413326 108.26006222 282.07413326 108.26006222 280.71413326 108.26006222 C280.71413326 107.60006222 280.71413326 106.94006222 280.71413326 106.26006222 C278.28494838 104.8586094 276.45112625 104.2171223 273.65163326 103.76006222 C270.71413326 103.26006222 270.71413326 103.26006222 267.71413326 101.26006222 C265.54629247 99.98340599 265.54629247 99.98340599 262.08913326 100.32256222 C259.07279309 100.3708666 257.19690188 100.11228182 254.21413326 99.26006222 C236.22105616 94.41036566 217.49771112 101.23262577 201.88600826 109.81474972 C182.55350789 121.35901423 169.04240778 139.76373682 162.33913326 161.13506222 C158.91553944 174.85331981 158.41458347 188.91778708 158.48708248 202.99101925 C158.48764882 204.57000884 158.48732572 206.14899895 158.48619747 207.72798824 C158.48563162 211.9499762 158.49725911 216.17184682 158.51134539 220.39380789 C158.52398311 224.83000379 158.52503339 229.26620339 158.5273962 233.70241451 C158.53357312 242.07417523 158.54993177 250.44588271 158.57009518 258.81762016 C158.59257324 268.36077474 158.60347733 277.90393207 158.61348605 287.4471066 C158.63430207 307.05145547 158.6698135 326.65575359 158.71413326 346.26006222 C162.67413326 346.26006222 166.63413326 346.26006222 170.71413326 346.26006222 C170.71275057 344.98011379 170.71275057 344.98011379 170.71133995 343.67430782 C170.6892442 322.90029799 170.67270193 302.12629019 170.66232109 281.35227108 C170.65716742 271.30606826 170.65014239 261.25987328 170.63869381 251.2136755 C170.62871863 242.45620817 170.62227308 233.69874654 170.62004477 224.94127369 C170.61874248 220.30538256 170.61568711 215.6695077 170.60840321 211.03362179 C170.60159828 206.6670634 170.5995254 202.30052792 170.60102558 197.93396473 C170.60075126 196.33444182 170.59877274 194.73491813 170.59492779 193.13539982 C170.58992059 190.94426017 170.59116069 188.75320598 170.59387875 186.56206417 C170.59249606 184.72585255 170.59249606 184.72585255 170.59108543 182.85254574 C170.78091549 177.31029972 171.25441272 171.88436672 173.15163326 166.63506222 C173.4184692 165.87967159 173.68530514 165.12428097 173.96022701 164.34599972 C174.20901608 163.65764034 174.45780514 162.96928097 174.71413326 162.26006222 C175.04413326 161.27006222 175.37413326 160.28006222 175.71413326 159.26006222 C176.04413326 158.27006222 176.37413326 157.28006222 176.71413326 156.26006222 C177.06991451 155.10570675 177.06991451 155.10570675 177.43288326 153.92803097 C177.69069576 153.10947628 177.94850826 152.29092159 178.21413326 151.44756222 C178.56991451 150.29320675 178.56991451 150.29320675 178.93288326 149.11553097 C179.71413326 147.26006222 179.71413326 147.26006222 181.71413326 146.26006222 C184.34494783 143.22573426 184.34494783 143.22573426 184.71413326 139.26006222 C185.37413326 138.93006222 186.03413326 138.60006222 186.71413326 138.26006222 C187.04413326 137.27006222 187.37413326 136.28006222 187.71413326 135.26006222 C188.37413326 135.26006222 189.03413326 135.26006222 189.71413326 135.26006222 C189.71413326 134.60006222 189.71413326 133.94006222 189.71413326 133.26006222 C190.58038326 132.87914425 190.58038326 132.87914425 191.46413326 132.49053097 C193.96083483 131.1251473 195.66739014 129.5456536 197.71413326 127.57256222 C211.25771548 115.37891222 229.35292063 109.63437646 247.47975826 110.01006222 C269.2736102 111.69461116 287.65195142 121.3355052 301.83913326 137.82256222 C316.13184196 156.54196005 320.16291602 178.54744143 317.43288326 201.63896847 C315.19525469 215.64957463 308.26026159 229.77763985 298.71413326 240.26006222 C297.69899654 241.39508175 297.69899654 241.39508175 296.66335201 242.55303097 C289.8144838 249.81550757 281.76385094 255.10208383 272.71413326 259.26006222 C272.71413326 259.92006222 272.71413326 260.58006222 272.71413326 261.26006222 C272.12889889 261.06670284 271.54366451 260.87334347 270.94069576 260.67412472 C267.86644831 260.10242256 265.82016977 261.33332107 263.00710201 262.49443722 C259.67962254 263.60548658 256.39827859 263.81934934 252.91335201 264.04912472 C250.53881754 264.19394184 250.53881754 264.19394184 247.71413326 265.26006222 C245.21470117 265.19750533 242.7658522 265.07598984 240.27663326 264.88506222 C239.60825436 264.84123409 238.93987545 264.79740597 238.25124264 264.75224972 C235.55748346 264.56002904 232.98687288 264.32994891 230.36647701 263.65849972 C228.60521627 263.04601215 228.60521627 263.04601215 226.71413326 264.26006222 C226.71413326 263.60006222 226.71413326 262.94006222 226.71413326 262.26006222 C226.05413326 262.26006222 225.39413326 262.26006222 224.71413326 262.26006222 C224.71413326 247.41006222 224.71413326 232.56006222 224.71413326 217.26006222 C230.71413326 219.26006222 230.71413326 219.26006222 234.33913326 220.88506222 C243.3328204 224.20212553 251.4891641 222.50617107 260.02272701 218.74443722 C264.40623612 216.32682697 268.01877628 213.51588903 270.71413326 209.26006222 C270.71413326 208.60006222 270.71413326 207.94006222 270.71413326 207.26006222 C271.37413326 207.26006222 272.03413326 207.26006222 272.71413326 207.26006222 C274.44426046 203.95025366 275.95613724 200.92370964 276.71413326 197.26006222 C277.04413326 196.27006222 277.37413326 195.28006222 277.71413326 194.26006222 C278.39126006 184.12920354 277.95231173 174.66804189 271.71413326 166.26006222 C271.05413326 166.26006222 270.39413326 166.26006222 269.71413326 166.26006222 C269.62260983 165.66322628 269.53108639 165.06639034 269.43678951 164.45146847 C268.0884104 160.36259991 264.24793321 158.44126977 260.71413326 156.26006222 C255.41745106 153.60092392 255.41745106 153.60092392 249.71413326 154.26006222 C249.71413326 153.60006222 249.71413326 152.94006222 249.71413326 152.26006222 C239.07713734 151.74536887 229.84451091 154.07998845 221.71413326 161.26006222 C212.24102357 172.07596222 211.27323909 182.72748118 211.37355709 196.52007198 C211.37440444 198.15684652 211.37392612 199.7936222 211.37222958 201.43039608 C211.3713724 205.85131091 211.38895299 210.27197922 211.40995145 214.692837 C211.42876472 219.32126586 211.43047235 223.949701 211.43402767 228.57816219 C211.44333451 237.33274381 211.4679298 246.08721241 211.49807614 254.84174436 C211.53166261 264.81272685 211.54811682 274.78371487 211.56316245 284.75473988 C211.59448061 305.25657696 211.64721454 325.75831245 211.71413326 346.26006222 C267.08773435 346.30583338 322.46133353 346.34107824 377.83494981 346.36219288 C384.37133782 346.36469431 390.90772578 346.36728295 397.44411373 346.3699255 C399.39604114 346.37071243 399.39604114 346.37071243 401.38740142 346.37151526 C422.4615278 346.38021942 443.53564328 346.39598947 464.60976319 346.41436781 C486.23146807 346.43306652 507.85316723 346.44417888 529.47487986 346.44823921 C542.81812695 346.45098432 556.16134321 346.45965668 569.50458081 346.47589515 C578.65277346 346.48646166 587.80095015 346.48966359 596.94914846 346.48706497 C602.22825309 346.48578317 607.50730383 346.48775734 612.78639889 346.49847317 C617.62148905 346.50821602 622.45648916 346.50869035 627.29158349 346.50186001 C629.0387234 346.50101599 630.78586896 346.50354423 632.53299777 346.50982858 C648.83091086 346.56503229 661.65458575 344.76448087 674.71413326 334.26006222 C674.71413326 333.60006222 674.71413326 332.94006222 674.71413326 332.26006222 C675.37413326 332.26006222 676.03413326 332.26006222 676.71413326 332.26006222 C676.71413326 331.27006222 676.71413326 330.28006222 676.71413326 329.26006222 C677.70413326 328.93006222 678.69413326 328.60006222 679.71413326 328.26006222 C681.37813715 325.65669301 681.37813715 325.65669301 682.83913326 322.51006222 C683.61643795 320.93998409 683.61643795 320.93998409 684.40944576 319.33818722 C685.8457075 315.94964156 686.71413326 312.94359061 686.71413326 309.26006222 C686.87263588 307.76702614 687.03765035 306.27467813 687.20619678 304.7827425 C687.74492488 299.47294226 687.85419468 294.23066935 687.84111691 288.8971777 C687.8426769 287.90323604 687.84423689 286.90929438 687.84584415 285.88523328 C687.84980742 282.58128712 687.84668278 279.27738756 687.84352779 275.97344112 C687.84488386 273.59424977 687.84666494 271.21505863 687.84883785 268.83586788 C687.85338629 262.3942429 687.85163367 255.95263399 687.84845877 249.51100874 C687.84667799 245.48700462 687.84701735 241.46300253 687.84794903 237.43899822 C687.84810226 236.76987059 687.84825549 236.10074296 687.84841337 235.41133874 C687.84873311 234.051863 687.84905732 232.69238727 687.84938596 231.33291154 C687.85223241 218.60828422 687.84896616 205.88366413 687.8435856 193.15903799 C687.83911216 182.24137449 687.83989955 171.32372162 687.84450436 160.40605831 C687.84985427 147.71593309 687.85196427 135.02581418 687.84889209 122.33568799 C687.84857355 120.98320254 687.84825918 119.63071708 687.84794903 118.27823162 C687.84779475 117.61282966 687.84764048 116.9474277 687.84748153 116.26186205 C687.84661808 111.57282088 687.84807541 106.88378371 687.85042858 102.19474316 C687.85331101 95.88939082 687.85132472 89.58405862 687.84553432 83.27870846 C687.84420907 80.96152308 687.84459688 78.64433601 687.84679699 76.3271513 C687.84951745 73.17175939 687.84611636 70.01643261 687.84111691 66.86104488 C687.84334763 65.93790796 687.84557835 65.01477103 687.84787667 64.06366026 C687.84396505 62.79649186 687.84396505 62.79649186 687.8399744 61.5037241 C687.83973087 60.41142567 687.83973087 60.41142567 687.83948243 59.29706061 C687.70849904 57.16850279 687.29215479 55.30917536 686.71413326 53.26006222 C686.41055904 52.10570675 686.41055904 52.10570675 686.10085201 50.92803097 C684.20633184 44.20724712 681.59057083 39.07471857 677.71413326 33.26006222 C677.05413326 33.26006222 676.39413326 33.26006222 675.71413326 33.26006222 C675.44600826 32.47631222 675.17788326 31.69256222 674.90163326 30.88506222 C673.86598894 27.97891299 673.86598894 27.97891299 670.71413326 26.26006222 C669.72413326 26.26006222 668.73413326 26.26006222 667.71413326 26.26006222 C667.71413326 25.60006222 667.71413326 24.94006222 667.71413326 24.26006222 C667.05413326 24.26006222 666.39413326 24.26006222 665.71413326 24.26006222 C665.71413326 23.60006222 665.71413326 22.94006222 665.71413326 22.26006222 C663.73413326 22.26006222 661.75413326 22.26006222 659.71413326 22.26006222 C659.38413326 21.27006222 659.05413326 20.28006222 658.71413326 19.26006222 C657.39413326 19.59006222 656.07413326 19.92006222 654.71413326 20.26006222 C654.71413326 19.60006222 654.71413326 18.94006222 654.71413326 18.26006222 C591.71401711 18.20865345 528.7138985 18.16095367 465.71376705 18.1330328 C464.78162526 18.13261863 463.84948346 18.13220446 462.88909494 18.13177773 C442.63206121 18.12279941 422.37502725 18.1144888 402.11799297 18.10686623 C392.18421937 18.10312416 382.25044583 18.09923451 372.31667233 18.0952673 C371.32813253 18.09487502 370.33959274 18.09448274 369.3210972 18.09407858 C337.26880911 18.08129024 305.21653687 18.0587531 273.16425838 18.03117056 C240.23155822 18.00288178 207.29886683 17.98440797 174.36615472 17.97831725 C169.7166497 17.97745276 165.06714471 17.97647585 160.41763973 17.97543049 C159.5025335 17.97522822 158.58742726 17.97502595 157.64459054 17.97481755 C142.90272364 17.9712698 128.16088384 17.95734862 113.41902801 17.93956612 C98.60526058 17.92191759 83.79152007 17.91515497 68.97774249 17.91955809 C60.17223035 17.92184307 51.36681656 17.91572766 42.56132214 17.89766959 C36.68160986 17.88643345 30.8019621 17.8860617 24.9222454 17.89456678 C21.57048359 17.89910285 18.21905951 17.89722265 14.86729282 17.88541267 C11.2571022 17.87342816 7.64739792 17.87982956 4.03721523 17.89091873 C2.99615466 17.88303769 1.95509409 17.87515665 0.88248622 17.86703679 C-13.18333939 17.96511317 -23.41548617 24.6360644 -32.28586674 35.26006222 Z " fill="#00AFEF" transform="translate(60.28586673736572,-0.26006221771240234)"/>
<path d="M0 0 C0.77988281 0.64710937 1.55976562 1.29421875 2.36328125 1.9609375 C19.23391636 16.23833163 31.76420757 36.68321337 38.8125 57.5 C39.0904541 58.31726563 39.3684082 59.13453125 39.65478516 59.9765625 C43.79584868 72.84082802 45.45036091 85.08330951 45.34057617 98.56420898 C45.33972716 100.05408714 45.34021038 101.54396655 45.34190369 103.03384399 C45.34275437 107.02674385 45.32528143 111.01936597 45.30418181 115.01220202 C45.28525796 119.20416986 45.28365233 123.39614606 45.28010559 127.58815002 C45.27083079 135.50317969 45.24627975 143.41808307 45.21605712 151.33305746 C45.18236982 160.35377202 45.1659913 169.37449303 45.15097082 178.39525497 C45.11972539 196.93024122 45.06705506 215.46511041 45 234 C41.66844749 235.66577625 37.93463941 235.12007856 34.2734375 235.09765625 C32.97921371 235.09553383 32.97921371 235.09553383 31.65884399 235.09336853 C28.8975277 235.08776188 26.13629188 235.07520827 23.375 235.0625 C21.5052095 235.05748586 19.63541774 235.0529228 17.765625 235.04882812 C13.17705223 235.03779029 8.58853977 235.0205212 4 235 C3.99503478 233.86416757 3.99503478 233.86416757 3.98996925 232.70538902 C3.90873436 214.27701374 3.81664025 195.84872198 3.71247292 177.42046165 C3.66235992 168.50867808 3.61591682 159.59690364 3.578125 150.68505859 C3.54517476 142.91712525 3.50532674 135.14926309 3.45720994 127.38140833 C3.43197512 123.26873437 3.41018493 119.15610744 3.39665604 115.04337692 C3.3838083 111.17085429 3.36172471 107.29849322 3.33261681 103.42605972 C3.32356222 102.00632221 3.31785575 100.5865587 3.31578636 99.16679382 C3.31244899 97.22455207 3.29576896 95.28234705 3.2784729 93.34017944 C3.27294214 92.25430731 3.26741138 91.16843517 3.26171303 90.04965782 C2.97939206 86.75986229 2.13923648 84.08888192 1 81 C0.52510356 79.06649307 0.06680337 77.128836 -0.375 75.1875 C-2.67055989 65.82083897 -2.67055989 65.82083897 -8 58 C-8 57.01 -8 56.02 -8 55 C-8.639375 54.731875 -9.27875 54.46375 -9.9375 54.1875 C-12 53 -12 53 -13 50 C-12.67 49.34 -12.34 48.68 -12 48 C-12.99 47.67 -13.98 47.34 -15 47 C-15 46.34 -15 45.68 -15 45 C-15.66 44.67 -16.32 44.34 -17 44 C-17.66 43.01 -18.32 42.02 -19 41 C-19.99 40.5359375 -19.99 40.5359375 -21 40.0625 C-23 39 -23 39 -23.8125 37.125 C-25.68884715 33.76732616 -28.62577604 32.74959761 -32 31 C-32 30.34 -32 29.68 -32 29 C-32.99 28.67 -33.98 28.34 -35 28 C-36.74298744 26.9993961 -38.48541479 25.99770149 -40.21875 24.98046875 C-42.13519196 23.87536596 -42.13519196 23.87536596 -44.875 22.875 C-47 22 -47 22 -48 20 C-55.08500742 16.53592811 -62.18409499 15.30235609 -70 15 C-70 14.34 -70 13.68 -70 13 C-71.5778125 13.2475 -71.5778125 13.2475 -73.1875 13.5 C-78.11317639 14.13330125 -82.99156459 14.03249697 -87.94921875 13.9375 C-90.79255964 13.99575026 -93.23283079 14.39257261 -96 15 C-98.36825377 15.24064514 -100.73616359 15.43642333 -103.109375 15.62109375 C-104.04523438 15.80865234 -104.04523438 15.80865234 -105 16 C-105.495 16.99 -105.495 16.99 -106 18 C-107.5614215 18.60192203 -109.1512776 19.13059741 -110.75 19.625 C-130.25419733 26.51328703 -146.79705211 42.6439847 -156 61 C-166.89574509 85.72188616 -168.32950547 111.73666415 -158.6081543 137.12792969 C-153.91470762 148.53613971 -146.67482275 158.28069098 -138 167 C-137.27683594 167.75796875 -136.55367187 168.5159375 -135.80859375 169.296875 C-121.22967082 183.60444742 -101.2703699 190.20603377 -81.1875 190.125 C-80.24068359 190.12886719 -79.29386719 190.13273438 -78.31835938 190.13671875 C-77.38185547 190.13542969 -76.44535156 190.13414062 -75.48046875 190.1328125 C-74.22592896 190.13112061 -74.22592896 190.13112061 -72.94604492 190.12939453 C-68.95012619 189.95388803 -64.97530746 189.44170083 -61 189 C-61 203.52 -61 218.04 -61 233 C-66.61 233.66 -72.22 234.32 -78 235 C-79.65 235.33 -81.3 235.66 -83 236 C-83.33 235.67 -83.66 235.34 -84 235 C-87.2491696 234.76142461 -90.49096203 234.60531359 -93.74609375 234.48242188 C-98.43437646 234.25192189 -102.48209946 233.37259709 -107 232 C-108.051875 232 -109.10375 232 -110.1875 232 C-113.11200362 232 -114.54274686 231.51215578 -117 230 C-117 229.34 -117 228.68 -117 228 C-118.20076172 228.14115234 -118.20076172 228.14115234 -119.42578125 228.28515625 C-124.39036324 227.88907485 -127.87768177 225.82172752 -132.1875 223.4375 C-133.02885498 222.98294434 -133.87020996 222.52838867 -134.73706055 222.06005859 C-141.01008591 218.63643228 -147.06916824 214.98963728 -153 211 C-154.11375 210.29875 -155.2275 209.5975 -156.375 208.875 C-159.24289744 206.82650183 -161.54245947 204.52055439 -164 202 C-164.825 201.360625 -165.65 200.72125 -166.5 200.0625 C-169.42163938 197.65214751 -171.6147328 194.93571348 -174 192 C-174.70125 191.29875 -175.4025 190.5975 -176.125 189.875 C-179.37426184 186.62573816 -181.71720449 182.93481804 -184.0625 179 C-184.56910156 178.154375 -185.07570313 177.30875 -185.59765625 176.4375 C-187 174 -187 174 -188.05859375 171.75 C-188.88032939 169.8199103 -188.88032939 169.8199103 -191 169 C-191 167.68 -191 166.36 -191 165 C-191.66 165 -192.32 165 -193 165 C-193.12375 164.030625 -193.2475 163.06125 -193.375 162.0625 C-193.684375 160.5465625 -193.684375 160.5465625 -194 159 C-194.66 158.67 -195.32 158.34 -196 158 C-196 157.01 -196 156.02 -196 155 C-196.66 154.67 -197.32 154.34 -198 154 C-200.42808758 147.70904582 -202.00285332 141.22482373 -203.55419922 134.67358398 C-204.44310529 130.97402009 -205.47840567 127.48952299 -207 124 C-206.34 124 -205.68 124 -205 124 C-205.31710937 123.4534375 -205.63421875 122.906875 -205.9609375 122.34375 C-210.46210651 112.1907372 -208.2733573 97.48535531 -207.125 86.6875 C-207.00741333 85.55803955 -207.00741333 85.55803955 -206.88745117 84.40576172 C-206.35113379 79.75836338 -205.39030732 75.48323738 -204 71 C-203.61425899 69.65057328 -203.23158001 68.30026845 -202.8515625 66.94921875 C-198.29401251 51.01446775 -192.51888205 36.03326395 -182 23 C-181.67 22.01 -181.34 21.02 -181 20 C-179.68945377 18.64426252 -178.35251497 17.31387169 -177 16 C-175.948125 14.63875 -175.948125 14.63875 -174.875 13.25 C-174.25625 12.5075 -173.6375 11.765 -173 11 C-172.34 11 -171.68 11 -171 11 C-170.77441406 10.43539062 -170.54882812 9.87078125 -170.31640625 9.2890625 C-168.62693568 6.35128875 -166.50173617 4.58134997 -163.9375 2.375 C-160.48348875 -0.43092091 -160.48348875 -0.43092091 -158 -4 C-156.3629256 -4.95496007 -154.72114267 -5.90261407 -153.05859375 -6.8125 C-150.96591264 -8.0196633 -149.03526275 -9.35657065 -147.0625 -10.75 C-102.03649045 -40.7673397 -40.3416401 -35.400571 0 0 Z " fill="#00AFEF" transform="translate(670,85)"/>
<path d="M0 0 C3.50437689 2.8398432 6.78189041 5.84098758 10 9 C10.69996094 9.67546875 11.39992188 10.3509375 12.12109375 11.046875 C23.55526335 22.90453237 31.1345147 40.635521 31.12025452 57.10603333 C31.12231651 58.94642181 31.12231651 58.94642181 31.12442017 60.82398987 C31.12088152 62.17538477 31.11724672 63.52677942 31.11352539 64.87817383 C31.11324318 66.30746458 31.11340191 67.73675548 31.1139679 69.16604614 C31.11425456 73.0396062 31.10837888 76.91313523 31.10139394 80.78668809 C31.09513872 84.83725721 31.09455488 88.88782706 31.09336853 92.93840027 C31.09026161 100.60579753 31.08205683 108.27318051 31.07201904 115.94057149 C31.06083806 124.67087003 31.05534245 133.40116926 31.05032361 142.13147318 C31.03987369 160.08765852 31.02153615 178.0438243 31 196 C17.47 196 3.94 196 -10 196 C-10.77863959 192.10680205 -11.12059639 189.15828851 -11.10679626 185.26928711 C-11.10452278 183.5533284 -11.10452278 183.5533284 -11.10220337 181.80270386 C-11.095466 180.55683502 -11.08872864 179.31096619 -11.08178711 178.02734375 C-11.07708 176.00242113 -11.07237506 173.9774985 -11.067752 171.95257568 C-11.0618732 169.78088343 -11.05355013 167.60921217 -11.04459953 165.43753052 C-11.02627751 160.90749801 -11.01670018 156.37747305 -11.00868225 151.84741211 C-10.98455204 138.9675768 -10.94863662 126.08778797 -10.90405273 113.20800781 C-10.87949257 106.09053547 -10.86213843 98.97308123 -10.85249335 91.8555727 C-10.84595627 87.3534772 -10.83041011 82.85153127 -10.80817592 78.3494873 C-10.79367998 74.89054757 -10.79226436 71.43162421 -10.78881836 67.97265625 C-10.77567596 66.103853 -10.77567596 66.103853 -10.76226807 64.19729614 C-10.76357224 63.05332367 -10.7648764 61.9093512 -10.76622009 60.73071289 C-10.76307769 59.73890518 -10.75993528 58.74709747 -10.75669765 57.72523499 C-11.12002931 53.65554901 -12.10286717 50.89713283 -15 48 C-16.58189467 45.02603803 -17.93419207 42.1974238 -19 39 C-20.485 38.505 -20.485 38.505 -22 38 C-22.4125 37.54625 -22.825 37.0925 -23.25 36.625 C-26.98946575 33.15263895 -32.04007836 31.74398825 -37 31 C-38.03125 30.79375 -39.0625 30.5875 -40.125 30.375 C-45.11847277 29.8917607 -50.06595165 30.01831218 -55 31 C-55.495 31.99 -55.495 31.99 -56 33 C-56.99 33.33 -57.98 33.66 -59 34 C-59.66 34.66 -60.32 35.32 -61 36 C-62.12339238 36.91863613 -63.24857395 37.83508627 -64.375 38.75 C-71.24003858 44.66076974 -74.51112391 51.62825312 -75.32421875 60.5625 C-75.55804014 68.56080407 -74.90339516 74.96361662 -71 82 C-70.649375 82.64453125 -70.29875 83.2890625 -69.9375 83.953125 C-65.79665506 90.56697456 -58.55304114 95.09359767 -51.22265625 97.52734375 C-43.31427985 99.20908987 -36.44025941 98.35972062 -29.15625 94.97265625 C-27 94 -27 94 -23 93 C-23 108.18 -23 123.36 -23 139 C-32.00712223 142.37767084 -32.00712223 142.37767084 -35.359375 142.546875 C-36.08253906 142.58683594 -36.80570313 142.62679687 -37.55078125 142.66796875 C-38.27652344 142.69503906 -39.00226563 142.72210938 -39.75 142.75 C-40.86181641 142.81380859 -40.86181641 142.81380859 -41.99609375 142.87890625 C-45.55900011 143.05161446 -48.57898195 142.95121199 -52 142 C-52.98613281 141.78601563 -53.97226562 141.57203125 -54.98828125 141.3515625 C-61.01173918 140.03503703 -66.41361287 138.57833252 -72 136 C-73.5391898 135.53341633 -75.08103598 135.07553376 -76.625 134.625 C-80.89472717 133.21850164 -82.97161669 131.39769835 -86 128 C-87.69548173 126.44421062 -89.4051238 124.90377884 -91.125 123.375 C-97.4937955 117.70309398 -97.4937955 117.70309398 -99 116 C-99 115.34 -99 114.68 -99 114 C-100.485 113.505 -100.485 113.505 -102 113 C-103.28125 111.07421875 -103.28125 111.07421875 -104.5 108.6875 C-105.71506547 106.33136343 -106.82906153 104.21100217 -108.5 102.1484375 C-111.6312694 97.66354643 -112.8074102 92.04098989 -114.41552734 86.84960938 C-114.90821708 85.29045422 -115.44350808 83.74485461 -115.98828125 82.203125 C-119.67889362 70.93888629 -119.22967075 57.34054842 -116 46 C-115.731875 44.97648437 -115.46375 43.95296875 -115.1875 42.8984375 C-109.36210933 22.16975569 -96.043767 5.53095069 -77.6328125 -5.40625 C-52.68753905 -18.81944622 -22.70347592 -16.46732803 0 0 Z " fill="#00AFEF" transform="translate(632,123)"/>
<path d="M0 0 C13.53 0 27.06 0 41 0 C41.04510124 21.86993948 41.08196254 43.73984147 41.10362434 65.6098156 C41.11394845 75.76381975 41.12803037 85.91779301 41.15087891 96.07177734 C41.17077815 104.91928061 41.18370818 113.76676152 41.18817699 122.61428654 C41.19079026 127.30142746 41.19695599 131.98850439 41.21146011 136.67562485 C41.22498934 141.08322122 41.22923214 145.49072697 41.22621536 149.89834213 C41.22676762 151.5197397 41.23077273 153.14114016 41.23841095 154.76251984 C41.24829949 156.96897999 41.24599147 159.17509382 41.24050903 161.38156128 C41.24235262 162.61860746 41.24419621 163.85565365 41.24609566 165.13018608 C41 168 41 168 39 170 C36.32216111 170.22431566 33.75071398 170.32813506 31.0703125 170.3359375 C29.89020096 170.3459227 29.89020096 170.3459227 28.68624878 170.35610962 C27.02018576 170.36624299 25.35408209 170.37092643 23.68798828 170.37060547 C21.14156898 170.37497159 18.59689283 170.41126123 16.05078125 170.44921875 C14.4322976 170.45508826 12.8138057 170.45905676 11.1953125 170.4609375 C10.4347757 170.47530853 9.67423889 170.48967957 8.89065552 170.50448608 C5.60985124 170.47621167 3.48319359 170.35365706 0.79754353 168.38798714 C-1.59427446 165.21052273 -1.49560363 163.26396051 -1.48774719 159.30636597 C-1.49187046 158.63465681 -1.49599372 157.96294766 -1.50024194 157.27088368 C-1.5091689 155.02115665 -1.48951618 152.77259564 -1.4699707 150.52294922 C-1.47047949 148.90985981 -1.47273513 147.29677014 -1.47660828 145.6836853 C-1.48203126 141.30359618 -1.46260749 136.92392944 -1.43850732 132.54391623 C-1.41723172 127.96444086 -1.41780699 123.38496737 -1.41581726 118.80545044 C-1.40936821 111.11680823 -1.38811357 103.42832503 -1.35668945 95.73974609 C-1.31637096 85.86176974 -1.29899834 75.98389696 -1.28938007 66.10584831 C-1.28108693 57.62283047 -1.26384799 49.13983469 -1.24434257 40.65683603 C-1.23827084 37.92500174 -1.23313099 35.1931666 -1.2279911 32.46133041 C-1.21922327 28.17515196 -1.20492936 23.88902507 -1.1862812 19.60287857 C-1.18014759 18.02663997 -1.17570363 16.45039379 -1.17303848 14.87414551 C-1.16907059 12.72926979 -1.1589659 10.58451161 -1.14717102 8.43966675 C-1.14289754 7.23731321 -1.13862406 6.03495968 -1.13422108 4.79617119 C-1 2 -1 2 0 0 Z " fill="#00AFEF" transform="translate(51,151)"/>
<path d="M0 0 C13.53 0 27.06 0 41 0 C41 55.44 41 110.88 41 168 C27.8 168.33 14.6 168.66 1 169 C0 168 0 168 -0.12304783 165.25323391 C-0.12212604 164.01526593 -0.12120424 162.77729795 -0.12025452 161.5018158 C-0.12110894 160.81492457 -0.12196337 160.12803335 -0.12284368 159.42032725 C-0.12450045 157.10172545 -0.11897393 154.78319483 -0.11352539 152.46459961 C-0.11324354 150.80930076 -0.11340122 149.15400178 -0.1139679 147.498703 C-0.11425594 142.99063067 -0.10835819 138.48258471 -0.10139394 133.97451854 C-0.09516145 129.26862263 -0.09455668 124.56272618 -0.09336853 119.85682678 C-0.0902549 110.93911366 -0.08204109 102.02141273 -0.07201904 93.10370499 C-0.06085888 82.95393703 -0.0553477 72.8041685 -0.05032361 62.65439594 C-0.0398585 41.76958896 -0.02151264 20.88479872 0 0 Z " fill="#00AFEF" transform="translate(105,151)"/>
<path d="M0 0 C1.7297444 0.00025116 3.45949379 0.00581496 5.18920898 0.01586914 C5.99418823 0.01687622 6.79916748 0.0178833 7.62854004 0.0189209 C10.64747534 0.02416925 13.66639041 0.0381304 16.68530273 0.05102539 C23.42967773 0.07165039 30.17405273 0.09227539 37.12280273 0.11352539 C37.12280273 24.53352539 37.12280273 48.95352539 37.12280273 74.11352539 C16.82780273 73.61852539 16.82780273 73.61852539 -3.87719727 73.11352539 C-4.71146086 68.94220743 -5.00374793 65.61547692 -5.0065918 61.41137695 C-5.00834412 60.75876389 -5.01009644 60.10615082 -5.01190186 59.4337616 C-5.01628059 57.29053032 -5.01339784 55.14738241 -5.01000977 53.00415039 C-5.01068362 51.51153548 -5.01165433 50.01892068 -5.01290894 48.52630615 C-5.01438023 45.40611725 -5.0122484 42.28595705 -5.00756836 39.16577148 C-5.00185157 35.15840516 -5.00516593 31.15110553 -5.01114082 27.14374161 C-5.01474491 24.06579073 -5.0136089 20.98785582 -5.01101303 17.90990448 C-5.01034436 16.4314549 -5.0111701 14.95300388 -5.01349258 13.47455597 C-5.01601875 11.41569642 -5.01218 9.356947 -5.0065918 7.2980957 C-5.0057962 6.12514954 -5.00500061 4.95220337 -5.00418091 3.74371338 C-4.80199573 -0.44410978 -4.40606862 0.12901089 0 0 Z " fill="#00AFEF" transform="translate(54.877197265625,63.886474609375)"/>
<path d="M0 0 C13.53 0 27.06 0 41 0 C41 24.42 41 48.84 41 74 C20.705 73.505 20.705 73.505 0 73 C0 48.91 0 24.82 0 0 Z " fill="#00AFEF" transform="translate(105,64)"/>
<path d="M0 0 C2.97 0 5.94 0 9 0 C11.32024078 6.54546947 12.42263207 13.17726107 13.625 20 C13.85445312 21.258125 14.08390625 22.51625 14.3203125 23.8125 C14.536875 25.029375 14.7534375 26.24625 14.9765625 27.5 C15.17330566 28.6034375 15.37004883 29.706875 15.57275391 30.84375 C15.99181532 33.93953623 16.076932 36.8804367 16 40 C17.77713595 36.06808671 18.47236243 32.46042213 19 28.1875 C19.52196307 24.25017224 20.04570282 20.40373379 21.0625 16.5625 C22.07132149 13.01840087 22.07132149 13.01840087 22.5 9.375 C22.991696 6.05605199 23.8496123 3.14439303 25 0 C28.375 -0.1875 28.375 -0.1875 32 0 C34.37483003 3.56224504 34.84143014 6.81547808 35.5078125 10.94921875 C35.70333206 12.10814384 35.70333206 12.10814384 35.90280151 13.29048157 C36.31699604 15.7550745 36.7211135 18.22119903 37.125 20.6875 C37.40428521 22.36013683 37.68422534 24.03266445 37.96484375 25.70507812 C38.65083138 29.8021575 39.32778701 33.90063904 40 38 C41.23181453 33.74341389 42.37686869 29.54540518 43.1875 25.1875 C43.36667969 24.25292969 43.54585937 23.31835938 43.73046875 22.35546875 C44.21908021 19.98316207 44.21908021 19.98316207 43 18 C43.66 18 44.32 18 45 18 C45.03738281 17.20335937 45.07476562 16.40671875 45.11328125 15.5859375 C45.47956941 9.68223426 45.78602794 5.03056497 49 0 C51.97 0 54.94 0 58 0 C58.26047153 6.62516413 57.28655039 12.57200819 55.91796875 19.04296875 C55.70312332 20.08842361 55.48827789 21.13387848 55.266922 22.21101379 C54.58112978 25.53807865 53.88431424 28.86272821 53.1875 32.1875 C52.73043178 34.40155079 52.27404524 36.61574241 51.81835938 38.83007812 C49.66648326 49.24841105 47.48652635 59.65548672 45 70 C40.05 70.495 40.05 70.495 35 71 C35 68.36 35 65.72 35 63 C34.01 62.505 34.01 62.505 33 62 C32.56726732 59.5027718 32.24868994 57.07917411 32 54.5625 C31.38375763 48.92209198 30.59193635 43.44543181 29.26953125 37.91796875 C29 36 29 36 30 33 C29.34 33 28.68 33 28 33 C27.93631226 33.944198 27.93631226 33.944198 27.87133789 34.9074707 C27.25672672 42.78230953 25.92922121 50.4363996 24.4375 58.1875 C24.20353516 59.42564453 23.96957031 60.66378906 23.72851562 61.93945312 C23.15695784 64.96054425 22.58070458 67.98065615 22 71 C18.7 71 15.4 71 12 71 C11.81824219 69.86304688 11.63648438 68.72609375 11.44921875 67.5546875 C9.71034479 51.02504345 9.71034479 51.02504345 4 36 C4.66 36 5.32 36 6 36 C5.52046875 35.21689453 5.52046875 35.21689453 5.03125 34.41796875 C3.30829289 30.37815642 3.53697479 26.14350837 3.34375 21.80078125 C3.2303125 20.87652344 3.116875 19.95226562 3 19 C2.34 18.67 1.68 18.34 1 18 C0.67 12.06 0.34 6.12 0 0 Z " fill="#00AFEF" transform="translate(0,399)"/>
<path d="M0 0 C2.0078125 0.42578125 2.0078125 0.42578125 3.5703125 1.9765625 C5.44063216 5.16322127 6.80485206 8.4890997 8.1328125 11.92578125 C8.39707031 12.58964844 8.66132812 13.25351562 8.93359375 13.9375 C10.16253375 17.06287533 11.31915877 20.1336805 12.0078125 23.42578125 C16.09943447 14.09486087 16.09943447 14.09486087 19.8203125 4.61328125 C21.0078125 1.42578125 21.0078125 1.42578125 22.0078125 0.42578125 C23.8203125 0.29296875 23.8203125 0.29296875 26.0078125 0.30078125 C26.7296875 0.29820312 27.4515625 0.295625 28.1953125 0.29296875 C30.0078125 0.42578125 30.0078125 0.42578125 31.0078125 1.42578125 C31.10206845 3.57321674 31.12523898 5.72379151 31.12133789 7.87329102 C31.12148392 8.54643341 31.12162994 9.21957581 31.1217804 9.91311646 C31.12108128 12.14783909 31.11328902 14.38247935 31.10546875 16.6171875 C31.10360456 18.16275487 31.10218066 19.70832282 31.10118103 21.25389099 C31.0973559 25.32935202 31.08752567 29.40477762 31.07647705 33.48022461 C31.06626282 37.63590007 31.06168339 41.79158124 31.05664062 45.94726562 C31.04590339 54.10678712 31.02882704 62.26627978 31.0078125 70.42578125 C27.7078125 70.42578125 24.4078125 70.42578125 21.0078125 70.42578125 C20.6778125 57.22578125 20.3478125 44.02578125 20.0078125 30.42578125 C17.6978125 35.37578125 15.3878125 40.32578125 13.0078125 45.42578125 C12.3478125 45.42578125 11.6878125 45.42578125 11.0078125 45.42578125 C10.20662858 44.07722358 9.41739642 42.72156382 8.6328125 41.36328125 C8.19195313 40.60917969 7.75109375 39.85507812 7.296875 39.078125 C6.0078125 36.42578125 6.0078125 36.42578125 4.0078125 29.42578125 C3.6778125 42.95578125 3.3478125 56.48578125 3.0078125 70.42578125 C-0.2921875 70.42578125 -3.5921875 70.42578125 -6.9921875 70.42578125 C-7.01531316 61.44657348 -7.03310373 52.46737588 -7.04399967 43.48814487 C-7.04922801 39.31915297 -7.05632476 35.15018138 -7.06762695 30.98120117 C-7.07845758 26.96120439 -7.08446471 22.9412272 -7.08706474 18.92121696 C-7.08891868 17.3841515 -7.09253869 15.84708716 -7.09791756 14.31002998 C-7.10513034 12.16442638 -7.10617834 10.0189047 -7.10571289 7.87329102 C-7.1079335 6.64973404 -7.11015411 5.42617706 -7.11244202 4.1655426 C-6.89428472 -0.80474007 -4.45469926 0.23835107 0 0 Z " fill="#00AFEF" transform="translate(560.9921875,398.57421875)"/>
<path d="M0 0 C3.98118738 0.03309776 5.85741062 0.09264995 9.375 2.0625 C13.08851571 6.51871885 13.68809233 10.00702845 13.5703125 15.7109375 C12.93149003 20.89942242 10.76368496 24.92154625 6.9375 28.4375 C4.91088944 30.24896932 4.91088944 30.24896932 5.375 33.1875 C6.23809511 36.26998253 7.17335551 39.29789544 8.25 42.3125 C8.91 42.3125 9.57 42.3125 10.25 42.3125 C10.2190625 40.6109375 10.2190625 40.6109375 10.1875 38.875 C10.25 35.3125 10.25 35.3125 11.25 34.3125 C12.76928038 34.24070036 14.29167482 34.22857993 15.8125 34.25 C16.63878906 34.25902344 17.46507812 34.26804687 18.31640625 34.27734375 C18.95449219 34.28894531 19.59257812 34.30054688 20.25 34.3125 C20.50222022 39.62957484 19.65942878 43.55131407 17.9375 48.5625 C16.28627066 53.88194991 16.04305973 57.41592873 18.5 62.5625 C19.00015625 63.41328125 19.5003125 64.2640625 20.015625 65.140625 C21.25 67.3125 21.25 67.3125 21.25 70.3125 C19.45866022 70.36641993 17.66686101 70.40525571 15.875 70.4375 C14.87726563 70.46070313 13.87953125 70.48390625 12.8515625 70.5078125 C10.25 70.3125 10.25 70.3125 8.25 68.3125 C7.25419922 69.04919922 7.25419922 69.04919922 6.23828125 69.80078125 C2.55606324 71.66355036 -0.5446943 71.64994682 -4.5625 71.5 C-5.60180664 71.47969727 -5.60180664 71.47969727 -6.66210938 71.45898438 C-8.35841265 71.42388845 -10.05431136 71.37008943 -11.75 71.3125 C-12.04648437 70.69632812 -12.34296875 70.08015625 -12.6484375 69.4453125 C-13.71156895 67.2341706 -13.71156895 67.2341706 -15.375 65.1875 C-16.75 63.3125 -16.75 63.3125 -16.75 61.3125 C-17.41 61.3125 -18.07 61.3125 -18.75 61.3125 C-19.245 59.8275 -19.245 59.8275 -19.75 58.3125 C-19.255 57.8175 -19.255 57.8175 -18.75 57.3125 C-18.9975 56.095625 -19.245 54.87875 -19.5 53.625 C-20.37024912 46.77316515 -17.70161616 40.40542488 -14.75 34.3125 C-13.42498861 32.97089634 -12.09340665 31.63568333 -10.75 30.3125 C-10.8920951 26.54697991 -11.66779019 23.54182209 -12.9375 20 C-14.02776332 15.05188186 -13.48536648 11.06065551 -11.75 6.3125 C-9.1875 3.25 -9.1875 3.25 -6.75 1.3125 C-4.96066124 -0.47683876 -2.4198379 0.05606941 0 0 Z M-0.75 9.3125 C-3.11401384 11.24122076 -3.11401384 11.24122076 -3 14.6875 C-2.77515633 17.94773324 -2.4739511 19.61882641 -0.75 22.3125 C1.58333823 20.19128343 3.1648886 18.29655635 4.25 15.3125 C3.91059264 13.00452999 3.29244769 11.39739539 2.25 9.3125 C1.26 9.3125 0.27 9.3125 -0.75 9.3125 Z M-4.75 39.3125 C-8.07400932 43.60601204 -8.88618764 47.99210276 -8.75 53.3125 C-8.17948045 56.29249531 -7.45616656 57.67069371 -5.75 60.3125 C-2.8654892 61.72392752 -2.8654892 61.72392752 0.25 61.3125 C2.64795381 59.49962805 2.64795381 59.49962805 4.25 57.3125 C2.93648399 53.06883289 1.30071712 49.24987686 -0.75 45.3125 C-1.75 43.3125 -2.75 41.3125 -3.75 39.3125 C-4.08 39.3125 -4.41 39.3125 -4.75 39.3125 Z " fill="#00AFEF" transform="translate(351.75,398.6875)"/>
<path d="M0 0 C2.05078125 0.03255208 4.1015625 0.06510417 6.15234375 0.09765625 C10.53822408 11.74514064 14.86033664 23.41527003 19.15234375 35.09765625 C19.14187012 34.10846191 19.13139648 33.11926758 19.12060547 32.10009766 C19.08445356 28.43623461 19.06146093 24.77238739 19.04248047 21.10839844 C19.03241187 19.52145742 19.01875608 17.934535 19.00146484 16.34765625 C18.97725374 14.06896378 18.96586953 11.79051619 18.95703125 9.51171875 C18.94670868 8.8002066 18.93638611 8.08869446 18.92575073 7.35562134 C18.92534953 5.6013396 19.03032166 3.84768916 19.15234375 2.09765625 C19.81234375 1.43765625 20.47234375 0.77765625 21.15234375 0.09765625 C23.79234375 0.09765625 26.43234375 0.09765625 29.15234375 0.09765625 C29.15234375 23.19765625 29.15234375 46.29765625 29.15234375 70.09765625 C24.69734375 70.59265625 24.69734375 70.59265625 20.15234375 71.09765625 C16.36722891 60.81828346 16.36722891 60.81828346 14.71484375 55.78515625 C12.62707763 49.5218579 10.37286898 43.3151269 8.15234375 37.09765625 C7.82234375 47.98765625 7.49234375 58.87765625 7.15234375 70.09765625 C3.85234375 70.09765625 0.55234375 70.09765625 -2.84765625 70.09765625 C-2.87078191 61.11844848 -2.88857248 52.13925088 -2.89946842 43.16001987 C-2.90469676 38.99102797 -2.91179351 34.82205638 -2.9230957 30.65307617 C-2.93392633 26.63307939 -2.93993346 22.6131022 -2.94253349 18.59309196 C-2.94438743 17.0560265 -2.94800744 15.51896216 -2.95338631 13.98190498 C-2.96059909 11.83630138 -2.96164709 9.6907797 -2.96118164 7.54516602 C-2.96340225 6.32160904 -2.96562286 5.09805206 -2.96791077 3.8374176 C-2.80598714 0.14830799 -2.80598714 0.14830799 0 0 Z " fill="#00AFEF" transform="translate(233.84765625,398.90234375)"/>
<path d="M0 0 C2.64 0 5.28 0 8 0 C11.47987373 7.33293392 14.14084631 14.8837692 16.75 22.5625 C17.16121094 23.76197266 17.57242188 24.96144531 17.99609375 26.19726562 C19.00103383 29.13028842 20.00223994 32.06452859 21 35 C20.98952637 34.01080566 20.97905273 33.02161133 20.96826172 32.00244141 C20.93210981 28.33857836 20.90911718 24.67473114 20.89013672 21.01074219 C20.88006812 19.42380117 20.86641233 17.83687875 20.84912109 16.25 C20.82490999 13.97130753 20.81352578 11.69285994 20.8046875 9.4140625 C20.79436493 8.70255035 20.78404236 7.99103821 20.77340698 7.25796509 C20.77300578 5.50368335 20.87797791 3.75003291 21 2 C21.66 1.34 22.32 0.68 23 0 C25.64 0 28.28 0 31 0 C31 23.1 31 46.2 31 70 C28.03 70 25.06 70 22 70 C21.32779649 68.06441401 20.66241923 66.12645628 20 64.1875 C19.62875 63.10855469 19.2575 62.02960938 18.875 60.91796875 C18 58 18 58 18 55 C17.34 54.67 16.68 54.34 16 54 C15.25390625 52.21484375 15.25390625 52.21484375 14.5625 49.9375 C13.20603248 45.52704274 11.63415527 41.3577474 10 37 C9.67 47.89 9.34 58.78 9 70 C5.7 70 2.4 70 -1 70 C-1.02315734 61.31610145 -1.04093243 52.6322135 -1.05181217 43.94829082 C-1.05703356 39.91611835 -1.06411774 35.88396697 -1.07543945 31.85180664 C-1.08629472 27.96147771 -1.09228245 24.07116909 -1.09487724 20.18082619 C-1.09672672 18.6956532 -1.10033821 17.21048135 -1.10573006 15.725317 C-1.11297549 13.6471757 -1.11398946 11.56911867 -1.11352539 9.4909668 C-1.115746 8.30738083 -1.11796661 7.12379486 -1.12025452 5.90434265 C-1 3 -1 3 0 0 Z " fill="#00AFEF" transform="translate(737,399)"/>
<path d="M0 0 C0.8146875 0.00257813 1.629375 0.00515625 2.46875 0.0078125 C3.2834375 0.00523437 4.098125 0.00265625 4.9375 0 C6.96875 0.1328125 6.96875 0.1328125 7.96875 1.1328125 C8.05650605 3.27840077 8.07570219 5.42685671 8.06640625 7.57421875 C8.06318359 8.87939453 8.05996094 10.18457031 8.05664062 11.52929688 C8.04828401 12.9179694 8.03981905 14.30664127 8.03125 15.6953125 C8.02623666 17.08788906 8.02167347 18.48046731 8.01757812 19.87304688 C8.00574434 23.2930112 7.9892588 26.71289094 7.96875 30.1328125 C11.59875 30.1328125 15.22875 30.1328125 18.96875 30.1328125 C18.96351318 29.25955322 18.95827637 28.38629395 18.95288086 27.48657227 C18.93587249 24.25691977 18.92331631 21.02729005 18.91381836 17.79760742 C18.9087792 16.39786022 18.90194784 14.9981183 18.89331055 13.59838867 C18.8812268 11.59035473 18.87605193 9.58228293 18.87109375 7.57421875 C18.86585693 6.36451416 18.86062012 5.15480957 18.85522461 3.90844727 C18.96875 1.1328125 18.96875 1.1328125 19.96875 0.1328125 C21.46613124 0.0349068 22.96817892 0.00306386 24.46875 0.0078125 C25.2834375 0.00523437 26.098125 0.00265625 26.9375 0 C28.96875 0.1328125 28.96875 0.1328125 29.96875 1.1328125 C30.06304342 3.31086969 30.08617538 5.4920253 30.08227539 7.67211914 C30.08242142 8.35501511 30.08256744 9.03791107 30.0827179 9.74150085 C30.08201876 12.00868864 30.0742264 14.27579524 30.06640625 16.54296875 C30.06454207 18.11095637 30.06311817 19.67894457 30.06211853 21.24693298 C30.05829334 25.38157753 30.04846306 29.51618716 30.03741455 33.65081787 C30.02720044 37.86681648 30.02262091 42.08282072 30.01757812 46.29882812 C30.00684079 54.57683897 29.98976436 62.8548214 29.96875 71.1328125 C26.33875 70.8028125 22.70875 70.4728125 18.96875 70.1328125 C18.96875 60.2328125 18.96875 50.3328125 18.96875 40.1328125 C15.33875 40.1328125 11.70875 40.1328125 7.96875 40.1328125 C7.96875 50.0328125 7.96875 59.9328125 7.96875 70.1328125 C4.33875 70.1328125 0.70875 70.1328125 -3.03125 70.1328125 C-3.05437566 61.15360473 -3.07216623 52.17440713 -3.08306217 43.19517612 C-3.08829051 39.02618422 -3.09538726 34.85721263 -3.10668945 30.68823242 C-3.11752008 26.66823564 -3.12352721 22.64825845 -3.12612724 18.62824821 C-3.12798118 17.09118275 -3.13160119 15.55411841 -3.13698006 14.01706123 C-3.14419284 11.87145763 -3.14524084 9.72593595 -3.14477539 7.58032227 C-3.146996 6.35676529 -3.14921661 5.13320831 -3.15150452 3.87257385 C-2.99010948 0.19550716 -2.99010948 0.19550716 0 0 Z " fill="#00AFEF" transform="translate(168.03125,398.8671875)"/>
<path d="M0 0 C10.01869905 10.26305756 9.96832721 23.96596811 9.92602539 37.3918457 C9.79441838 46.02702066 9.33991545 53.71532099 5.5625 61.625 C5.15773438 62.48480469 4.75296875 63.34460938 4.3359375 64.23046875 C2.27528012 67.4316504 0.47009997 69.20968684 -3.33935547 70.0390625 C-5.59253551 70.32472716 -7.79200239 70.45046887 -10.0625 70.5 C-10.80330811 70.52046387 -11.54411621 70.54092773 -12.30737305 70.56201172 C-15.43554086 70.46131887 -17.59428417 70.3091375 -20.07324219 68.29785156 C-23.4375 64.41273751 -23.4375 64.41273751 -23.4375 61.625 C-24.0975 61.295 -24.7575 60.965 -25.4375 60.625 C-32.03418315 46.48474138 -31.47197836 24.41167851 -26.4921875 9.86328125 C-25.4375 7.625 -25.4375 7.625 -23.4375 6.625 C-23.19 6.026875 -22.9425 5.42875 -22.6875 4.8125 C-18.02018368 -3.35530355 -7.89416041 -3.15766416 0 0 Z M-11.4375 7.625 C-19.40739047 15.8364023 -18.72029982 27.58552858 -18.59375 38.30859375 C-18.39454893 45.83673404 -18.00191671 53.3818435 -13.4375 59.625 C-10.3417893 60.51707179 -10.3417893 60.51707179 -7.4375 60.625 C-1.859025 55.046525 -1.34999596 47.77602112 -1.2421875 40.1953125 C-1.25522779 38.38010386 -1.27869738 36.56494072 -1.3125 34.75 C-1.32152344 33.82703125 -1.33054687 32.9040625 -1.33984375 31.953125 C-1.35710752 30.25141056 -1.37852258 28.54972853 -1.40576172 26.84814453 C-1.43537358 24.77394741 -1.4375 22.69940849 -1.4375 20.625 C-2.0975 19.635 -2.7575 18.645 -3.4375 17.625 C-3.1075 16.965 -2.7775 16.305 -2.4375 15.625 C-3.37196535 13.59355359 -4.36974776 11.58966413 -5.4375 9.625 C-6.4275 9.625 -7.4175 9.625 -8.4375 9.625 C-8.4375 8.965 -8.4375 8.305 -8.4375 7.625 C-9.4275 7.625 -10.4175 7.625 -11.4375 7.625 Z " fill="#00AFEF" transform="translate(536.4375,400.375)"/>
<path d="M0 0 C5.60070173 2.6003258 8.68299219 6.43031912 10.81787109 12.21679688 C13.19611361 20.15737519 13.4830462 27.68535728 13.4375 35.9375 C13.4674707 37.85852539 13.4674707 37.85852539 13.49804688 39.81835938 C13.49252652 50.65482468 12.0129003 60.65206729 4.3671875 68.79296875 C0.2936404 72.3893289 -5.96904943 71.67565733 -11.125 71.515625 C-15.02104251 70.99719999 -16.33563848 70.8053023 -18.75 67.8125 C-19.96484375 65.58203125 -19.96484375 65.58203125 -21 63 C-21.39316406 62.05511719 -21.78632812 61.11023438 -22.19140625 60.13671875 C-27.82676945 44.36948303 -28.0231686 25.06729735 -21.3984375 9.75 C-16.72513193 0.56003597 -9.75005346 -1.03311825 0 0 Z M-12 14 C-16.797975 26.23483626 -16.86802022 45.00018737 -12.15234375 57.19140625 C-10.53612535 59.9069149 -9.26153931 60.91678295 -6.25 61.875 C-5.5075 61.91625 -4.765 61.9575 -4 62 C-4 61.34 -4 60.68 -4 60 C-3.34 60 -2.68 60 -2 60 C2.44444367 52.83154247 2.78371055 46.32244191 3 38 C3.03996094 37.09636719 3.07992187 36.19273437 3.12109375 35.26171875 C3.36438997 26.28838184 2.44564886 17.36764258 -3 10 C-7.20310543 7.28831908 -9.34761004 10.64961269 -12 14 Z " fill="#00AFEF" transform="translate(715,399)"/>
<path d="M0 0 C0.8146875 0.00257813 1.629375 0.00515625 2.46875 0.0078125 C3.2834375 0.00523437 4.098125 0.00265625 4.9375 0 C6.96875 0.1328125 6.96875 0.1328125 7.96875 1.1328125 C8.08157578 2.93220943 8.12555645 4.73596576 8.14233398 6.53881836 C8.15582382 7.69349106 8.16931366 8.84816376 8.18321228 10.03782654 C8.19365067 11.29507034 8.20408905 12.55231415 8.21484375 13.84765625 C8.23934298 15.80483316 8.26385342 17.76201002 8.28904057 19.7191782 C8.3499701 24.56489307 8.40054183 29.41070508 8.44555664 34.2565918 C8.47116129 36.97108459 8.50195759 39.685426 8.53834534 42.39979553 C8.57231552 44.96271771 8.59815994 47.52576222 8.61534119 50.08885193 C8.63198318 51.24667679 8.64862518 52.40450165 8.66577148 53.59741211 C8.67607895 54.62031845 8.68638641 55.64322479 8.69700623 56.6971283 C8.73219013 59.31248115 8.73219013 59.31248115 10.96875 61.1328125 C14.56554066 60.80954697 14.56554066 60.80954697 17.96875 60.1328125 C17.97905746 59.39587662 17.98936493 58.65894073 17.99998474 57.89967346 C18.09779643 50.96860174 18.20028716 44.03761348 18.30808926 37.10669041 C18.36335027 33.54308282 18.41677518 29.97946707 18.46606445 26.41577148 C18.52275532 22.32266005 18.58732318 18.2297064 18.65234375 14.13671875 C18.67741249 12.20863121 18.67741249 12.20863121 18.70298767 10.24159241 C18.72293289 9.06044357 18.74287811 7.87929474 18.76342773 6.66235352 C18.77897202 5.61644547 18.7945163 4.57053741 18.81053162 3.49293518 C18.96875 1.1328125 18.96875 1.1328125 19.96875 0.1328125 C21.46613124 0.0349068 22.96817892 0.00306386 24.46875 0.0078125 C25.2834375 0.00523437 26.098125 0.00265625 26.9375 0 C28.96875 0.1328125 28.96875 0.1328125 29.96875 1.1328125 C30.07805645 2.83392677 30.11782764 4.53956081 30.12988281 6.24414062 C30.13949036 7.33617798 30.1490979 8.42821533 30.15899658 9.55334473 C30.16324646 10.74488159 30.16749634 11.93641846 30.171875 13.1640625 C30.17757507 14.38428101 30.18327515 15.60449951 30.18914795 16.86169434 C30.19861981 19.45433683 30.20514055 22.04699149 30.20898438 24.63964844 C30.21864067 28.58810886 30.24962377 32.536038 30.28125 36.484375 C30.2877847 39.00260107 30.29303334 41.52083088 30.296875 44.0390625 C30.3092218 45.21440552 30.3215686 46.38974854 30.33428955 47.60070801 C30.31368941 55.26976593 29.91145263 62.45443422 24.96875 68.6328125 C21.17983747 71.47449689 17.68391101 71.29605161 13.09375 71.3203125 C11.87945312 71.33449219 10.66515625 71.34867187 9.4140625 71.36328125 C5.94758788 71.13139689 3.99445653 70.79110318 0.96875 69.1328125 C-4.04615672 60.92199726 -4.70433029 52.2361749 -4.3359375 42.8671875 C-4.30903839 41.66717102 -4.28213928 40.46715454 -4.25442505 39.23077393 C-4.16306562 35.44699395 -4.03467293 31.66549545 -3.90625 27.8828125 C-3.84143328 25.30083837 -3.77891259 22.71880552 -3.71875 20.13671875 C-3.59772542 15.45365364 -3.47543092 10.77079281 -3.31591797 6.08886719 C-3.28529266 5.15322937 -3.25466736 4.21759155 -3.22311401 3.25360107 C-2.9698012 0.45358189 -2.80874869 0.18364895 0 0 Z " fill="#00AFEF" transform="translate(437.03125,398.8671875)"/>
<path d="M0 0 C2.84050493 1.03822253 4.57294993 2.15081899 7 4 C7 7.63 7 11.26 7 15 C6.01 15.33 5.02 15.66 4 16 C3.46375 15.38125 2.9275 14.7625 2.375 14.125 C-0.41733507 11.62659493 -2.32985942 10.73402812 -6 10 C-9.20301296 10.26198265 -9.20301296 10.26198265 -12 12 C-18.66827656 20.89103541 -18.76765693 32.28823326 -18 43 C-16.52951417 52.50407497 -16.52951417 52.50407497 -11 60 C-8.69 60.66 -6.38 61.32 -4 62 C-4 55.4 -4 48.8 -4 42 C-5.65 42 -7.3 42 -9 42 C-10 41 -10 41 -10.1328125 39.1875 C-10.13023437 38.465625 -10.12765625 37.74375 -10.125 37 C-10.12886719 35.9171875 -10.12886719 35.9171875 -10.1328125 34.8125 C-10 33 -10 33 -9 32 C-6.30345146 31.92680379 -3.63308542 31.90757463 -0.9375 31.9375 C-0.17888672 31.94201172 0.57972656 31.94652344 1.36132812 31.95117188 C3.24091871 31.9629932 5.12046899 31.98092922 7 32 C7.12355727 37.07193078 7.21431615 42.14298696 7.2746582 47.21606445 C7.29981005 48.94180559 7.33393619 50.66744012 7.37719727 52.39282227 C7.43782433 54.87282581 7.46620101 57.35142222 7.48828125 59.83203125 C7.51408768 60.60400345 7.5398941 61.37597565 7.56648254 62.17134094 C7.56762695 64.35473633 7.56762695 64.35473633 7 68 C2.98847327 71.48927055 -1.02533481 71.39862412 -6.125 71.25 C-7.19814453 71.24226563 -7.19814453 71.24226563 -8.29296875 71.234375 C-11.44201834 71.18728641 -13.99512429 71.00162524 -17 70 C-17 69.34 -17 68.68 -17 68 C-17.639375 67.896875 -18.27875 67.79375 -18.9375 67.6875 C-19.618125 67.460625 -20.29875 67.23375 -21 67 C-21.33 66.01 -21.66 65.02 -22 64 C-22.495 63.54625 -22.99 63.0925 -23.5 62.625 C-25.43309736 60.53081119 -25.62452796 58.77849308 -26 56 C-26.99 55.67 -27.98 55.34 -29 55 C-28.01 54.505 -28.01 54.505 -27 54 C-27.2165625 53.46375 -27.433125 52.9275 -27.65625 52.375 C-31.58088589 41.32787676 -30.66130248 29.59302791 -28.4375 18.2578125 C-27.93658895 16.05605526 -27.93658895 16.05605526 -28 14 C-27.34 14 -26.68 14 -26 14 C-25.773125 13.29875 -25.54625 12.5975 -25.3125 11.875 C-20.03772976 0.32074138 -11.69973833 -1.27462746 0 0 Z " fill="#00AFEF" transform="translate(301,399)"/>
<path d="M0 0 C1.28648437 -0.02835937 2.57296875 -0.05671875 3.8984375 -0.0859375 C8.27324402 0.45518113 10.3983438 1.37599132 13.625 4.375 C14.2109375 7.390625 14.2109375 7.390625 14 10.625 C13.94585937 11.70265625 13.89171875 12.7803125 13.8359375 13.890625 C13.76632813 14.71046875 13.69671875 15.5303125 13.625 16.375 C12.90054688 15.93027344 12.17609375 15.48554688 11.4296875 15.02734375 C10.46289062 14.46144531 9.49609375 13.89554687 8.5 13.3125 C7.54867187 12.74402344 6.59734375 12.17554688 5.6171875 11.58984375 C2.07370197 10.15117012 0.26675349 10.35284352 -3.375 11.375 C-7.94365161 14.50778967 -9.23400284 19.1812402 -10.375 24.375 C-11.91661174 34.74928881 -12.56608494 47.09766721 -7.4375 56.625 C-5.49114035 59.53794318 -5.49114035 59.53794318 -2.375 61.375 C-0.725 61.375 0.925 61.375 2.625 61.375 C2.625 55.435 2.625 49.495 2.625 43.375 C0.645 42.715 -1.335 42.055 -3.375 41.375 C-3.045 38.405 -2.715 35.435 -2.375 32.375 C2.905 32.375 8.185 32.375 13.625 32.375 C13.73978354 37.44843251 13.83930878 42.5173679 13.8996582 47.59106445 C13.92481005 49.31680559 13.95893619 51.04244012 14.00219727 52.76782227 C14.06282433 55.24782581 14.09120101 57.72642222 14.11328125 60.20703125 C14.13908768 60.97900345 14.1648941 61.75097565 14.19148254 62.54634094 C14.19262695 64.72973633 14.19262695 64.72973633 13.625 68.375 C8.68346926 72.64256625 2.61131594 71.92233138 -3.546875 71.69921875 C-8.74718993 71.25878391 -10.58160986 71.00346013 -14.375 67.375 C-16.71202548 63.5054988 -18.61016879 59.53300789 -20.375 55.375 C-20.72175781 54.59511719 -21.06851563 53.81523437 -21.42578125 53.01171875 C-22.40915047 50.28013758 -22.6986678 48.10572801 -22.82421875 45.21484375 C-22.86740234 44.25642578 -22.91058594 43.29800781 -22.95507812 42.31054688 C-22.99052734 41.32119141 -23.02597656 40.33183594 -23.0625 39.3125 C-23.10955078 38.31927734 -23.15660156 37.32605469 -23.20507812 36.30273438 C-23.50915935 28.90010123 -23.50915935 28.90010123 -22.81567383 26.18579102 C-22.14796951 24.29070575 -22.14796951 24.29070575 -23.375 22.375 C-22.715 22.375 -22.055 22.375 -21.375 22.375 C-21.705 21.055 -22.035 19.735 -22.375 18.375 C-21.715 18.375 -21.055 18.375 -20.375 18.375 C-20.271875 17.488125 -20.16875 16.60125 -20.0625 15.6875 C-19.34694018 12.23980269 -18.47848928 10.17965237 -16.375 7.375 C-15.05752676 6.67751417 -13.72585807 6.00540043 -12.375 5.375 C-12.045 4.385 -11.715 3.395 -11.375 2.375 C-7.87733975 -0.16720184 -4.20195261 0.04193565 0 0 Z " fill="#00AFEF" transform="translate(142.375,398.625)"/>
<path d="M0 0 C2.67553711 0.06860352 2.67553711 0.06860352 5.35107422 0.13720703 C6.47280029 0.16596924 6.47280029 0.16596924 7.6171875 0.1953125 C9.75445593 7.61046821 11.46390931 15.01091847 12.84375 22.6015625 C13.03689789 23.64751587 13.23004578 24.69346924 13.42904663 25.77111816 C13.83296062 27.9656363 14.23451379 30.16059018 14.63378906 32.35595703 C15.2408358 35.68789334 15.85819648 39.01780431 16.4765625 42.34765625 C16.87041275 44.49467783 17.26366207 46.64180975 17.65625 48.7890625 C17.83854156 49.76959595 18.02083313 50.75012939 18.20864868 51.76037598 C19.37442051 58.22223621 20.12802766 64.64780495 20.6171875 71.1953125 C18.1796875 71.0078125 18.1796875 71.0078125 15.7421875 70.8203125 C14.83726562 70.75070312 13.93234375 70.68109375 13 70.609375 C10.6171875 70.1953125 10.6171875 70.1953125 8.6171875 68.1953125 C7.7780252 63.46548861 7.44231823 60.89478959 8.6171875 56.1953125 C3.1721875 56.6903125 3.1721875 56.6903125 -2.3828125 57.1953125 C-3.3728125 61.4853125 -4.3628125 65.7753125 -5.3828125 70.1953125 C-8.6828125 70.1953125 -11.9828125 70.1953125 -15.3828125 70.1953125 C-15.7128125 68.8753125 -16.0428125 67.5553125 -16.3828125 66.1953125 C-15.7228125 66.1953125 -15.0628125 66.1953125 -14.3828125 66.1953125 C-14.57351318 65.65406738 -14.76421387 65.11282227 -14.96069336 64.55517578 C-15.50507889 61.51178042 -14.90867118 59.42908232 -14.13671875 56.4375 C-12.42162413 49.45426655 -11.02081063 42.43336942 -9.70288086 35.36669922 C-9.3217771 33.32814676 -8.93358666 31.29102894 -8.54492188 29.25390625 C-7.03168601 21.22491014 -5.81460292 13.22682956 -4.91235352 5.10498047 C-4.26754044 1.56192732 -3.70499808 0.30368837 0 0 Z M1.6171875 26.1953125 C0.6271875 32.7953125 -0.3628125 39.3953125 -1.3828125 46.1953125 C0.9271875 46.1953125 3.2371875 46.1953125 5.6171875 46.1953125 C5.86058149 39.74537173 5.39322005 33.43335277 3.6171875 27.1953125 C2.9571875 26.8653125 2.2971875 26.5353125 1.6171875 26.1953125 Z " fill="#00AFEF" transform="translate(613.3828125,398.8046875)"/>
<path d="M0 0 C3.00798865 -0.40721868 5.97321367 -0.12971941 9 0 C11.68634459 7.38264442 13.26701943 14.74533969 14.69921875 22.4609375 C14.9391304 23.72845856 15.17904205 24.99597961 15.42622375 26.3019104 C15.93001244 28.96537703 16.4296772 31.62957057 16.92602539 34.29443359 C17.56203448 37.70852875 18.20603035 41.12105579 18.85277081 44.53313255 C19.47143675 47.80013801 20.08530211 51.06803608 20.69921875 54.3359375 C20.93041916 55.56089935 21.16161957 56.78586121 21.39982605 58.04794312 C21.61037125 59.17987091 21.82091644 60.31179871 22.0378418 61.47802734 C22.3173896 62.97286148 22.3173896 62.97286148 22.60258484 64.49789429 C23 67 23 67 23 70 C17.06 70.495 17.06 70.495 11 71 C10.67 66.05 10.34 61.1 10 56 C6.37 56 2.74 56 -1 56 C-1.144375 57.381875 -1.28875 58.76375 -1.4375 60.1875 C-1.78812136 63.54344726 -2.33320544 66.6660272 -3 70 C-6.63 70 -10.26 70 -14 70 C-13.06577989 61.33923 -11.88830109 53.06651458 -9.59765625 44.640625 C-8.77119084 40.98905232 -8.78501855 37.72634521 -9 34 C-8.34 34 -7.68 34 -7 34 C-6.89042969 33.1028125 -6.78085937 32.205625 -6.66796875 31.28125 C-5.77323278 24.23975067 -4.76585638 17.2351452 -3.5 10.25 C-3.38164795 9.57130859 -3.2632959 8.89261719 -3.14135742 8.19335938 C-2.51978736 4.8659579 -1.90923007 2.8638451 0 0 Z M4 23 C3.49490361 26.08252089 2.99682001 29.16613525 2.5 32.25 C2.35691406 33.12269531 2.21382813 33.99539063 2.06640625 34.89453125 C1.93105469 35.73886719 1.79570312 36.58320313 1.65625 37.453125 C1.53056641 38.22817383 1.40488281 39.00322266 1.27539062 39.80175781 C0.91712934 42.29225843 0.91712934 42.29225843 1 46 C3.31 46 5.62 46 8 46 C8.10059672 42.47911465 7.70362084 39.43992412 7 36 C6.63554392 33.73079533 6.28179559 31.4598509 5.9375 29.1875 C5.76089844 28.02605469 5.58429688 26.86460937 5.40234375 25.66796875 C5.26957031 24.78753906 5.13679688 23.90710938 5 23 C4.67 23 4.34 23 4 23 Z " fill="#00AFEF" transform="translate(406,399)"/>
<path d="M0 0 C8.25 0 16.5 0 25 0 C25 3.63 25 7.26 25 11 C20.05 11 15.1 11 10 11 C10 16.94 10 22.88 10 29 C13.4340625 28.9690625 13.4340625 28.9690625 16.9375 28.9375 C19.29166332 28.91629132 21.64686445 28.92728259 24 29 C25 30 25 30 25.1328125 31.8125 C25.13023438 32.534375 25.12765625 33.25625 25.125 34 C25.12886719 35.0828125 25.12886719 35.0828125 25.1328125 36.1875 C25 38 25 38 24 39 C19.33154772 39.14426614 14.67134047 39.04208415 10 39 C10 46.26 10 53.52 10 61 C15.28 61 20.56 61 26 61 C26 63.97 26 66.94 26 70 C17.42 70 8.84 70 0 70 C0 46.9 0 23.8 0 0 Z " fill="#00AFEF" transform="translate(65,399)"/>
<path d="M0 0 C0.66209473 -0.00095673 1.32418945 -0.00191345 2.00634766 -0.00289917 C3.40852961 -0.00358076 4.8107147 -0.00172792 6.21289062 0.00244141 C8.36595713 0.00779004 10.51881502 0.0024958 12.671875 -0.00390625 C14.03125046 -0.00324546 15.3906258 -0.00196429 16.75 0 C18.61785156 0.00169189 18.61785156 0.00169189 20.5234375 0.00341797 C23.375 0.1328125 23.375 0.1328125 24.375 1.1328125 C24.51810287 4.8019702 24.41721662 8.45996691 24.375 12.1328125 C18.93 11.6378125 18.93 11.6378125 13.375 11.1328125 C13.375 30.9328125 13.375 50.7328125 13.375 71.1328125 C9.745 70.8028125 6.115 70.4728125 2.375 70.1328125 C1.61559258 66.3357754 1.25244871 63.48180117 1.26147461 59.69995117 C1.26155014 58.63922897 1.26162567 57.57850677 1.26170349 56.48564148 C1.26686478 55.3521376 1.27202606 54.21863373 1.27734375 53.05078125 C1.2787587 51.88146561 1.28017365 50.71214996 1.28163147 49.50740051 C1.28722207 45.77834499 1.29977291 42.04934983 1.3125 38.3203125 C1.31751621 35.78971441 1.32207891 33.25911538 1.32617188 30.72851562 C1.33718844 24.52992471 1.35444668 18.33137884 1.375 12.1328125 C-1.925 11.8028125 -5.225 11.4728125 -8.625 11.1328125 C-7.63916138 0.00691953 -7.63916138 0.00691953 0 0 Z " fill="#00AFEF" transform="translate(639.625,398.8671875)"/>
<path d="M0 0 C10.23 0 20.46 0 31 0 C31 3.63 31 7.26 31 11 C27.7 11 24.4 11 21 11 C21 30.47 21 49.94 21 70 C15.06 70.495 15.06 70.495 9 71 C9 51.53 9 32.06 9 12 C6.03 11.67 3.06 11.34 0 11 C0 7.37 0 3.74 0 0 Z " fill="#00AFEF" transform="translate(473,399)"/>
<path d="M0 0 C1.47906892 -0.02689216 2.95827483 -0.04634621 4.4375 -0.0625 C5.26121094 -0.07410156 6.08492187 -0.08570313 6.93359375 -0.09765625 C9 0 9 0 10 1 C10.09425595 3.14743549 10.11742648 5.29801026 10.11352539 7.44750977 C10.11367142 8.12065216 10.11381744 8.79379456 10.1139679 9.48733521 C10.11326878 11.72205784 10.10547652 13.9566981 10.09765625 16.19140625 C10.09579206 17.73697362 10.09436816 19.28254157 10.09336853 20.82810974 C10.0895434 24.90357077 10.07971317 28.97899637 10.06866455 33.05444336 C10.05845032 37.21011882 10.05387089 41.36579999 10.04882812 45.52148438 C10.03809089 53.68100587 10.02101454 61.84049853 10 70 C6.37 70 2.74 70 -1 70 C-1.79644062 66.0177969 -2.13089814 62.89291202 -2.14526367 58.89624023 C-2.15164352 57.68826279 -2.15802338 56.48028534 -2.16459656 55.23570251 C-2.16570938 53.93975662 -2.1668222 52.64381073 -2.16796875 51.30859375 C-2.17118455 49.95768702 -2.17454887 48.60678064 -2.17805481 47.25587463 C-2.18402873 44.4307474 -2.18589637 41.60565068 -2.18530273 38.78051758 C-2.1852009 35.1634984 -2.19888226 31.54667461 -2.21607494 27.92970181 C-2.22719755 25.14243166 -2.22922191 22.35520884 -2.22869301 19.56791878 C-2.2304436 17.58704805 -2.24127718 15.6061921 -2.25224304 13.62535095 C-2.24916641 12.42052567 -2.24608978 11.21570038 -2.24291992 9.97436523 C-2.24434494 8.91467026 -2.24576996 7.85497528 -2.24723816 6.76316833 C-1.9998686 3.99853144 -1.42492586 2.35351981 0 0 Z " fill="#00AFEF" transform="translate(210,399)"/>
<path d="M0 0 C2.97 0 5.94 0 9 0 C10 1 10 1 10.12025452 3.73976135 C10.1169236 5.57509682 10.1169236 5.57509682 10.11352539 7.44750977 C10.11367142 8.12065216 10.11381744 8.79379456 10.1139679 9.48733521 C10.11326878 11.72205784 10.10547652 13.9566981 10.09765625 16.19140625 C10.09579206 17.73697362 10.09436816 19.28254157 10.09336853 20.82810974 C10.0895434 24.90357077 10.07971317 28.97899637 10.06866455 33.05444336 C10.05845032 37.21011882 10.05387089 41.36579999 10.04882812 45.52148438 C10.03809089 53.68100587 10.02101454 61.84049853 10 70 C6.7 70 3.4 70 0 70 C0 46.9 0 23.8 0 0 Z " fill="#00AFEF" transform="translate(671,399)"/>
<path d="M0 0 C0.721875 0.00257813 1.44375 0.00515625 2.1875 0.0078125 C2.909375 0.00523437 3.63125 0.00265625 4.375 0 C6.1875 0.1328125 6.1875 0.1328125 7.1875 1.1328125 C7.28175595 3.28024799 7.30492648 5.43082276 7.30102539 7.58032227 C7.30117142 8.25346466 7.30131744 8.92660706 7.3014679 9.62014771 C7.30076878 11.85487034 7.29297652 14.0895106 7.28515625 16.32421875 C7.28329206 17.86978612 7.28186816 19.41535407 7.28086853 20.96092224 C7.2770434 25.03638327 7.26721317 29.11180887 7.25616455 33.18725586 C7.24595032 37.34293132 7.24137089 41.49861249 7.23632812 45.65429688 C7.22559089 53.81381837 7.20851454 61.97331103 7.1875 70.1328125 C3.8875 70.1328125 0.5875 70.1328125 -2.8125 70.1328125 C-2.83562566 61.15360473 -2.85341623 52.17440713 -2.86431217 43.19517612 C-2.86954051 39.02618422 -2.87663726 34.85721263 -2.88793945 30.68823242 C-2.89877008 26.66823564 -2.90477721 22.64825845 -2.90737724 18.62824821 C-2.90923118 17.09118275 -2.91285119 15.55411841 -2.91823006 14.01706123 C-2.92544284 11.87145763 -2.92649084 9.72593595 -2.92602539 7.58032227 C-2.928246 6.35676529 -2.93046661 5.13320831 -2.93275452 3.87257385 C-2.77169267 0.20309817 -2.77169267 0.20309817 0 0 Z " fill="#00AFEF" transform="translate(103.8125,398.8671875)"/>
<path d="" fill="#00AFEF" transform="translate(0,0)"/>
<path d="" fill="#00AFEF" transform="translate(0,0)"/>
<path d="" fill="#00AFEF" transform="translate(0,0)"/>
<path d="" fill="#00AFEF" transform="translate(0,0)"/>
<path d="" fill="#00AFEF" transform="translate(0,0)"/>
<path d="" fill="#00AFEF" transform="translate(0,0)"/>
</svg>
