<?xml version="1.0" encoding="UTF-8"?>
<svg version="1.1" xmlns="http://www.w3.org/2000/svg" width="150" height="150">
<path d="M0 0 C0.69513702 -0.00440094 1.39027405 -0.00880188 2.10647583 -0.01333618 C13.82968544 -0.04425082 23.26535946 1.91831819 33.6875 7.25 C34.72209351 7.77605835 34.72209351 7.77605835 35.77758789 8.31274414 C41.23767567 11.16073107 46.05548826 14.348323 50.625 18.5 C51.37007813 19.15355469 52.11515625 19.80710937 52.8828125 20.48046875 C64.15686427 30.97106946 73.90680093 47.31712085 74.83007812 62.97875977 C74.9128826 66.39719059 74.95122375 69.80711875 74.94067383 73.22607422 C74.93751702 75.36347665 74.96101945 77.49948693 74.98632812 79.63671875 C75.0218281 87.34043647 74.51062113 94.25962008 71.625 101.5 C71.32464844 102.2643335 71.02429688 103.02866699 70.71484375 103.81616211 C63.00430452 122.7181904 50.18944277 136.21427317 31.96484375 145.1484375 C30.86269531 145.59445313 29.76054688 146.04046875 28.625 146.5 C27.81603271 146.8405542 27.00706543 147.1811084 26.17358398 147.53198242 C18.12163242 150.61064963 10.5220198 151.15099368 2.01733398 151.07641602 C-0.17554736 151.06257544 -2.36411827 151.09671379 -4.55664062 151.13476562 C-22.14970835 151.23004742 -39.50319771 144.83150442 -52.375 132.5 C-52.375 131.84 -52.375 131.18 -52.375 130.5 C-53.365 130.17 -54.355 129.84 -55.375 129.5 C-55.375 128.84 -55.375 128.18 -55.375 127.5 C-56.86 127.005 -56.86 127.005 -58.375 126.5 C-70.13785722 112.45178767 -75.75527971 96.49842633 -75.80053711 78.26953125 C-75.81232762 76.03270355 -75.86148781 73.79873853 -75.91210938 71.5625 C-76.11166332 53.88431816 -69.74543296 36.52150838 -57.375 23.5 C-56.715 23.5 -56.055 23.5 -55.375 23.5 C-55.045 22.51 -54.715 21.52 -54.375 20.5 C-52.40899384 18.77389341 -50.46344636 17.18863784 -48.375 15.625 C-47.78050049 15.17809814 -47.18600098 14.73119629 -46.57348633 14.27075195 C-42.01871004 10.89458336 -37.58387608 7.79321588 -32.375 5.5 C-31.39015625 5.0359375 -30.4053125 4.571875 -29.390625 4.09375 C-19.74438891 0.30265285 -10.24010652 0.01583469 0 0 Z " fill="#B6B7B9" transform="translate(75.375,-0.5)"/>
<path d="M0 0 C-1.32 0.33 -2.64 0.66 -4 1 C-4.2877602 4.05025811 -4.45941809 6.96243566 -4 10 C-1.6273026 12.00864359 -1.6273026 12.00864359 1 13 C1 13.66 1 14.32 1 15 C-1.31 14.67 -3.62 14.34 -6 14 C-6 14.99 -6 15.98 -6 17 C-3.36 17.66 -0.72 18.32 2 19 C2 19.33 2 19.66 2 20 C-6.58 20 -15.16 20 -24 20 C-24 19.34 -24 18.68 -24 18 C-25.98 18 -27.96 18 -30 18 C-28.68 16.68 -27.36 15.36 -26 14 C-27.65 14.33 -29.3 14.66 -31 15 C-31 14.34 -31 13.68 -31 13 C-29.68 12.67 -28.36 12.34 -27 12 C-27 11.34 -27 10.68 -27 10 C-29.31 10.66 -31.62 11.32 -34 12 C-33.67 13.051875 -33.34 14.10375 -33 15.1875 C-32.16033218 18.38873357 -31.80249096 20.7411008 -32 24 C-33.65 24.33 -35.3 24.66 -37 25 C-37.495 23.02 -37.495 23.02 -38 21 C-39.98 20.67 -41.96 20.34 -44 20 C-43.01 19.67 -42.02 19.34 -41 19 C-41 18.01 -41 17.02 -41 16 C-42.65 16.66 -44.3 17.32 -46 18 C-46 19.32 -46 20.64 -46 22 C-44.02 22.33 -42.04 22.66 -40 23 C-40.99 23.66 -41.98 24.32 -43 25 C-43.495 26.485 -43.495 26.485 -44 28 C-43.01 28.33 -42.02 28.66 -41 29 C-41.99 29.33 -42.98 29.66 -44 30 C-44 30.66 -44 31.32 -44 32 C-44.66 32 -45.32 32 -46 32 C-46 31.01 -46 30.02 -46 29 C-47.32 29 -48.64 29 -50 29 C-50.495 27.515 -50.495 27.515 -51 26 C-52.65 26 -54.3 26 -56 26 C-56.66 27.32 -57.32 28.64 -58 30 C-55.20579508 33.91603304 -55.20579508 33.91603304 -51 36 C-51 35.01 -51 34.02 -51 33 C-49.68 33 -48.36 33 -47 33 C-47.56194161 37.14062238 -49.8269522 39.59228139 -52.4375 42.75 C-53.24058594 43.73484375 -54.04367188 44.7196875 -54.87109375 45.734375 C-55.57363281 46.48203125 -56.27617188 47.2296875 -57 48 C-57.66 48 -58.32 48 -59 48 C-59.99 50.475 -59.99 50.475 -61 53 C-61.66 52.67 -62.32 52.34 -63 52 C-63 51.34 -63 50.68 -63 50 C-63.9075 49.855625 -64.815 49.71125 -65.75 49.5625 C-68.21476956 49.13590527 -70.58847107 48.64925779 -73 48 C-72.10664203 50.35785318 -72.10664203 50.35785318 -68.9375 51.125 C-67.968125 51.41375 -66.99875 51.7025 -66 52 C-66.33 53.65 -66.66 55.3 -67 57 C-65.68 57 -64.36 57 -63 57 C-63.01571045 57.66418945 -63.0314209 58.32837891 -63.04760742 59.01269531 C-63.74146476 76.29878481 -63.74146476 76.29878481 -60 93 C-59.64808594 93.93585938 -59.29617187 94.87171875 -58.93359375 95.8359375 C-53.42838882 109.0993025 -44.1550661 118.61966073 -31.20703125 124.7109375 C-16.53096081 130.60996703 -1.96365882 130.6219346 12.5859375 124.48828125 C26.45263312 118.08741603 36.23516295 108.32716868 42 94 C45.91006516 80.90379336 46.45772863 63.25650535 40 51 C37.86200764 47.49289884 35.54553038 44.22098909 33 41 C32.3709375 40.16339844 31.741875 39.32679687 31.09375 38.46484375 C25.06384008 31.36619979 17.13765551 27.2323183 8.43359375 24.30078125 C6 23 6 23 4.6484375 20.55078125 C4 18 4 18 4.1875 14.875 C4.125625 13.92625 4.06375 12.9775 4 12 C1.57327433 10.21030974 1.57327433 10.21030974 -1 9 C-1 8.34 -1 7.68 -1 7 C0.98 7 2.96 7 5 7 C4.505 5.02 4.505 5.02 4 3 C5.79323253 3.28187936 7.58457126 3.5758281 9.375 3.875 C10.87160156 4.11863281 10.87160156 4.11863281 12.3984375 4.3671875 C15 5 15 5 17 7 C16.625 9.125 16.625 9.125 16 11 C16.99 11.495 16.99 11.495 18 12 C17.32829194 15.8063457 16.27253436 19.35206816 15 23 C15.99 23 16.98 23 18 23 C18.28875 22.071875 18.5775 21.14375 18.875 20.1875 C20 17 20 17 22 14 C23.65 14.33 25.3 14.66 27 15 C27.66 14.01 28.32 13.02 29 12 C31.31 13.65 33.62 15.3 36 17 C34.70224452 21.41236864 32.5573658 23.58733243 29.14453125 26.47265625 C27.76236965 27.95790908 27.76236965 27.95790908 28.20703125 30.046875 C29.28813243 32.70968579 30.82788773 34.147316 33 36 C34.485 36.495 34.485 36.495 36 37 C35.525625 36.2575 35.05125 35.515 34.5625 34.75 C33.22130673 32.38949985 32.487688 30.63351523 32 28 C34.49361571 29.20381448 36.68143083 30.45428722 39 32 C38.505 31.236875 38.01 30.47375 37.5 29.6875 C36 27 36 27 36 24 C36.66 24 37.32 24 38 24 C38.45375 24.474375 38.9075 24.94875 39.375 25.4375 C41.22977487 27.22093737 42.50135592 27.5691993 45 28 C45.33 27.34 45.66 26.68 46 26 C47.17260611 27.28627711 48.3379283 28.57919783 49.5 29.875 C50.1496875 30.59429688 50.799375 31.31359375 51.46875 32.0546875 C53 34 53 34 53 36 C51.04414675 37.00484204 49.08523763 38.00373805 47.125 39 C46.03445312 39.556875 44.94390625 40.11375 43.8203125 40.6875 C41 42 41 42 39 42 C39.33 42.66 39.66 43.32 40 44 C43.465 43.505 43.465 43.505 47 43 C46.34 44.65 45.68 46.3 45 48 C46.98 48 48.96 48 51 48 C50 50 50 50 46.9375 51.125 C45.968125 51.41375 44.99875 51.7025 44 52 C44.33 52.66 44.66 53.32 45 54 C48.18294396 53.28031337 51.14974313 52.25157765 54.1875 51.0625 C55.06792969 50.72347656 55.94835937 50.38445313 56.85546875 50.03515625 C59.15813283 49.19297809 59.15813283 49.19297809 60 47 C60.66 47 61.32 47 62 47 C64.92978428 55.78935283 66.2154683 63.0564386 66.24023438 72.34887695 C66.24985888 74.53051074 66.28085312 76.71116862 66.3125 78.89257812 C66.37160209 86.68245717 65.94090917 93.68018937 63 101 C62.69956787 101.76393066 62.39913574 102.52786133 62.08959961 103.31494141 C54.38544074 122.21802152 41.56179342 135.71557195 23.33984375 144.6484375 C22.23769531 145.09445313 21.13554688 145.54046875 20 146 C19.19103271 146.3405542 18.38206543 146.6811084 17.54858398 147.03198242 C9.49663242 150.11064963 1.8970198 150.65099368 -6.60766602 150.57641602 C-8.80054736 150.56257544 -10.98911827 150.59671379 -13.18164062 150.63476562 C-30.77470835 150.73004742 -48.12819771 144.33150442 -61 132 C-61 131.34 -61 130.68 -61 130 C-61.99 129.67 -62.98 129.34 -64 129 C-64 128.34 -64 127.68 -64 127 C-65.485 126.505 -65.485 126.505 -67 126 C-78.76285722 111.95178767 -84.38027971 95.99842633 -84.42553711 77.76953125 C-84.43732762 75.53270355 -84.48648781 73.29873853 -84.53710938 71.0625 C-84.73666332 53.38431816 -78.37043296 36.02150838 -66 23 C-65.34 23 -64.68 23 -64 23 C-63.67 22.01 -63.34 21.02 -63 20 C-61.03399384 18.27389341 -59.08844636 16.68863784 -57 15.125 C-56.40550049 14.67809814 -55.81100098 14.23119629 -55.19848633 13.77075195 C-37.66856526 0.77692631 -21.4014542 -0.83199433 0 0 Z " fill="#282E4C" transform="translate(84,0)"/>
<path d="M0 0 C5.61 0 11.22 0 17 0 C17.2475 2.10375 17.495 4.2075 17.75 6.375 C19.72665235 20.01939191 26.08269748 33.58729626 36.98046875 42.4140625 C49.00729825 50.70539684 58.57904003 54.18623299 73.125 54.3125 C74.21554688 54.34150391 75.30609375 54.37050781 76.4296875 54.40039062 C83.84181077 54.45802077 89.36056954 53.26307264 96 50 C97.0003125 49.55398437 98.000625 49.10796875 99.03125 48.6484375 C109.92110188 43.03120378 117.42717976 34.83019782 123 24 C123.38929687 23.30648437 123.77859375 22.61296875 124.1796875 21.8984375 C127.73237429 14.97458806 128.17439604 7.63683666 129 0 C134.61 0 140.22 0 146 0 C146 7.8844689 146 7.8844689 145.01171875 11.8125 C144.79966797 12.66070312 144.58761719 13.50890625 144.36914062 14.3828125 C144.14419922 15.24648437 143.91925781 16.11015625 143.6875 17 C143.47416016 17.86367187 143.26082031 18.72734375 143.04101562 19.6171875 C141.7589215 24.65371248 140.18502394 29.28393659 138 34 C137.34 34 136.68 34 136 34 C135.79375 34.66 135.5875 35.32 135.375 36 C128.39469914 51.22974733 113.40581425 61.78440378 98.3125 67.875 C81.32595654 73.88095644 62.13138842 74.28946879 45.3125 67.1875 C43.86655042 66.47523595 42.42932102 65.7450716 41 65 C40.12859375 64.57976562 39.2571875 64.15953125 38.359375 63.7265625 C31.34870892 60.18206373 25.34369846 55.79576839 20 50 C20 49.34 20 48.68 20 48 C18.515 47.505 18.515 47.505 17 47 C15.40724961 44.83820067 13.96922995 42.71500717 12.5625 40.4375 C12.16071533 39.79345215 11.75893066 39.1494043 11.3449707 38.48583984 C10.21843541 36.66398334 9.1076525 34.83337438 8 33 C7.55914063 32.29230469 7.11828125 31.58460937 6.6640625 30.85546875 C1.64153941 21.95555783 -0.721334 10.098676 0 0 Z " fill="#CBCCCE" transform="translate(2,76)"/>
<path d="M0 0 C3.24713262 2.11016832 6.13618888 4.39805488 9 7 C9.74507813 7.65355469 10.49015625 8.30710937 11.2578125 8.98046875 C17.60434414 14.88597022 21.80142886 21.47881861 26 29 C26.63615234 30.02673828 26.63615234 30.02673828 27.28515625 31.07421875 C28.31610022 33.85157055 28.1022259 35.25532682 27 38 C24.41796875 39.8359375 24.41796875 39.8359375 21.1875 41.375 C19.60001953 42.16003906 19.60001953 42.16003906 17.98046875 42.9609375 C14.9909469 44.00315613 13.86841002 44.18070146 11 43 C11 42.34 11 41.68 11 41 C12.98 40.01 14.96 39.02 17 38 C15.35 37.67 13.7 37.34 12 37 C12.66 35.35 13.32 33.7 14 32 C13.4225 32.350625 12.845 32.70125 12.25 33.0625 C9.64198224 34.14917407 8.60582371 33.93065133 6 33 C6 32.34 6 31.68 6 31 C7.7664657 29.9923048 9.53833823 28.99408286 11.3125 28 C12.29863281 27.443125 13.28476563 26.88625 14.30078125 26.3125 C17 25 17 25 20 25 C17.69 22.03 15.38 19.06 13 16 C11.35 16.33 9.7 16.66 8 17 C7.01 16.34 6.02 15.68 5 15 C5 14.34 5 13.68 5 13 C4.34 13 3.68 13 3 13 C3.495 13.763125 3.99 14.52625 4.5 15.3125 C6 18 6 18 6 21 C3.50638429 19.79618552 1.31856917 18.54571278 -1 17 C-0.525625 17.7425 -0.05125 18.485 0.4375 19.25 C1.77869327 21.61050015 2.512312 23.36648477 3 26 C-1.25219775 25.52753358 -3.37314725 23.22727623 -6 20 C-5.67654797 15.47167159 -2.39976734 12.99264582 0.6015625 9.90234375 C1.06304687 9.27457031 1.52453125 8.64679687 2 8 C0.75453595 4.26360784 -0.63404953 3.81243487 -4 2 C-4.66 2.99 -5.32 3.98 -6 5 C-7.65 4.67 -9.3 4.34 -11 4 C-12.32 6.64 -13.64 9.28 -15 12 C-15.99 12 -16.98 12 -18 12 C-17.44894091 8.0507432 -16.61064629 4.65079826 -15 1 C-15.99 0.67 -16.98 0.34 -18 0 C-17.67 -1.32 -17.34 -2.64 -17 -4 C-18.45706726 -4.50367757 -19.91570096 -5.00282556 -21.375 -5.5 C-22.18710938 -5.7784375 -22.99921875 -6.056875 -23.8359375 -6.34375 C-25.94209242 -7.09673305 -25.94209242 -7.09673305 -28 -7 C-27.505 -5.515 -27.505 -5.515 -27 -4 C-30.01031744 -3.06576355 -30.86650268 -2.95550089 -34 -4 C-33.1326468 -1.73262568 -33.1326468 -1.73262568 -30.4375 -0.875 C-29.633125 -0.25625 -28.82875 0.3625 -28 1 C-27.7494786 3.10086367 -27.87069466 4.96333513 -28.1171875 7.0625 C-28.16741987 9.06720667 -28.16741987 9.06720667 -26.84765625 10.62109375 C-24.53637288 12.34600502 -22.28516036 13.11155754 -19.5625 14.0625 C-11.57438736 17.27912443 -2.69051456 22.63021096 0.83984375 30.8203125 C1.22269531 31.86960938 1.60554688 32.91890625 2 34 C0.83082031 34.06058594 -0.33835937 34.12117188 -1.54296875 34.18359375 C-3.09115614 34.26804034 -4.63933268 34.35268625 -6.1875 34.4375 C-7.34088867 34.49647461 -7.34088867 34.49647461 -8.51757812 34.55664062 C-12.43251075 34.77507034 -16.17120688 35.08692108 -20 36 C-19.84144531 34.95199219 -19.68289062 33.90398438 -19.51953125 32.82421875 C-19.59290846 29.12352209 -19.59290846 29.12352209 -21.41943359 27.54931641 C-23.45715756 26.18021245 -25.52782154 24.97974136 -27.6875 23.8125 C-29.13050841 22.98847643 -30.57195169 22.16170524 -32.01171875 21.33203125 C-32.70313965 20.9448291 -33.39456055 20.55762695 -34.10693359 20.15869141 C-36 19 -36 19 -38.70703125 16.63671875 C-40.88553212 14.75077398 -40.88553212 14.75077398 -43.6171875 14.9765625 C-46.62281706 16.26750503 -47.47030053 17.58099925 -49.125 20.375 C-51.80423236 24.82107748 -51.80423236 24.82107748 -53.6796875 26.53515625 C-55.19001124 27.91811526 -55.19001124 27.91811526 -55.1875 29.97265625 C-55.125625 30.66230469 -55.06375 31.35195313 -55 32.0625 C-55 33.361875 -55 34.66125 -55 36 C-58.31218223 38.20812149 -59.17972176 38.08155843 -62.92578125 37.421875 C-64.38269423 37.12555372 -65.83832838 36.82290849 -67.29296875 36.515625 C-73.51852448 35.20914908 -79.65540436 34.45835482 -86 34 C-85.30593865 29.6187377 -84.23480711 28.03263167 -81 25 C-80.67 24.01 -80.34 23.02 -80 22 C-81.32 22 -82.64 22 -84 22 C-84 22.99 -84 23.98 -84 25 C-87.25543229 24.65120368 -88.01873107 23.97866739 -90.25 21.4375 C-90.8275 20.633125 -91.405 19.82875 -92 19 C-90.125 15.125 -90.125 15.125 -89 14 C-87.33382885 13.95936168 -85.66611905 13.957279 -84 14 C-83.67 15.32 -83.34 16.64 -83 18 C-81.68 18 -80.36 18 -79 18 C-79 18.99 -79 19.98 -79 21 C-78.34 21 -77.68 21 -77 21 C-77 20.34 -77 19.68 -77 19 C-76.34 18.67 -75.68 18.34 -75 18 C-75.66 17.67 -76.32 17.34 -77 17 C-76.67 15.68 -76.34 14.36 -76 13 C-77.32 12.34 -78.64 11.68 -80 11 C-79.67 9.35 -79.34 7.7 -79 6 C-77.35 5.67 -75.7 5.34 -74 5 C-74 5.99 -74 6.98 -74 8 C-72.68 8.66 -71.36 9.32 -70 10 C-70 11.32 -70 12.64 -70 14 C-68.35 13.67 -66.7 13.34 -65 13 C-65.99 9.04 -66.98 5.08 -68 1 C-63 -1 -63 -1 -60 -1 C-60 -0.34 -60 0.32 -60 1 C-61.32 1.33 -62.64 1.66 -64 2 C-61.525 2.495 -61.525 2.495 -59 3 C-59.33 3.99 -59.66 4.98 -60 6 C-59.01 6.33 -58.02 6.66 -57 7 C-57 7.66 -57 8.32 -57 9 C-49.74 8.67 -42.48 8.34 -35 8 C-36.32 7.34 -37.64 6.68 -39 6 C-39 5.01 -39 4.02 -39 3 C-36.69 3.33 -34.38 3.66 -32 4 C-32 3.34 -32 2.68 -32 2 C-32.804375 1.690625 -33.60875 1.38125 -34.4375 1.0625 C-37 0 -37 0 -38 -1 C-37.91062197 -2.52519276 -37.75462854 -4.04681929 -37.5625 -5.5625 C-37.46066406 -6.38878906 -37.35882813 -7.21507812 -37.25390625 -8.06640625 C-37.17011719 -8.70449219 -37.08632812 -9.34257812 -37 -10 C-23.77714783 -13.54899062 -11.21785706 -6.4263254 0 0 Z " fill="#F7F7F8" transform="translate(117,11)"/>
<path d="M0 0 C-1.32 0.33 -2.64 0.66 -4 1 C-4.2877602 4.05025811 -4.45941809 6.96243566 -4 10 C-1.6273026 12.00864359 -1.6273026 12.00864359 1 13 C1 13.66 1 14.32 1 15 C-1.31 14.67 -3.62 14.34 -6 14 C-6 14.99 -6 15.98 -6 17 C-3.36 17.66 -0.72 18.32 2 19 C2 19.33 2 19.66 2 20 C-6.58 20 -15.16 20 -24 20 C-24 19.34 -24 18.68 -24 18 C-25.98 18 -27.96 18 -30 18 C-28.68 16.68 -27.36 15.36 -26 14 C-27.65 14.33 -29.3 14.66 -31 15 C-31 14.34 -31 13.68 -31 13 C-29.68 12.67 -28.36 12.34 -27 12 C-27 11.34 -27 10.68 -27 10 C-29.31 10.66 -31.62 11.32 -34 12 C-33.67 13.051875 -33.34 14.10375 -33 15.1875 C-32.16033218 18.38873357 -31.80249096 20.7411008 -32 24 C-33.65 24.33 -35.3 24.66 -37 25 C-37.495 23.02 -37.495 23.02 -38 21 C-39.98 20.67 -41.96 20.34 -44 20 C-43.01 19.67 -42.02 19.34 -41 19 C-41 18.01 -41 17.02 -41 16 C-42.65 16.66 -44.3 17.32 -46 18 C-46 19.32 -46 20.64 -46 22 C-44.02 22.33 -42.04 22.66 -40 23 C-40.99 23.66 -41.98 24.32 -43 25 C-43.495 26.485 -43.495 26.485 -44 28 C-43.01 28.33 -42.02 28.66 -41 29 C-41.99 29.33 -42.98 29.66 -44 30 C-44 30.66 -44 31.32 -44 32 C-44.66 32 -45.32 32 -46 32 C-46 31.01 -46 30.02 -46 29 C-47.32 29 -48.64 29 -50 29 C-50.495 27.515 -50.495 27.515 -51 26 C-52.65 26 -54.3 26 -56 26 C-56.66 27.32 -57.32 28.64 -58 30 C-55.20579508 33.91603304 -55.20579508 33.91603304 -51 36 C-51 35.01 -51 34.02 -51 33 C-49.68 33 -48.36 33 -47 33 C-47.56194161 37.14062238 -49.8269522 39.59228139 -52.4375 42.75 C-53.24058594 43.73484375 -54.04367188 44.7196875 -54.87109375 45.734375 C-55.57363281 46.48203125 -56.27617188 47.2296875 -57 48 C-57.66 48 -58.32 48 -59 48 C-59.99 50.475 -59.99 50.475 -61 53 C-61.66 52.67 -62.32 52.34 -63 52 C-63 51.34 -63 50.68 -63 50 C-63.9075 49.855625 -64.815 49.71125 -65.75 49.5625 C-68.21476956 49.13590527 -70.58847107 48.64925779 -73 48 C-72.10664203 50.35785318 -72.10664203 50.35785318 -68.9375 51.125 C-67.968125 51.41375 -66.99875 51.7025 -66 52 C-66.33 53.65 -66.66 55.3 -67 57 C-65.68 57 -64.36 57 -63 57 C-63.33 65.25 -63.66 73.5 -64 82 C-64.33 82 -64.66 82 -65 82 C-65 80.02 -65 78.04 -65 76 C-71.27 76 -77.54 76 -84 76 C-84.79709829 55.43486401 -79.63252626 41.00329568 -67.26171875 24.328125 C-66.63716797 23.67070313 -66.63716797 23.67070313 -66 23 C-65.34 23 -64.68 23 -64 23 C-63.67 22.01 -63.34 21.02 -63 20 C-61.03399384 18.27389341 -59.08844636 16.68863784 -57 15.125 C-56.40550049 14.67809814 -55.81100098 14.23119629 -55.19848633 13.77075195 C-37.66856526 0.77692631 -21.4014542 -0.83199433 0 0 Z " fill="#08090A" transform="translate(84,0)"/>
<path d="M0 0 C1.918125 0.4021875 1.918125 0.4021875 3.875 0.8125 C4.37 1.8025 4.37 1.8025 4.875 2.8125 C8.14577164 2.98039217 11.41662664 3.14660238 14.6875 3.3125 C15.61626953 3.36019531 16.54503906 3.40789062 17.50195312 3.45703125 C18.39462891 3.50214844 19.28730469 3.54726562 20.20703125 3.59375 C21.02921143 3.63564453 21.8513916 3.67753906 22.69848633 3.72070312 C24.42272929 3.79342498 26.14922415 3.8125 27.875 3.8125 C25.42781657 12.51359664 18.03059322 17.84908878 10.63671875 22.27734375 C-3.55796365 30.16774005 -17.60311359 31.73703657 -33.32910156 27.64672852 C-44.27645705 24.51759624 -54.75455276 17.36817086 -61.125 7.8125 C-61.125 6.8225 -61.125 5.8325 -61.125 4.8125 C-45.41313559 2.79555085 -45.41313559 2.79555085 -39.92578125 5.234375 C-37.69883507 6.97003032 -35.83054979 8.56336855 -34.125 10.8125 C-34.125 11.4725 -34.125 12.1325 -34.125 12.8125 C-32.701875 12.7815625 -32.701875 12.7815625 -31.25 12.75 C-28.125 12.8125 -28.125 12.8125 -26.125 13.8125 C-26.72450296 17.49516103 -27.37258891 21.15793185 -28.125 24.8125 C-24.07243341 22.72460674 -22.24832458 20.88639444 -20.125 16.875 C-17.87562641 12.9055172 -15.91885628 10.43901589 -12.125 7.8125 C-8.74463224 4.5676373 -8.74463224 4.5676373 -5.8125 0.9375 C-3.63906431 -0.51145712 -2.56911947 -0.2509797 0 0 Z " fill="#F8F8F8" transform="translate(92.125,100.1875)"/>
<path d="M0 0 C3.24713262 2.11016832 6.13618888 4.39805488 9 7 C9.74507813 7.65355469 10.49015625 8.30710937 11.2578125 8.98046875 C17.60434414 14.88597022 21.80142886 21.47881861 26 29 C26.63615234 30.02673828 26.63615234 30.02673828 27.28515625 31.07421875 C28.31610022 33.85157055 28.1022259 35.25532682 27 38 C24.41796875 39.8359375 24.41796875 39.8359375 21.1875 41.375 C19.60001953 42.16003906 19.60001953 42.16003906 17.98046875 42.9609375 C14.9909469 44.00315613 13.86841002 44.18070146 11 43 C11 42.34 11 41.68 11 41 C12.98 40.01 14.96 39.02 17 38 C15.35 37.67 13.7 37.34 12 37 C12.66 35.35 13.32 33.7 14 32 C13.4225 32.350625 12.845 32.70125 12.25 33.0625 C9.64198224 34.14917407 8.60582371 33.93065133 6 33 C6 32.34 6 31.68 6 31 C7.7664657 29.9923048 9.53833823 28.99408286 11.3125 28 C12.29863281 27.443125 13.28476563 26.88625 14.30078125 26.3125 C17 25 17 25 20 25 C17.69 22.03 15.38 19.06 13 16 C11.35 16.33 9.7 16.66 8 17 C7.01 16.34 6.02 15.68 5 15 C5 14.34 5 13.68 5 13 C4.34 13 3.68 13 3 13 C3.495 13.763125 3.99 14.52625 4.5 15.3125 C6 18 6 18 6 21 C3.50638429 19.79618552 1.31856917 18.54571278 -1 17 C-0.525625 17.7425 -0.05125 18.485 0.4375 19.25 C1.77869327 21.61050015 2.512312 23.36648477 3 26 C-1.25219775 25.52753358 -3.37314725 23.22727623 -6 20 C-5.67654797 15.47167159 -2.39976734 12.99264582 0.6015625 9.90234375 C1.06304687 9.27457031 1.52453125 8.64679687 2 8 C0.75453595 4.26360784 -0.63404953 3.81243487 -4 2 C-4.66 2.99 -5.32 3.98 -6 5 C-7.65 4.67 -9.3 4.34 -11 4 C-12.32 6.64 -13.64 9.28 -15 12 C-15.99 12 -16.98 12 -18 12 C-17.44894091 8.0507432 -16.61064629 4.65079826 -15 1 C-15.99 0.67 -16.98 0.34 -18 0 C-17.67 -1.32 -17.34 -2.64 -17 -4 C-18.45706726 -4.50367757 -19.91570096 -5.00282556 -21.375 -5.5 C-22.18710938 -5.7784375 -22.99921875 -6.056875 -23.8359375 -6.34375 C-25.94209242 -7.09673305 -25.94209242 -7.09673305 -28 -7 C-27.505 -5.515 -27.505 -5.515 -27 -4 C-30.01031744 -3.06576355 -30.86650268 -2.95550089 -34 -4 C-33.14215265 -1.72543263 -33.14215265 -1.72543263 -30.4375 -1 C-28 1 -28 1 -27.76196289 3.3828125 C-27.7902417 4.28773437 -27.81852051 5.19265625 -27.84765625 6.125 C-27.86965088 7.03507812 -27.89164551 7.94515625 -27.91430664 8.8828125 C-27.94258545 9.58148437 -27.97086426 10.28015625 -28 11 C-28.71430176 10.97381592 -29.42860352 10.94763184 -30.16455078 10.9206543 C-49.84958318 10.29429794 -63.26856185 11.06169475 -79 24 C-79.33 23.34 -79.66 22.68 -80 22 C-81.32 22 -82.64 22 -84 22 C-84 22.99 -84 23.98 -84 25 C-87.25543229 24.65120368 -88.01873107 23.97866739 -90.25 21.4375 C-90.8275 20.633125 -91.405 19.82875 -92 19 C-90.125 15.125 -90.125 15.125 -89 14 C-87.33382885 13.95936168 -85.66611905 13.957279 -84 14 C-83.67 15.32 -83.34 16.64 -83 18 C-81.68 18 -80.36 18 -79 18 C-79 18.99 -79 19.98 -79 21 C-78.34 21 -77.68 21 -77 21 C-77 20.34 -77 19.68 -77 19 C-76.34 18.67 -75.68 18.34 -75 18 C-75.66 17.67 -76.32 17.34 -77 17 C-76.67 15.68 -76.34 14.36 -76 13 C-77.32 12.34 -78.64 11.68 -80 11 C-79.67 9.35 -79.34 7.7 -79 6 C-77.35 5.67 -75.7 5.34 -74 5 C-74 5.99 -74 6.98 -74 8 C-72.68 8.66 -71.36 9.32 -70 10 C-70 11.32 -70 12.64 -70 14 C-68.35 13.67 -66.7 13.34 -65 13 C-65.99 9.04 -66.98 5.08 -68 1 C-63 -1 -63 -1 -60 -1 C-60 -0.34 -60 0.32 -60 1 C-61.32 1.33 -62.64 1.66 -64 2 C-61.525 2.495 -61.525 2.495 -59 3 C-59.33 3.99 -59.66 4.98 -60 6 C-59.01 6.33 -58.02 6.66 -57 7 C-57 7.66 -57 8.32 -57 9 C-49.74 8.67 -42.48 8.34 -35 8 C-36.32 7.34 -37.64 6.68 -39 6 C-39 5.01 -39 4.02 -39 3 C-36.69 3.33 -34.38 3.66 -32 4 C-32 3.34 -32 2.68 -32 2 C-32.804375 1.690625 -33.60875 1.38125 -34.4375 1.0625 C-37 0 -37 0 -38 -1 C-37.91062197 -2.52519276 -37.75462854 -4.04681929 -37.5625 -5.5625 C-37.46066406 -6.38878906 -37.35882813 -7.21507812 -37.25390625 -8.06640625 C-37.17011719 -8.70449219 -37.08632812 -9.34257812 -37 -10 C-23.77714783 -13.54899062 -11.21785706 -6.4263254 0 0 Z " fill="#1C2139" transform="translate(117,11)"/>
<path d="M0 0 C1.98 0 3.96 0 6 0 C6.1959375 1.05316406 6.391875 2.10632813 6.59375 3.19140625 C10.10430773 20.62215927 17.04309516 34.63769574 31.95947266 44.85888672 C42.16454881 51.55824652 51.16215496 53.20865586 63.125 53.3125 C64.21554688 53.34150391 65.30609375 53.37050781 66.4296875 53.40039062 C73.84181077 53.45802077 79.36056954 52.26307264 86 49 C87.0003125 48.55398437 88.000625 48.10796875 89.03125 47.6484375 C99.90781306 42.03805845 107.45178677 33.8338927 113 23 C113.37769531 22.29488281 113.75539063 21.58976562 114.14453125 20.86328125 C117.40365394 14.2595907 118.64895531 7.19533651 120 0 C121.98 0 123.96 0 126 0 C124.07822024 11.29631519 121.30982328 21.74739192 116 32 C115.34 32 114.68 32 114 32 C113.01 34.97 113.01 34.97 112 38 C111.34 38 110.68 38 110 38 C110 38.66 110 39.32 110 40 C109.34 40 108.68 40 108 40 C108 40.99 108 41.98 108 43 C106.68 43 105.36 43 104 43 C103.67 44.32 103.34 45.64 103 47 C102.34 47 101.68 47 101 47 C101 47.66 101 48.32 101 49 C98.69 49.66 96.38 50.32 94 51 C94 51.66 94 52.32 94 53 C80.73227535 59.04460808 67.55784797 61 53 61 C51.32900023 61.31088368 49.66128463 61.64080332 48 62 C48 60.68 48 59.36 48 58 C45.03 57.67 42.06 57.34 39 57 C39 56.34 39 55.68 39 55 C38.2575 55.0825 37.515 55.165 36.75 55.25 C33.10903607 54.91900328 32.49026326 53.63256402 30 51 C27.90455793 49.64745069 25.77318502 48.38828485 23.609375 47.1484375 C22.81273437 46.57996094 22.81273437 46.57996094 22 46 C22 45.34 22 44.68 22 44 C21.34 44 20.68 44 20 44 C20 43.34 20 42.68 20 42 C19.34 42 18.68 42 18 42 C14 37.52941176 14 37.52941176 14 35 C13.01 35 12.02 35 11 35 C10.896875 34.360625 10.79375 33.72125 10.6875 33.0625 C10.460625 32.381875 10.23375 31.70125 10 31 C9.01 30.67 8.02 30.34 7 30 C6.9175 29.21625 6.835 28.4325 6.75 27.625 C6.11221637 24.54237913 5.32128916 22.33578524 4.0625 19.5 C1.41999431 13.215641 0.73734118 6.73308918 0 0 Z " fill="#D2D3D5" transform="translate(12,77)"/>
<path d="M0 0 C4.01468077 0.3088216 6.44311905 1.75189147 9.625 4.125 C14.93983312 7.99106084 20.42947851 11.51577648 26 15 C25.41704005 18.18129575 24.69370671 21.15727269 23.5625 24.1875 C23.31628906 24.86167969 23.07007813 25.53585938 22.81640625 26.23046875 C22 28 22 28 20 30 C19.01 30 18.02 30 17 30 C16.7834375 30.8971875 16.7834375 30.8971875 16.5625 31.8125 C16.1127561 33.56150404 15.57107659 35.28677023 15 37 C17.31 37.33 19.62 37.66 22 38 C22.495 37.01 22.495 37.01 23 36 C24 37 24 37 24.09765625 38.84765625 C24.06510417 40.8984375 24.03255208 42.94921875 24 45 C20.19147542 44.34866088 17.53465792 42.57934391 14.3125 40.5 C8.95646881 37.10920459 3.48028765 34.02229303 -2.125 31.0625 C-3.22654419 30.47855469 -3.22654419 30.47855469 -4.3503418 29.8828125 C-7.20408885 28.3875967 -9.93835681 27.02054773 -13 26 C-13 25.01 -13 24.02 -13 23 C-12.34 22.67 -11.68 22.34 -11 22 C-11 19.36 -11 16.72 -11 14 C-10.01 13.67 -9.02 13.34 -8 13 C-7.29289322 11.35008418 -6.63437344 9.6792238 -6 8 C-4.15703362 5.06277233 -2.4524619 2.4524619 0 0 Z " fill="#060606" transform="translate(72,25)"/>
<path d="M0 0 C3.816582 0.60196427 6.78376712 1.72722962 10.203125 3.51171875 C11.18410156 4.02283203 12.16507813 4.53394531 13.17578125 5.06054688 C14.19027344 5.59744141 15.20476562 6.13433594 16.25 6.6875 C17.24902344 7.20505859 18.24804688 7.72261719 19.27734375 8.25585938 C25.45895923 11.50019743 31.25887537 15.02766584 37 19 C36.67 23.62 36.34 28.24 36 33 C35.34 33 34.68 33 34 33 C34 30.69 34 28.38 34 26 C26.01604192 29.94476773 18.07279654 33.93075263 10.25 38.1875 C-6.04841014 47 -6.04841014 47 -12 47 C-12.45826062 41.2717423 -11.55825861 38.5001506 -8 34 C-6 32 -6 32 -3.5 31.625 C-2.675 31.41875 -1.85 31.2125 -1 31 C-0.71125 30.39414063 -0.4225 29.78828125 -0.125 29.1640625 C1.30140156 26.42022061 2.91449411 25.41211093 5.5 23.75 C6.69109375 22.96882813 6.69109375 22.96882813 7.90625 22.171875 C10 21 10 21 12 21 C11.02546875 19.78763672 11.02546875 19.78763672 10.03125 18.55078125 C9.18686789 17.47184856 8.34315267 16.39239373 7.5 15.3125 C7.07074219 14.78205078 6.64148438 14.25160156 6.19921875 13.70507812 C4.19570459 11.11323044 3.03922805 9.40372201 2.71875 6.10546875 C2.8115625 5.41066406 2.904375 4.71585938 3 4 C2.01 4 1.02 4 0 4 C0 2.68 0 1.36 0 0 Z " fill="#080808" transform="translate(59,54)"/>
<path d="M0 0 C-0.020625 1.093125 -0.04125 2.18625 -0.0625 3.3125 C-0.18544452 6.94384191 -0.18544452 6.94384191 1 10 C-1.12729185 16.74864999 -5.88241079 23.14271281 -11.9375 26.75 C-15.96666382 29.71020199 -17.94984289 33.28059188 -20.484375 37.5390625 C-22 40 -22 40 -24 42 C-24.99 42 -25.98 42 -27 42 C-26 34.57142857 -26 34.57142857 -25 31 C-27.64 30.67 -30.28 30.34 -33 30 C-33 29.34 -33 28.68 -33 28 C-33.53625 27.773125 -34.0725 27.54625 -34.625 27.3125 C-37.78500863 25.56617944 -40.2676983 23.3597151 -43 21 C-40.38419421 18.38419421 -38.11658368 18.04059285 -34.5625 17 C-27.98116783 14.94567835 -21.9652342 12.15733935 -15.875 8.9375 C-15.07006104 8.51404297 -14.26512207 8.09058594 -13.43579102 7.65429688 C-9.50537345 5.53202866 -4.1519554 0 0 0 Z " fill="#070707" transform="translate(91,83)"/>
<path d="M0 0 C1.79323253 0.28187936 3.58457126 0.5758281 5.375 0.875 C6.37273437 1.03742187 7.37046875 1.19984375 8.3984375 1.3671875 C11 2 11 2 13 4 C12.625 6.125 12.625 6.125 12 8 C12.66 8.33 13.32 8.66 14 9 C13.32829194 12.8063457 12.27253436 16.35206816 11 20 C11.99 20 12.98 20 14 20 C14.28875 19.071875 14.5775 18.14375 14.875 17.1875 C16 14 16 14 18 11 C20.475 11.495 20.475 11.495 23 12 C23.66 11.01 24.32 10.02 25 9 C27.31 10.65 29.62 12.3 32 14 C30.70224452 18.41236864 28.5573658 20.58733243 25.14453125 23.47265625 C23.76236965 24.95790908 23.76236965 24.95790908 24.20703125 27.046875 C25.28813243 29.70968579 26.82788773 31.147316 29 33 C29.99 33.33 30.98 33.66 32 34 C31.525625 33.2575 31.05125 32.515 30.5625 31.75 C29.22130673 29.38949985 28.487688 27.63351523 28 25 C30.49361571 26.20381448 32.68143083 27.45428722 35 29 C34.505 28.236875 34.01 27.47375 33.5 26.6875 C32 24 32 24 32 21 C32.66 21 33.32 21 34 21 C34.45375 21.474375 34.9075 21.94875 35.375 22.4375 C37.22977487 24.22093737 38.50135592 24.5691993 41 25 C41.33 24.34 41.66 23.68 42 23 C43.17260611 24.28627711 44.3379283 25.57919783 45.5 26.875 C46.1496875 27.59429688 46.799375 28.31359375 47.46875 29.0546875 C49 31 49 31 49 33 C37.54166667 39.58854167 37.54166667 39.58854167 32.5 39.1875 C28.3665769 37.78508859 27.63456853 36.36693926 25 33 C18.7263187 27.55180308 12.29321162 23.94790872 4.43359375 21.30078125 C2 20 2 20 0.6484375 17.55078125 C0 15 0 15 0.1875 11.875 C0.125625 10.92625 0.06375 9.9775 0 9 C-2.42672567 7.21030974 -2.42672567 7.21030974 -5 6 C-5 5.34 -5 4.68 -5 4 C-3.02 4 -1.04 4 1 4 C0.67 2.68 0.34 1.36 0 0 Z " fill="#111216" transform="translate(88,3)"/>
<path d="M0 0 C3.28905885 3.18296018 6.34607942 6.50472335 9.375 9.9375 C13.01176114 14.01286549 16.75595477 17.56864428 21 21 C19.27447059 24.75834487 17.4671343 26.66170012 14 29 C11.1875 29.75 11.1875 29.75 9 30 C8.90847656 30.70511719 8.81695312 31.41023438 8.72265625 32.13671875 C7.85992047 35.5550178 6.38106777 37.87947955 4.4375 40.8125 C3.79683594 41.78832031 3.15617187 42.76414063 2.49609375 43.76953125 C2.00238281 44.50558594 1.50867188 45.24164063 1 46 C-1.76733596 43.63462345 -2.66162033 41.60798805 -3.625 38.125 C-3.86476563 37.28195313 -4.10453125 36.43890625 -4.3515625 35.5703125 C-6.87174143 25.5806876 -6.99460553 14.93814142 -4 5 C-1.875 1.8125 -1.875 1.8125 0 0 Z " fill="#FAFAFB" transform="translate(26,53)"/>
<path d="M0 0 C4.03691047 3.70297227 5.68246139 8.1688869 6.28417969 13.53369141 C6.40242992 16.30044373 6.41518796 19.04357305 6.375 21.8125 C6.36847412 22.7828418 6.36194824 23.75318359 6.35522461 24.75292969 C6.21456107 32.26423665 5.39726698 39.20546603 2 46 C1.01 46 0.02 46 -1 46 C-2.17578125 44.49609375 -2.17578125 44.49609375 -3.3125 42.4375 C-7.36188394 35.59211287 -12.26684162 30.54268125 -18.4609375 25.578125 C-20 24 -20 24 -20 21 C-18.0234375 19.203125 -18.0234375 19.203125 -15.375 17.25 C-8.92111587 12.27285207 -4.34195719 6.84693249 0 0 Z " fill="#FCFCFC" transform="translate(123,52)"/>
<path d="M0 0 C7.53431371 0.05436013 15.46271318 2.12097545 21.75 6.3125 C22.4375 8.4375 22.4375 8.4375 22.75 10.3125 C24.07 10.6425 25.39 10.9725 26.75 11.3125 C27.70987738 15.50105586 27.70987738 15.50105586 26.75 18.3125 C23.45248643 21.57095673 19.8944563 24.22869516 15.75 26.3125 C9.95062966 26.22293443 4.70810871 20.03072333 0.75 16.3125 C-2.65826125 12.3459331 -5.03210355 9.05567162 -5.6875 3.8125 C-4.98830919 -0.18287606 -3.78611126 0.11602599 0 0 Z " fill="#FCFCFC" transform="translate(35.25,46.6875)"/>
<path d="M0 0 C0.77601562 -0.00515625 1.55203125 -0.0103125 2.3515625 -0.015625 C4.375 0.25 4.375 0.25 6.375 2.25 C6.63334751 6.38356013 6.05157719 8.33220834 3.578125 11.6875 C1.26140287 14.30779261 -1.13636657 16.79271944 -3.625 19.25 C-4.35074219 19.98605469 -5.07648438 20.72210938 -5.82421875 21.48046875 C-9.66712799 25.14770214 -9.66712799 25.14770214 -11.625 26.25 C-13.275 25.92 -14.925 25.59 -16.625 25.25 C-17.285 21.95 -17.945 18.65 -18.625 15.25 C-19.615 15.58 -20.605 15.91 -21.625 16.25 C-24.3125 15.8125 -24.3125 15.8125 -26.625 15.25 C-24.99582405 8.50055679 -24.99582405 8.50055679 -22.3125 6.6875 C-21.425625 6.213125 -20.53875 5.73875 -19.625 5.25 C-19.00625 4.87875 -18.3875 4.5075 -17.75 4.125 C-14.791097 2.90662818 -11.78392615 2.70127516 -8.625 2.25 C-7.98820312 1.91484375 -7.35140625 1.5796875 -6.6953125 1.234375 C-4.3018819 0.09636649 -2.63683513 -0.01763769 0 0 Z " fill="#FAFAFA" transform="translate(113.625,46.75)"/>
<path d="M0 0 C7.76484277 0.64845582 14.86296942 9.60018558 19.625 15.140625 C23.15510204 19.91428571 23.15510204 19.91428571 22.6875 23.1875 C22 25 22 25 21 26 C15.04341538 26.43634266 9.55723413 26.40312827 4 24 C4 23.34 4 22.68 4 22 C2.081875 22.061875 2.081875 22.061875 0.125 22.125 C-2.0546875 22.1953125 -2.0546875 22.1953125 -4 22 C-6 20 -6 20 -6.046875 17.87109375 C-5.94890625 17.06800781 -5.8509375 16.26492187 -5.75 15.4375 C-5.66234375 14.63183594 -5.5746875 13.82617188 -5.484375 12.99609375 C-5.32453125 12.33738281 -5.1646875 11.67867187 -5 11 C-4.34 10.67 -3.68 10.34 -3 10 C-2.74280183 7.97456444 -2.49157878 5.94649776 -2.34375 3.91015625 C-2 2 -2 2 0 0 Z " fill="#FDFDFD" transform="translate(98,77)"/>
<path d="M0 0 C1.875 1.5 1.875 1.5 3 3 C-0.01031744 3.93423645 -0.86650268 4.04449911 -4 3 C-3.14215265 5.27456737 -3.14215265 5.27456737 -0.4375 6 C2 8 2 8 2.23803711 10.3828125 C2.2097583 11.28773437 2.18147949 12.19265625 2.15234375 13.125 C2.13034912 14.03507812 2.10835449 14.94515625 2.08569336 15.8828125 C2.05741455 16.58148437 2.02913574 17.28015625 2 18 C1.28569824 17.97381592 0.57139648 17.94763184 -0.16455078 17.9206543 C-19.84958318 17.29429794 -33.26856185 18.06169475 -49 31 C-49.33 30.34 -49.66 29.68 -50 29 C-51.32 29 -52.64 29 -54 29 C-54 29.99 -54 30.98 -54 32 C-57.25543229 31.65120368 -58.01873107 30.97866739 -60.25 28.4375 C-60.8275 27.633125 -61.405 26.82875 -62 26 C-60.125 22.125 -60.125 22.125 -59 21 C-57.33382885 20.95936168 -55.66611905 20.957279 -54 21 C-53.67 22.32 -53.34 23.64 -53 25 C-51.68 25 -50.36 25 -49 25 C-49 25.99 -49 26.98 -49 28 C-48.34 28 -47.68 28 -47 28 C-47 27.34 -47 26.68 -47 26 C-46.34 25.67 -45.68 25.34 -45 25 C-45.66 24.67 -46.32 24.34 -47 24 C-46.67 22.68 -46.34 21.36 -46 20 C-47.32 19.34 -48.64 18.68 -50 18 C-49.67 16.35 -49.34 14.7 -49 13 C-47.35 12.67 -45.7 12.34 -44 12 C-44 12.99 -44 13.98 -44 15 C-42.68 15.66 -41.36 16.32 -40 17 C-40 18.32 -40 19.64 -40 21 C-38.35 20.67 -36.7 20.34 -35 20 C-35.99 16.04 -36.98 12.08 -38 8 C-33 6 -33 6 -30 6 C-30 6.66 -30 7.32 -30 8 C-31.32 8.33 -32.64 8.66 -34 9 C-31.525 9.495 -31.525 9.495 -29 10 C-29.33 10.99 -29.66 11.98 -30 13 C-29.01 13.33 -28.02 13.66 -27 14 C-27 14.66 -27 15.32 -27 16 C-19.74 15.67 -12.48 15.34 -5 15 C-6.32 14.34 -7.64 13.68 -9 13 C-9 12.01 -9 11.02 -9 10 C-6.69 10.33 -4.38 10.66 -2 11 C-2 10.34 -2 9.68 -2 9 C-2.804375 8.690625 -3.60875 8.38125 -4.4375 8.0625 C-7 7 -7 7 -8 6 C-8.04063832 4.33382885 -8.042721 2.66611905 -8 1 C-5.20129973 -0.39935013 -3.09501208 -0.25265405 0 0 Z " fill="#262A3B" transform="translate(87,4)"/>
<path d="M0 0 C3.28820935 8.21265685 4 16.19691525 4 25 C-1.94 25 -7.88 25 -14 25 C-14.144375 23.35 -14.28875 21.7 -14.4375 20 C-14.86158844 15.3168519 -15.38432915 10.66150786 -16 6 C-14.42065361 5.01441551 -12.83634827 4.03677459 -11.25 3.0625 C-10.36828125 2.51722656 -9.4865625 1.97195312 -8.578125 1.41015625 C-3.13458755 -1.56729378 -3.13458755 -1.56729378 0 0 Z " fill="#030304" transform="translate(145,50)"/>
<path d="M0 0 C0.66 0 1.32 0 2 0 C2.16435547 1.19882813 2.16435547 1.19882813 2.33203125 2.421875 C5.67307638 25.56472418 13.69808924 43.43661023 32.41015625 58.08203125 C45.29405978 67.6235043 60.18579027 70.83181232 75.9375 71.5625 C76.81212891 71.60568359 77.68675781 71.64886719 78.58789062 71.69335938 C80.72511995 71.79846901 82.86254238 71.89963985 85 72 C84.67 72.66 84.34 73.32 84 74 C55.70975887 75.04469133 55.70975887 75.04469133 43 69 C42.00097656 68.53078125 41.00195312 68.0615625 39.97265625 67.578125 C33.88789981 64.4731464 27.9513118 60.74347896 23 56 C23 55.34 23 54.68 23 54 C21.515 53.505 21.515 53.505 20 53 C20 52.34 20 51.68 20 51 C18.515 50.505 18.515 50.505 17 50 C7.12340894 38.20452839 -0.49572949 23.14739739 -0.125 7.5625 C-0.11597656 6.83095703 -0.10695312 6.09941406 -0.09765625 5.34570312 C-0.07436153 3.56365702 -0.0385019 1.78178241 0 0 Z " fill="#232A48" transform="translate(0,76)"/>
<path d="M0 0 C2.80994239 1.15500699 4.73829152 2.67362109 6.91015625 4.78515625 C6.91015625 6.10515625 6.91015625 7.42515625 6.91015625 8.78515625 C6.00265625 8.99140625 5.09515625 9.19765625 4.16015625 9.41015625 C0.00189962 11.16941867 -1.02528015 12.80349788 -3.08984375 16.78515625 C-3.93215812 19.44610392 -4.5227965 22.04442787 -5.08984375 24.78515625 C-6.9821632 25.17750319 -8.87895032 25.54833941 -10.77734375 25.91015625 C-11.83308594 26.11898437 -12.88882813 26.3278125 -13.9765625 26.54296875 C-17.33382034 26.80413561 -19.11274815 26.27646573 -22.08984375 24.78515625 C-21.86094779 19.17720521 -20.47399395 16.4403584 -16.7578125 12.265625 C-15.08984375 10.78515625 -15.08984375 10.78515625 -12.953125 9.7734375 C-10.73539871 8.87168507 -10.73539871 8.87168507 -10.08984375 5.78515625 C-8.3828125 4.14453125 -8.3828125 4.14453125 -6.27734375 2.53515625 C-5.59027344 1.99375 -4.90320313 1.45234375 -4.1953125 0.89453125 C-2.08984375 -0.21484375 -2.08984375 -0.21484375 0 0 Z " fill="#FAFAFB" transform="translate(51.08984375,77.21484375)"/>
<path d="M0 0 C2.94721162 2.74395564 5.19168608 5.38337216 7 9 C6 11 6 11 4.59765625 12.3984375 C2.96199621 14.03809671 1.75032372 15.72042589 0.4375 17.625 C-3.37540177 22.81131475 -8.15924214 26.80351567 -13 31 C-13.66 31.66 -14.32 32.32 -15 33 C-14.13117188 33.76183594 -13.26234375 34.52367187 -12.3671875 35.30859375 C0.41057641 46.69003232 0.41057641 46.69003232 4 54 C4 54.66 4 55.32 4 56 C4.66 56 5.32 56 6 56 C5.34 57.98 4.68 59.96 4 62 C0.59698245 62.78653402 -2.37991044 63.08116649 -5.86328125 62.87890625 C-6.74951172 62.83056641 -7.63574219 62.78222656 -8.54882812 62.73242188 C-9.46083984 62.67634766 -10.37285156 62.62027344 -11.3125 62.5625 C-12.24384766 62.51029297 -13.17519531 62.45808594 -14.13476562 62.40429688 C-16.42356353 62.2751852 -18.71186186 62.14024585 -21 62 C-21.495 60.515 -21.495 60.515 -22 59 C-25.96 58.505 -25.96 58.505 -30 58 C-29.01 55.69 -28.02 53.38 -27 51 C-26.5359375 51.9590625 -26.5359375 51.9590625 -26.0625 52.9375 C-25.1654837 54.93610821 -25.1654837 54.93610821 -24 56 C-21.9412232 56.27953219 -19.88271568 56.44734351 -17.8125 56.62109375 C-16.9153125 56.80865234 -16.9153125 56.80865234 -16 57 C-15.67 57.66 -15.34 58.32 -15 59 C-11.37861734 60.02273507 -7.93265244 60.10762232 -4.1875 60.0625 C-3.21167969 60.05347656 -2.23585938 60.04445312 -1.23046875 60.03515625 C-0.49441406 60.02355469 0.24164063 60.01195312 1 60 C1.91339706 57.53659582 2.17684313 56.41850206 1.13671875 53.95703125 C-3.73748913 46.74425463 -9.74641605 40.83572264 -17 36 C-19.15274948 36.30840599 -19.15274948 36.30840599 -21 37 C-21.33 39.64 -21.66 42.28 -22 45 C-22.33 45 -22.66 45 -23 45 C-23.10251672 39.87416389 -23.03590199 35.05002222 -22 30 C-21.13503906 30.10441406 -20.27007812 30.20882812 -19.37890625 30.31640625 C-14.98826735 29.90525972 -12.94222891 27.91424653 -9.9375 24.9375 C-9.41381836 24.43524902 -8.89013672 23.93299805 -8.35058594 23.41552734 C-1.77466305 17.25934898 -1.77466305 17.25934898 1.375 9.125 C1.21334165 7.02218753 1.21334165 7.02218753 0 6 C-1.99990516 5.80010237 -1.99990516 5.80010237 -4.3125 5.8125 C-5.09238281 5.79832031 -5.87226562 5.78414062 -6.67578125 5.76953125 C-9.23795763 6.0235958 -10.72010511 6.84911256 -13 8 C-15.578125 8.4140625 -15.578125 8.4140625 -18.25 8.625 C-19.14203125 8.69976562 -20.0340625 8.77453125 -20.953125 8.8515625 C-21.62859375 8.90054688 -22.3040625 8.94953125 -23 9 C-22.67 7.02 -22.34 5.04 -22 3 C-21.67 3.66 -21.34 4.32 -21 5 C-20.34644531 4.68289062 -19.69289063 4.36578125 -19.01953125 4.0390625 C-15.20704555 2.7271334 -11.69110429 2.54673638 -7.6875 2.375 C-6.94693359 2.33632813 -6.20636719 2.29765625 -5.44335938 2.2578125 C-3.62928691 2.16418295 -1.81467884 2.08103149 0 2 C0 1.34 0 0.68 0 0 Z " fill="#DFE0E2" transform="translate(118,42)"/>
<path d="M0 0 C0.33 0.66 0.66 1.32 1 2 C1.89525391 1.93039063 1.89525391 1.93039063 2.80859375 1.859375 C11.94942966 1.47907276 20.2341458 3.69806408 29 6 C29 6.66 29 7.32 29 8 C29.88377319 8.19903931 29.88377319 8.19903931 30.78540039 8.40209961 C34.20935169 9.32650229 37.2833124 10.97341879 40.4375 12.5625 C41.14036133 12.9145752 41.84322266 13.26665039 42.56738281 13.62939453 C48.35135801 16.57360764 53.85675743 19.85037085 59.328125 23.3359375 C61.5153288 24.69814338 63.67244349 25.90272336 66 27 C66.495 25.515 66.495 25.515 67 24 C67 25.65 67 27.3 67 29 C62.05022285 29 59.36073335 27.03778077 55.3125 24.5 C46.82384121 19.32491698 38.06463684 15.06150186 29 11 C28.67 12.32 28.34 13.64 28 15 C27.505 12.525 27.505 12.525 27 10 C24.81324225 9.25620485 22.62402588 8.52197346 20.4296875 7.80078125 C18.46848283 7.15440351 16.51429556 6.48675665 14.5625 5.8125 C9.98919944 4.76946654 5.66774052 4.83094702 1 5 C0.49153988 10.33883127 1.71221588 12.82362558 5 17 C8.48447784 20.77485099 12.34443582 24.0981655 16.23046875 27.44921875 C17.52866688 28.58693322 18.7794033 29.7794033 20 31 C19.34 31 18.68 31 18 31 C17.67 31.66 17.34 32.32 17 33 C16.505 32.319375 16.01 31.63875 15.5 30.9375 C13.47405353 28.5570129 11.62748096 26.78749402 9.25 24.8125 C4.47393014 20.75463613 0.76870746 15.98150959 -3 11 C-6.5578049 14.03715052 -7.59183554 16.14284881 -8.25 20.75 C-8.39953125 21.73484375 -8.5490625 22.7196875 -8.703125 23.734375 C-8.80109375 24.48203125 -8.8990625 25.2296875 -9 26 C-9.33 26 -9.66 26 -10 26 C-10.14285714 17.42857143 -10.14285714 17.42857143 -9 14 C-10.32 14 -11.64 14 -13 14 C-12.67 12.35 -12.34 10.7 -12 9 C-14.97 8.505 -14.97 8.505 -18 8 C-18.33 7.01 -18.66 6.02 -19 5 C-11.34782609 6.2173913 -11.34782609 6.2173913 -9 7 C-8.67 7.66 -8.34 8.32 -8 9 C-5.06799526 6.14723863 -2.35684596 3.34920216 0 0 Z " fill="#C0C2C5" transform="translate(30,43)"/>
<path d="M0 0 C0.33 0 0.66 0 1 0 C2.78985369 21.00382519 2.78985369 21.00382519 -1 29 C-1.60521484 30.3303125 -1.60521484 30.3303125 -2.22265625 31.6875 C-9.27295 45.8273649 -21.2598158 56.99944714 -36.01953125 62.6171875 C-41.74580303 64.46560822 -47.33863226 64.49465543 -53.3125 64.4375 C-54.42318848 64.42920166 -55.53387695 64.42090332 -56.67822266 64.41235352 C-69.61857912 64.14478617 -78.53751389 60.54426494 -89 53 C-89.65871094 52.52691406 -90.31742188 52.05382812 -90.99609375 51.56640625 C-101.58350755 43.24267113 -107.94078145 30.36715165 -109.73828125 17.2734375 C-109.82464844 16.52320312 -109.91101563 15.77296875 -110 15 C-109.34 14.67 -108.68 14.34 -108 14 C-107.76216797 15.10794922 -107.76216797 15.10794922 -107.51953125 16.23828125 C-104.09045325 31.14813972 -97.70455734 43.92842396 -85 53 C-71.86241792 61.02223044 -57.26337451 64.16568317 -42.125 60.9375 C-25.629163 56.32645895 -14.47357952 47.5258124 -5.74609375 32.8984375 C-0.21619197 22.65485561 -0.46549238 11.35556404 0 0 Z " fill="#4B5069" transform="translate(129,67)"/>
<path d="M0 0 C0 0.33 0 0.66 0 1 C-0.55236328 1.03963867 -1.10472656 1.07927734 -1.67382812 1.12011719 C-28.14692596 3.1050512 -48.89610134 8.52441135 -67.00390625 29.47265625 C-77.44997025 42.69888601 -81.95214688 57.45495068 -83 74 C-83.33 74 -83.66 74 -84 74 C-85.14781075 54.58924493 -78.83416951 39.92715452 -67.26171875 24.328125 C-66.63716797 23.67070313 -66.63716797 23.67070313 -66 23 C-65.34 23 -64.68 23 -64 23 C-63.67 22.01 -63.34 21.02 -63 20 C-61.03399384 18.27389341 -59.08844636 16.68863784 -57 15.125 C-56.40550049 14.67809814 -55.81100098 14.23119629 -55.19848633 13.77075195 C-37.66856526 0.77692631 -21.4014542 -0.83199433 0 0 Z " fill="#151B38" transform="translate(84,0)"/>
<path d="M0 0 C1.65 0 3.3 0 5 0 C5.15384615 8 5.15384615 8 4 11 C3.01 11.495 3.01 11.495 2 12 C2.33 12.99 2.66 13.98 3 15 C2.109375 17.8828125 2.109375 17.8828125 0.75 21.125 C0.31171875 22.20007813 -0.1265625 23.27515625 -0.578125 24.3828125 C-2 27 -2 27 -5 28 C-5 28.66 -5 29.32 -5 30 C-5.66 30 -6.32 30 -7 30 C-7 30.66 -7 31.32 -7 32 C-7.99 32.495 -7.99 32.495 -9 33 C-8.67 33.66 -8.34 34.32 -8 35 C-8.99 35 -9.98 35 -11 35 C-11 35.99 -11 36.98 -11 38 C-11.66 38.99 -12.32 39.98 -13 41 C-13.66 41 -14.32 41 -15 41 C-15 41.99 -15 42.98 -15 44 C-16.32 43.67 -17.64 43.34 -19 43 C-19.33 44.32 -19.66 45.64 -20 47 C-20.99 47 -21.98 47 -23 47 C-22.125 42.25 -22.125 42.25 -21 40 C-19.68 40 -18.36 40 -17 40 C-17 39.01 -17 38.02 -17 37 C-16.34 37 -15.68 37 -15 37 C-15 36.34 -15 35.68 -15 35 C-14.34 35 -13.68 35 -13 35 C-12.855625 34.38125 -12.71125 33.7625 -12.5625 33.125 C-12 31 -12 31 -11 29 C-10.34 29 -9.68 29 -9 29 C-8.7215625 28.15050781 -8.443125 27.30101563 -8.15625 26.42578125 C-6.99630098 22.9890404 -5.75301962 19.59128196 -4.5 16.1875 C-2.56858879 10.81487237 -1.06293072 5.60454379 0 0 Z " fill="#343434" transform="translate(137,80)"/>
<path d="M0 0 C0.598125 0.20625 1.19625 0.4125 1.8125 0.625 C1.8125 1.945 1.8125 3.265 1.8125 4.625 C0.4925 4.625 -0.8275 4.625 -2.1875 4.625 C-2.1875 5.285 -2.1875 5.945 -2.1875 6.625 C-15.80305709 14.20555341 -27.89042576 16.15519384 -43.1875 15.625 C-43.1875 13.975 -43.1875 12.325 -43.1875 10.625 C-42.58389648 10.59059814 -41.98029297 10.55619629 -41.35839844 10.52075195 C-25.88943953 9.70950143 -25.88943953 9.70950143 -11.4296875 4.6484375 C-9.1875 3.625 -9.1875 3.625 -5.1875 3.625 C-5.1875 2.965 -5.1875 2.305 -5.1875 1.625 C-2.1875 -0.375 -2.1875 -0.375 0 0 Z " fill="#4B4C4C" transform="translate(111.1875,126.375)"/>
<path d="M0 0 C1.79323253 0.28187936 3.58457126 0.5758281 5.375 0.875 C6.37273437 1.03742187 7.37046875 1.19984375 8.3984375 1.3671875 C11 2 11 2 13 4 C12.625 6.125 12.625 6.125 12 8 C12.66 8.33 13.32 8.66 14 9 C13.33501617 13.38889325 11.81242323 16.9811485 10 21 C5.545 20.01 5.545 20.01 1 19 C0 15 0 15 0.25 11.9375 C0.1675 10.968125 0.085 9.99875 0 9 C-2.42672567 7.21030974 -2.42672567 7.21030974 -5 6 C-5 5.34 -5 4.68 -5 4 C-3.02 4 -1.04 4 1 4 C0.67 2.68 0.34 1.36 0 0 Z " fill="#0A0A0C" transform="translate(88,3)"/>
<path d="M0 0 C2.4375 0.375 2.4375 0.375 5 1 C5.33 1.66 5.66 2.32 6 3 C9.465 2.505 9.465 2.505 13 2 C12.34 3.65 11.68 5.3 11 7 C12.98 7 14.96 7 17 7 C16 9 16 9 12.9375 10.125 C11.968125 10.41375 10.99875 10.7025 10 11 C10.99 12.32 11.98 13.64 13 15 C12.34 15 11.68 15 11 15 C11.33 16.093125 11.66 17.18625 12 18.3125 C13.33966562 23.56738555 13.13498595 28.60056185 13 34 C18.94 34 24.88 34 31 34 C29.63000881 22.2977756 29.63000881 22.2977756 26.5859375 10.953125 C26 9 26 9 26 6 C26.66 6 27.32 6 28 6 C32.125 18.375 32.125 18.375 32.09765625 23.32421875 C32.09443359 24.35224609 32.09121094 25.38027344 32.08789062 26.43945312 C32.07532227 28.04723633 32.07532227 28.04723633 32.0625 29.6875 C32.05798828 30.77095703 32.05347656 31.85441406 32.04882812 32.97070312 C32.03703743 35.64719085 32.02058063 38.32356777 32 41 C31.67 41 31.34 41 31 41 C31 39.02 31 37.04 31 35 C25.06 35 19.12 35 13 35 C13 37.31 13 39.62 13 42 C12.67 42 12.34 42 12 42 C11.98582031 41.030625 11.97164062 40.06125 11.95703125 39.0625 C11.53253584 24.71636161 8.34945123 11.93598527 0 0 Z " fill="#323649" transform="translate(118,41)"/>
<path d="M0 0 C0.66 0 1.32 0 2 0 C2.45375 0.474375 2.9075 0.94875 3.375 1.4375 C5.22977487 3.22093737 6.50135592 3.5691993 9 4 C9.33 3.34 9.66 2.68 10 2 C11.17260611 3.28627711 12.3379283 4.57919783 13.5 5.875 C14.1496875 6.59429688 14.799375 7.31359375 15.46875 8.0546875 C17 10 17 10 17 12 C5.34233993 18.60409314 5.34233993 18.60409314 0.75 17.875 C-0.1575 17.58625 -1.065 17.2975 -2 17 C-1.6596875 15.3603125 -1.6596875 15.3603125 -1.3125 13.6875 C-0.57662825 10.10050364 -0.57662825 10.10050364 -2.4375 8.25 C-2.953125 7.8375 -3.46875 7.425 -4 7 C-4 6.01 -4 5.02 -4 4 C-1.50638429 5.20381448 0.68143083 6.45428722 3 8 C2.505 7.236875 2.01 6.47375 1.5 5.6875 C0 3 0 3 0 0 Z " fill="#040506" transform="translate(120,24)"/>
<path d="M0 0 C2.62187494 1.04874998 3.79371361 1.64931313 5.25 4.125 C5.4975 4.74375 5.745 5.3625 6 6 C6.66 6 7.32 6 8 6 C8 6.66 8 7.32 8 8 C8.66 8 9.32 8 10 8 C10 8.66 10 9.32 10 10 C10.57234375 10.2784375 11.1446875 10.556875 11.734375 10.84375 C13.96617566 11.98273792 16.10870874 13.19936383 18.25 14.5 C18.95640625 14.9228125 19.6628125 15.345625 20.390625 15.78125 C20.92171875 16.1834375 21.4528125 16.585625 22 17 C22 17.66 22 18.32 22 19 C23.65 19 25.3 19 27 19 C27 19.66 27 20.32 27 21 C29.97 21.33 32.94 21.66 36 22 C35.34 23.65 34.68 25.3 34 27 C33.34 27 32.68 27 32 27 C31.505 26.01 31.505 26.01 31 25 C29.88625 24.938125 28.7725 24.87625 27.625 24.8125 C21.59979457 24.24284421 16.64406769 20.69647299 12 17 C12 16.34 12 15.68 12 15 C11.01 14.67 10.02 14.34 9 14 C9 13.34 9 12.68 9 12 C7.35 11.67 5.7 11.34 4 11 C3.67 10.01 3.34 9.02 3 8 C2.34 8 1.68 8 1 8 C0 5 0 5 0 4 C-0.66 4 -1.32 4 -2 4 C-2 3.34 -2 2.68 -2 2 C-1.34 2 -0.68 2 0 2 C0 1.34 0 0.68 0 0 Z " fill="#444444" transform="translate(24,113)"/>
<path d="M0 0 C0 2.31 0 4.62 0 7 C0.66 7.33 1.32 7.66 2 8 C1.34 8 0.68 8 0 8 C-0.33 9.32 -0.66 10.64 -1 12 C-1.66 11.67 -2.32 11.34 -3 11 C-2.67 8.36 -2.34 5.72 -2 3 C-2.59683594 3.40089844 -3.19367188 3.80179687 -3.80859375 4.21484375 C-17.17662048 12.97457598 -30.52420609 19.85507 -46 24 C-46 23.01 -46 22.02 -46 21 C-45.49855469 20.81566406 -44.99710938 20.63132812 -44.48046875 20.44140625 C-31.00853094 15.27754593 -18.02559742 8.8975607 -5.6875 1.43359375 C-3 0 -3 0 0 0 Z " fill="#A2A4A6" transform="translate(93,80)"/>
<path d="M0 0 C-0.875 5.75 -0.875 5.75 -2 8 C0.97 8.495 0.97 8.495 4 9 C4 10.32 4 11.64 4 13 C2.59248779 13.86916887 1.1735479 14.71985149 -0.25 15.5625 C-1.03890625 16.03816406 -1.8278125 16.51382813 -2.640625 17.00390625 C-5.30844625 18.13022151 -6.34501768 18.0169313 -9 17 C-9 16.34 -9 15.68 -9 15 C-7.02 14.01 -5.04 13.02 -3 12 C-4.65 11.67 -6.3 11.34 -8 11 C-7.34 9.35 -6.68 7.7 -6 6 C-6.5775 6.350625 -7.155 6.70125 -7.75 7.0625 C-10.35801776 8.14917407 -11.39417629 7.93065133 -14 7 C-14 6.34 -14 5.68 -14 5 C-12.61217515 4.1533966 -11.21430603 3.32324661 -9.8125 2.5 C-9.03519531 2.0359375 -8.25789062 1.571875 -7.45703125 1.09375 C-4.75896614 -0.10729647 -2.9193018 -0.20741043 0 0 Z " fill="#D8D8D8" transform="translate(137,37)"/>
<path d="M0 0 C1.65 0 3.3 0 5 0 C5.18175781 0.845625 5.36351562 1.69125 5.55078125 2.5625 C7.19335931 10.11544966 7.19335931 10.11544966 9.625 17.4375 C10.87736358 20.68226019 11.57027424 23.5621939 12 27 C10.68 27.33 9.36 27.66 8 28 C3.08635061 18.68100978 0.57295322 10.56999906 0 0 Z " fill="#565657" transform="translate(8,80)"/>
<path d="M0 0 C3.75511724 1.87755862 4.88767141 2.62027425 7 6 C7 6.66 7 7.32 7 8 C3.34442285 11.21880689 0.1428358 12.98095274 -4.75 13.0625 C-8 12 -8 12 -12 8 C-8.04 5.36 -4.08 2.72 0 0 Z " fill="#F6F6F6" transform="translate(64,67)"/>
<path d="M0 0 C2.9965969 1.31440266 4.80726703 3.42101505 6.94140625 5.8515625 C6.94140625 6.5115625 6.94140625 7.1715625 6.94140625 7.8515625 C5.29140625 7.5215625 3.64140625 7.1915625 1.94140625 6.8515625 C1.61140625 5.8615625 1.28140625 4.8715625 0.94140625 3.8515625 C0.28140625 3.8515625 -0.37859375 3.8515625 -1.05859375 3.8515625 C-0.56359375 4.6146875 -0.06859375 5.3778125 0.44140625 6.1640625 C1.94140625 8.8515625 1.94140625 8.8515625 1.94140625 11.8515625 C-0.55220946 10.64774802 -2.74002458 9.39727528 -5.05859375 7.8515625 C-4.58421875 8.5940625 -4.10984375 9.3365625 -3.62109375 10.1015625 C-2.27990048 12.46206265 -1.54628175 14.21804727 -1.05859375 16.8515625 C-5.3107915 16.37909608 -7.431741 14.07883873 -10.05859375 10.8515625 C-9.77443749 7.34223271 -8.15905846 5.4933628 -5.74609375 3.0390625 C-5.15183594 2.41386719 -4.55757813 1.78867187 -3.9453125 1.14453125 C-2.05859375 -0.1484375 -2.05859375 -0.1484375 0 0 Z " fill="#E0E0E0" transform="translate(121.05859375,20.1484375)"/>
<path d="M0 0 C1.65 0 3.3 0 5 0 C5.15384615 8 5.15384615 8 4 11 C3.01 11.495 3.01 11.495 2 12 C2.33 12.99 2.66 13.98 3 15 C2.00390625 17.91796875 2.00390625 17.91796875 0.5625 21.1875 C-0.14712891 22.81751953 -0.14712891 22.81751953 -0.87109375 24.48046875 C-1.24363281 25.31191406 -1.61617187 26.14335938 -2 27 C-2.66 26.67 -3.32 26.34 -4 26 C-4 25.34 -4 24.68 -4 24 C-3.34 24 -2.68 24 -2 24 C-2.33 22.68 -2.66 21.36 -3 20 C-3.33 20.66 -3.66 21.32 -4 22 C-4.66 21.67 -5.32 21.34 -6 21 C-5.47599609 19.22882813 -5.47599609 19.22882813 -4.94140625 17.421875 C-4.48172754 15.86459611 -4.02209452 14.30730374 -3.5625 12.75 C-3.21735352 11.58404297 -3.21735352 11.58404297 -2.86523438 10.39453125 C-2.64287109 9.64042969 -2.42050781 8.88632813 -2.19140625 8.109375 C-1.98717041 7.41811523 -1.78293457 6.72685547 -1.57250977 6.01464844 C-1.00535746 4.01885279 -0.49201996 2.01550346 0 0 Z " fill="#5D5D5E" transform="translate(137,80)"/>
<path d="M0 0 C0.33 0.66 0.66 1.32 1 2 C2.32165287 2.37699148 3.65765711 2.70503481 5 3 C7.51076176 4.14541008 9.97480441 5.32179279 12.4375 6.5625 C13.14036133 6.9145752 13.84322266 7.26665039 14.56738281 7.62939453 C20.35135801 10.57360764 25.85675743 13.85037085 31.328125 17.3359375 C33.5153288 18.69814338 35.67244349 19.90272336 38 21 C38.495 19.515 38.495 19.515 39 18 C39 19.65 39 21.3 39 23 C34.05022285 23 31.36073335 21.03778077 27.3125 18.5 C18.82384121 13.32491698 10.06463684 9.06150186 1 5 C0.67 6.32 0.34 7.64 0 9 C0 6.03 0 3.06 0 0 Z " fill="#8F9092" transform="translate(58,49)"/>
<path d="M0 0 C0 1.32 0 2.64 0 4 C-4.97011673 5.99118241 -9.12333135 6.24845695 -14.375 6.125 C-15.47908203 6.11146484 -15.47908203 6.11146484 -16.60546875 6.09765625 C-18.4037888 6.07430144 -20.20193911 6.03843836 -22 6 C-22 4.35 -22 2.7 -22 1 C-14.64479068 0.36338219 -7.38395674 -0.12515181 0 0 Z " fill="#4D4D4E" transform="translate(90,136)"/>
<path d="M0 0 C0.33 0 0.66 0 1 0 C1.15855469 0.73863281 1.31710938 1.47726563 1.48046875 2.23828125 C4.92532424 17.21674133 11.32306929 29.82015363 24 39 C27.59538566 41.14962212 31.25657291 43.12140516 35 45 C33.33203125 45.69140625 33.33203125 45.69140625 31 46 C17.03592955 39.30665536 6.44529078 27.47133696 1 13 C0.04382479 9.02782935 -0.71771134 5.07974326 -1 1 C-0.67 0.67 -0.34 0.34 0 0 Z " fill="#4A4F67" transform="translate(20,81)"/>
<path d="M0 0 C0.66 0 1.32 0 2 0 C6.125 12.375 6.125 12.375 6.09765625 17.32421875 C6.09443359 18.35224609 6.09121094 19.38027344 6.08789062 20.43945312 C6.07951172 21.51130859 6.07113281 22.58316406 6.0625 23.6875 C6.05798828 24.77095703 6.05347656 25.85441406 6.04882812 26.97070312 C6.03703743 29.64719085 6.02058063 32.32356777 6 35 C5.67 35 5.34 35 5 35 C5 33.02 5 31.04 5 29 C-0.94 29 -6.88 29 -13 29 C-13 31.31 -13 33.62 -13 36 C-13.33 36 -13.66 36 -14 36 C-14.33 28.74 -14.66 21.48 -15 14 C-11.95575313 18.56637031 -12.87216834 22.56715459 -13 28 C-7.06 28 -1.12 28 5 28 C3.63000881 16.2977756 3.63000881 16.2977756 0.5859375 4.953125 C0 3 0 3 0 0 Z " fill="#1C2139" transform="translate(144,47)"/>
<path d="M0 0 C1.875 1.5 1.875 1.5 3 3 C-0.01031744 3.93423645 -0.86650268 4.04449911 -4 3 C-2.62308038 5.75383923 -0.63279958 6.51483101 2 8 C1.125 12.875 1.125 12.875 0 14 C-6.52542373 14.23728814 -6.52542373 14.23728814 -9 13 C-9 12.01 -9 11.02 -9 10 C-6.69 10.33 -4.38 10.66 -2 11 C-2 10.34 -2 9.68 -2 9 C-2.804375 8.690625 -3.60875 8.38125 -4.4375 8.0625 C-7 7 -7 7 -8 6 C-8.04063832 4.33382885 -8.042721 2.66611905 -8 1 C-5.20129973 -0.39935013 -3.09501208 -0.25265405 0 0 Z " fill="#E6E6E6" transform="translate(87,4)"/>
<path d="M0 0 C2.52588702 2.36292656 3.88820837 3.66462511 5 7 C4.01 8.485 4.01 8.485 3 10 C3 9.01 3 8.02 3 7 C0.22947819 6.07649273 -1.56688758 5.83670415 -4.4375 5.8125 C-5.58025391 5.79123047 -5.58025391 5.79123047 -6.74609375 5.76953125 C-9.26290392 6.02688272 -10.75552055 6.87132295 -13 8 C-15.578125 8.4140625 -15.578125 8.4140625 -18.25 8.625 C-19.14203125 8.69976562 -20.0340625 8.77453125 -20.953125 8.8515625 C-21.62859375 8.90054688 -22.3040625 8.94953125 -23 9 C-22.67 7.02 -22.34 5.04 -22 3 C-21.67 3.66 -21.34 4.32 -21 5 C-20.34644531 4.68289062 -19.69289063 4.36578125 -19.01953125 4.0390625 C-15.20704555 2.7271334 -11.69110429 2.54673638 -7.6875 2.375 C-6.94693359 2.33632813 -6.20636719 2.29765625 -5.44335938 2.2578125 C-3.62928691 2.16418295 -1.81467884 2.08103149 0 2 C0 1.34 0 0.68 0 0 Z " fill="#C5C7C9" transform="translate(118,42)"/>
<path d="M0 0 C-1 3 -1 3 -2.62915039 3.93603516 C-9.27256772 6.17934514 -15.46246424 6.45049648 -22.4375 6.375 C-23.50548828 6.38660156 -24.57347656 6.39820313 -25.67382812 6.41015625 C-32.59916423 6.38477322 -38.49907462 5.39455146 -45 3 C-42 1 -42 1 -39.28515625 1.4609375 C-38.22167969 1.76257813 -37.15820312 2.06421875 -36.0625 2.375 C-22.26863459 5.80052755 -13.01238285 0 0 0 Z " fill="#4F546C" transform="translate(98,125)"/>
<path d="M0 0 C0.103125 0.639375 0.20625 1.27875 0.3125 1.9375 C0.6528125 2.9584375 0.6528125 2.9584375 1 4 C1.99 4.33 2.98 4.66 4 5 C3.2575 5.37125 2.515 5.7425 1.75 6.125 C-1.55667629 8.37955202 -3.10397807 10.48884828 -5 14 C-5.33709062 16.75258812 -5.33709062 16.75258812 -5 19 C0.39729256 20.03352411 5.6077386 20.33070829 11 19 C11.33 18.34 11.66 17.68 12 17 C12 18.32 12 19.64 12 21 C6.63904667 22.12862175 1.44693314 22.09688221 -4 22 C-4.33 22.66 -4.66 23.32 -5 24 C-8.22722529 19.90055166 -8.22722529 19.90055166 -9 17 C-7.64888487 12.76176518 -5.05091623 9.36368892 -2.359375 5.87109375 C-0.92460802 3.89622771 -0.42559816 2.38334972 0 0 Z " fill="#D8D9DA" transform="translate(35,83)"/>
<path d="M0 0 C7.65217391 1.2173913 7.65217391 1.2173913 10 2 C10.33 2.66 10.66 3.32 11 4 C11.99 2.68 12.98 1.36 14 0 C14.66 0.33 15.32 0.66 16 1 C15.65066406 1.85722656 15.30132812 2.71445312 14.94140625 3.59765625 C11.53421868 12.07082739 11.53421868 12.07082739 10 21 C9.67 21 9.34 21 9 21 C8.85714286 12.42857143 8.85714286 12.42857143 10 9 C8.68 9 7.36 9 6 9 C6.33 7.35 6.66 5.7 7 4 C4.03 3.505 4.03 3.505 1 3 C0.67 2.01 0.34 1.02 0 0 Z " fill="#373B4C" transform="translate(11,48)"/>
<path d="M0 0 C0.15855469 0.58007812 0.31710938 1.16015625 0.48046875 1.7578125 C3.25821359 11.0578864 8.27082704 15.44639693 15.79296875 21.265625 C18 23 18 23 20 25 C19.34 25 18.68 25 18 25 C17.67 25.66 17.34 26.32 17 27 C16.505 26.319375 16.01 25.63875 15.5 24.9375 C13.47405353 22.5570129 11.62748096 20.78749402 9.25 18.8125 C4.47393014 14.75463613 0.76870746 9.98150959 -3 5 C-3.99 5.33 -4.98 5.66 -6 6 C-5.75 4.125 -5.75 4.125 -5 2 C-1.8 0 -1.8 0 0 0 Z " fill="#D2D3D5" transform="translate(30,49)"/>
<path d="M0 0 C1.2065625 0.0309375 1.2065625 0.0309375 2.4375 0.0625 C2.7675 1.7125 3.0975 3.3625 3.4375 5.0625 C4.4275 5.0625 5.4175 5.0625 6.4375 5.0625 C6.4375 5.7225 6.4375 6.3825 6.4375 7.0625 C4.7875 7.0625 3.1375 7.0625 1.4375 7.0625 C1.7675 8.3825 2.0975 9.7025 2.4375 11.0625 C-0.81793229 10.71370368 -1.58123107 10.04116739 -3.8125 7.5 C-4.39 6.695625 -4.9675 5.89125 -5.5625 5.0625 C-3.15007962 0.07683121 -3.15007962 0.07683121 0 0 Z " fill="#D7D7D7" transform="translate(30.5625,24.9375)"/>
<path d="M0 0 C3.48670834 1.1094072 6.77484237 2.26337666 10 4 C10 4.99 10 5.98 10 7 C8.68 7 7.36 7 6 7 C4.68 9.64 3.36 12.28 2 15 C1.01 15 0.02 15 -1 15 C-0.44894091 11.0507432 0.38935371 7.65079826 2 4 C1.01 3.67 0.02 3.34 -1 3 C-0.67 2.01 -0.34 1.02 0 0 Z " fill="#E2E2E2" transform="translate(100,8)"/>
<path d="M0 0 C1.32 0.33 2.64 0.66 4 1 C4 4 4 4 2.66015625 5.4609375 C2.11230469 5.96882813 1.56445312 6.47671875 1 7 C0.13045646 8.1973154 -0.72268816 9.40664611 -1.5625 10.625 C-5.62153508 16.09454977 -11.04646904 22.93876012 -17.80859375 24.75390625 C-18.53175781 24.83511719 -19.25492187 24.91632813 -20 25 C-17.49946104 22.39527192 -14.87210241 20.02411585 -12.125 17.6875 C-6.05878505 12.37956191 -1.6442853 8.05699798 0 0 Z " fill="#D1D2D4" transform="translate(120,49)"/>
<path d="M0 0 C0.33 0.99 0.66 1.98 1 3 C3.31 3 5.62 3 8 3 C8 4.32 8 5.64 8 7 C6.59248779 7.86916887 5.1735479 8.71985149 3.75 9.5625 C2.96109375 10.03816406 2.1721875 10.51382813 1.359375 11.00390625 C-1.30844625 12.13022151 -2.34501768 12.0169313 -5 11 C-5 10.34 -5 9.68 -5 9 C-3.02 8.01 -1.04 7.02 1 6 C0.01 5.01 -0.98 4.02 -2 3 C-1.34 2.01 -0.68 1.02 0 0 Z " fill="#F3F3F3" transform="translate(133,43)"/>
<path d="M0 0 C0 2.31 0 4.62 0 7 C0.66 7.33 1.32 7.66 2 8 C1.34 8 0.68 8 0 8 C-0.33 9.32 -0.66 10.64 -1 12 C-1.66 11.67 -2.32 11.34 -3 11 C-2.67 8.36 -2.34 5.72 -2 3 C-2.58007812 3.433125 -3.16015625 3.86625 -3.7578125 4.3125 C-11.51669596 9.84358524 -11.51669596 9.84358524 -17 9 C-14.51596528 6.20546094 -11.77067154 4.59290588 -8.5 2.8125 C-7.5409375 2.28269531 -6.581875 1.75289063 -5.59375 1.20703125 C-3 0 -3 0 0 0 Z " fill="#97989A" transform="translate(93,80)"/>
<path d="M0 0 C0.33 0.66 0.66 1.32 1 2 C2.65 2 4.3 2 6 2 C6 2.66 6 3.32 6 4 C8.97 4.33 11.94 4.66 15 5 C14.34 6.65 13.68 8.3 13 10 C12.34 10 11.68 10 11 10 C10.67 9.34 10.34 8.68 10 8 C8.00532821 7.77110324 6.01011162 7.54530256 4.01171875 7.3515625 C1.411132 6.89709103 -0.11143894 5.80987102 -2 4 C-1.34 4 -0.68 4 0 4 C0 2.68 0 1.36 0 0 Z " fill="#3B3C3C" transform="translate(45,130)"/>
<path d="M0 0 C1.32 0 2.64 0 4 0 C4 0.99 4 1.98 4 3 C5.32 3.66 6.64 4.32 8 5 C7.67 6.65 7.34 8.3 7 10 C5.02 10.33 3.04 10.66 1 11 C1.33 10.01 1.66 9.02 2 8 C0.68 7.34 -0.64 6.68 -2 6 C-1.125 1.125 -1.125 1.125 0 0 Z " fill="#CDCDCD" transform="translate(39,16)"/>
<path d="M0 0 C0 0.66 0 1.32 0 2 C-1.32 2.33 -2.64 2.66 -4 3 C-2.35 3.33 -0.7 3.66 1 4 C0.67 4.99 0.34 5.98 0 7 C0.66 7.33 1.32 7.66 2 8 C2 8.66 2 9.32 2 10 C-0.31 10.66 -2.62 11.32 -5 12 C-5.99 8.7 -6.98 5.4 -8 2 C-5.09399739 0.74335022 -3.20395416 0 0 0 Z " fill="#D3D3D3" transform="translate(57,10)"/>
<path d="M0 0 C0.66 0 1.32 0 2 0 C1.67 1.32 1.34 2.64 1 4 C2.32 3.67 3.64 3.34 5 3 C4.34 4.65 3.68 6.3 3 8 C3.61875 7.34 4.2375 6.68 4.875 6 C7 4 7 4 9 4 C7.125 8.75 7.125 8.75 6 11 C2.17902761 10.46930939 -0.06171403 9.50298434 -3 7 C-2.25 2.25 -2.25 2.25 0 0 Z " fill="#D0D0D0" transform="translate(19,35)"/>
<path d="M0 0 C2.62187494 1.04874998 3.79371361 1.64931313 5.25 4.125 C5.4975 4.74375 5.745 5.3625 6 6 C6.66 6 7.32 6 8 6 C8 6.66 8 7.32 8 8 C8.66 8 9.32 8 10 8 C10 8.66 10 9.32 10 10 C10.66 10.33 11.32 10.66 12 11 C11.4225 10.814375 10.845 10.62875 10.25 10.4375 C7.79307475 9.95976454 6.35602466 10.24270636 4 11 C3.67 10.01 3.34 9.02 3 8 C2.34 8 1.68 8 1 8 C0 5 0 5 0 4 C-0.66 4 -1.32 4 -2 4 C-2 3.34 -2 2.68 -2 2 C-1.34 2 -0.68 2 0 2 C0 1.34 0 0.68 0 0 Z " fill="#49494A" transform="translate(24,113)"/>
<path d="M0 0 C1.65 0 3.3 0 5 0 C5.2236337 1.41433206 5.42826476 2.83167618 5.625 4.25 C5.74101562 5.03890625 5.85703125 5.8278125 5.9765625 6.640625 C6.00319395 9.32152459 5.36592084 10.72694089 4 13 C4.66 13.66 5.32 14.32 6 15 C5.01 15.66 4.02 16.32 3 17 C0.74566386 11.43930418 0.40038172 5.9214349 0 0 Z " fill="#3D3D3D" transform="translate(8,80)"/>
<path d="M0 0 C1.32 0 2.64 0 4 0 C3.43805839 4.14062238 1.1730478 6.59228139 -1.4375 9.75 C-2.24058594 10.73484375 -3.04367188 11.7196875 -3.87109375 12.734375 C-4.57363281 13.48203125 -5.27617187 14.2296875 -6 15 C-6.66 15 -7.32 15 -8 15 C-8.33 15.66 -8.66 16.32 -9 17 C-9.33 15.68 -9.66 14.36 -10 13 C-9.34 13 -8.68 13 -8 13 C-7.71125 12.21625 -7.4225 11.4325 -7.125 10.625 C-6 8 -6 8 -4 6 C-3.34 6 -2.68 6 -2 6 C-2 5.01 -2 4.02 -2 3 C-1.34 3 -0.68 3 0 3 C0 2.01 0 1.02 0 0 Z " fill="#222533" transform="translate(33,33)"/>
<path d="M0 0 C3.39192363 0.59283621 5.2107757 1.76743189 7.75 4.0625 C8.67039062 4.88427734 8.67039062 4.88427734 9.609375 5.72265625 C10.29773438 6.35494141 10.29773438 6.35494141 11 7 C10.34 7.66 9.68 8.32 9 9 C8.4225 8.484375 7.845 7.96875 7.25 7.4375 C5.12172477 5.73494807 5.12172477 5.73494807 2.75 6.3125 C2.1725 6.539375 1.595 6.76625 1 7 C0.67 9.64 0.34 12.28 0 15 C-0.33 15 -0.66 15 -1 15 C-1.10251672 9.87416389 -1.03590199 5.05002222 0 0 Z " fill="#C3C4C5" transform="translate(96,72)"/>
<path d="M0 0 C0.66 0.33 1.32 0.66 2 1 C2 3.64 2 6.28 2 9 C-1.99455527 8.38545304 -4.74466336 6.29353263 -8 4 C-7.34 3.67 -6.68 3.34 -6 3 C-6 2.34 -6 1.68 -6 1 C-3.03 1.495 -3.03 1.495 0 2 C0 1.34 0 0.68 0 0 Z " fill="#1D1D1D" transform="translate(94,61)"/>
<path d="M0 0 C0.99 0.33 1.98 0.66 3 1 C2.58221009 6.7097955 0.42453429 9.60957142 -3 14 C-4.32 13.67 -5.64 13.34 -7 13 C-7 12.01 -7 11.02 -7 10 C-6.21625 9.835 -5.4325 9.67 -4.625 9.5 C-1.8906529 8.29603101 -1.8906529 8.29603101 -1.22265625 6.0859375 C-0.73586948 4.07483301 -0.36146745 2.037362 0 0 Z " fill="#4D4D4D" transform="translate(89,89)"/>
<path d="M0 0 C-0.66 1.65 -1.32 3.3 -2 5 C-0.02 5 1.96 5 4 5 C2.71567636 7.56864728 1.63365249 7.946539 -1 9 C-2.32 9 -3.64 9 -5 9 C-5.66 7.02 -6.32 5.04 -7 3 C-3.375 0 -3.375 0 0 0 Z " fill="#1C1C1C" transform="translate(131,43)"/>
<path d="M0 0 C0.99 0 1.98 0 3 0 C2.34 3.63 1.68 7.26 1 11 C0.01 11 -0.98 11 -2 11 C-2.66 8.69 -3.32 6.38 -4 4 C-4.66 4 -5.32 4 -6 4 C-6 3.01 -6 2.02 -6 1 C-5.01 1 -4.02 1 -3 1 C-2.34 1.66 -1.68 2.32 -1 3 C-0.67 2.01 -0.34 1.02 0 0 Z " fill="#DADADA" transform="translate(69,7)"/>
<path d="M0 0 C0.165 0.598125 0.33 1.19625 0.5 1.8125 C2.81276204 5.18527798 6.19891337 5.8331548 10 7 C10 7.99 10 8.98 10 10 C8.35 10 6.7 10 5 10 C5 9.34 5 8.68 5 8 C2.36 7.67 -0.28 7.34 -3 7 C-2.01 4.69 -1.02 2.38 0 0 Z " fill="#A8A9A9" transform="translate(91,93)"/>
<path d="M0 0 C0.99 0.66 1.98 1.32 3 2 C2.67 2.99 2.34 3.98 2 5 C1.34 5 0.68 5 0 5 C0.33 6.32 0.66 7.64 1 9 C0.34 9 -0.32 9 -1 9 C-1 9.66 -1 10.32 -1 11 C-1.66 11 -2.32 11 -3 11 C-3.33 11.66 -3.66 12.32 -4 13 C-4.66 12.34 -5.32 11.68 -6 11 C-5.34 11 -4.68 11 -4 11 C-3.67 8.69 -3.34 6.38 -3 4 C-2.01 3.67 -1.02 3.34 0 3 C0 2.01 0 1.02 0 0 Z " fill="#222222" transform="translate(133,99)"/>
<path d="M0 0 C0.33 0.66 0.66 1.32 1 2 C5.455 1.505 5.455 1.505 10 1 C9.67 2.32 9.34 3.64 9 5 C5.7 5.33 2.4 5.66 -1 6 C-0.67 4.02 -0.34 2.04 0 0 Z " fill="#BCBEBF" transform="translate(96,45)"/>
<path d="M0 0 C0.8971875 0.309375 0.8971875 0.309375 1.8125 0.625 C1.8125 1.945 1.8125 3.265 1.8125 4.625 C0.4925 4.625 -0.8275 4.625 -2.1875 4.625 C-2.1875 5.285 -2.1875 5.945 -2.1875 6.625 C-3.5075 6.955 -4.8275 7.285 -6.1875 7.625 C-6.5175 6.305 -6.8475 4.985 -7.1875 3.625 C-6.5275 3.625 -5.8675 3.625 -5.1875 3.625 C-5.1875 2.965 -5.1875 2.305 -5.1875 1.625 C-2.1875 -0.375 -2.1875 -0.375 0 0 Z " fill="#343435" transform="translate(111.1875,126.375)"/>
<path d="M0 0 C0.33 0.66 0.66 1.32 1 2 C1.58007812 1.90460937 2.16015625 1.80921875 2.7578125 1.7109375 C7.76088419 1.00093063 11.24022962 0.92522829 16 3 C16 3.33 16 3.66 16 4 C8.74 4 1.48 4 -6 4 C-3 2 -3 2 0 2 C0 1.34 0 0.68 0 0 Z " fill="#171A2B" transform="translate(70,16)"/>
<path d="M0 0 C0.33 0 0.66 0 1 0 C1.18175781 0.76183594 1.36351562 1.52367188 1.55078125 2.30859375 C3.09673563 8.65889864 4.84093336 14.83123818 7 21 C6.34 21 5.68 21 5 21 C1.28933566 14.56818182 -0.39430997 8.42267194 -1 1 C-0.67 0.67 -0.34 0.34 0 0 Z " fill="#555B71" transform="translate(20,81)"/>
<path d="M0 0 C0.33 0.66 0.66 1.32 1 2 C2.32313249 2.3717651 3.6593034 2.6976401 5 3 C6.59586121 3.65789642 8.17936107 4.34647343 9.75 5.0625 C10.54921875 5.42472656 11.3484375 5.78695312 12.171875 6.16015625 C12.77515625 6.43730469 13.3784375 6.71445312 14 7 C12.296875 8.1171875 12.296875 8.1171875 10 9 C7.640625 8.3203125 7.640625 8.3203125 5.25 7.125 C4.05117188 6.54105469 4.05117188 6.54105469 2.828125 5.9453125 C2.22484375 5.63335937 1.6215625 5.32140625 1 5 C0.67 6.32 0.34 7.64 0 9 C0 6.03 0 3.06 0 0 Z " fill="#818283" transform="translate(58,49)"/>
<path d="M0 0 C2.125 0.9375 2.125 0.9375 4 2 C0.77621244 4.1491917 -1.98414648 5.024994 -5.6875 6.125 C-6.86699219 6.47820312 -8.04648437 6.83140625 -9.26171875 7.1953125 C-10.16535156 7.46085937 -11.06898437 7.72640625 -12 8 C-12 7.01 -12 6.02 -12 5 C-11.30132812 4.72285156 -10.60265625 4.44570312 -9.8828125 4.16015625 C-8.97273438 3.79792969 -8.06265625 3.43570313 -7.125 3.0625 C-6.22007813 2.70285156 -5.31515625 2.34320313 -4.3828125 1.97265625 C-2.03862333 1.05098738 -2.03862333 1.05098738 0 0 Z " fill="#828385" transform="translate(59,96)"/>
<path d="M0 0 C0.33 0 0.66 0 1 0 C1.22328552 3.02038922 1.42901467 6.04031711 1.625 9.0625 C1.68945312 9.91005859 1.75390625 10.75761719 1.8203125 11.63085938 C2.14768288 16.93016735 1.78150476 20.98866791 0 26 C-0.66 25.67 -1.32 25.34 -2 25 C-1.84660156 24.03964844 -1.69320312 23.07929687 -1.53515625 22.08984375 C-0.89288765 17.59396353 -0.66031389 13.09548428 -0.4375 8.5625 C-0.39431641 7.73556641 -0.35113281 6.90863281 -0.30664062 6.05664062 C-0.20161967 4.03790451 -0.10041441 2.01897049 0 0 Z " fill="#797D8F" transform="translate(129,67)"/>
<path d="M0 0 C3 3 6 6 9 9 C8.01 10.485 8.01 10.485 7 12 C6.2265625 10.9171875 6.2265625 10.9171875 5.4375 9.8125 C2.56617403 6.49943158 -0.3706338 4.44284263 -4 2 C-2.68 1.34 -1.36 0.68 0 0 Z " fill="#383C4F" transform="translate(110,29)"/>
<path d="M0 0 C0.5534764 2.07553648 1 3.84365964 1 6 C-6.26 5.67 -13.52 5.34 -21 5 C-21 4.67 -21 4.34 -21 4 C-16.05 3.67 -11.1 3.34 -6 3 C-6 2.67 -6 2.34 -6 2 C-4.02 1.34 -2.04 0.68 0 0 Z " fill="#6F727F" transform="translate(88,16)"/>
<path d="M0 0 C2.31 0 4.62 0 7 0 C7 0.99 7 1.98 7 3 C4.47524538 4.26237731 2.68799534 4.09856404 -0.125 4.0625 C-1.03507812 4.05347656 -1.94515625 4.04445312 -2.8828125 4.03515625 C-3.58148438 4.02355469 -4.28015625 4.01195312 -5 4 C-4.67 3.01 -4.34 2.02 -4 1 C-4 1.66 -4 2.32 -4 3 C-2.68 3 -1.36 3 0 3 C0 2.01 0 1.02 0 0 Z " fill="#313131" transform="translate(82,137)"/>
<path d="M0 0 C0.33 1.65 0.66 3.3 1 5 C-1.31 5.33 -3.62 5.66 -6 6 C-6 4.35 -6 2.7 -6 1 C-3 0 -3 0 0 0 Z " fill="#393939" transform="translate(96,134)"/>
<path d="M0 0 C3.73487777 0.4979837 5.81237635 0.87491756 9 3 C9.1875 5.625 9.1875 5.625 9 8 C8.01 8.33 7.02 8.66 6 9 C6.33 7.35 6.66 5.7 7 4 C4.03 3.505 4.03 3.505 1 3 C0.67 2.01 0.34 1.02 0 0 Z " fill="#D6D6D6" transform="translate(11,48)"/>
<path d="M0 0 C3.2578125 0.4609375 3.2578125 0.4609375 7.125 1.375 C8.40632813 1.67148438 9.68765625 1.96796875 11.0078125 2.2734375 C12.48894531 2.63308594 12.48894531 2.63308594 14 3 C13.67 3.66 13.34 4.32 13 5 C7.72684667 4.5547115 2.98229776 3.91626837 -2 2 C-1.34 1.34 -0.68 0.68 0 0 Z " fill="#5F6479" transform="translate(55,126)"/>
<path d="M0 0 C5.65253308 1.37031105 8.5113541 5.67689413 12 10 C11.67 10.66 11.34 11.32 11 12 C10.45730469 11.44570312 9.91460937 10.89140625 9.35546875 10.3203125 C8.64003906 9.59585938 7.92460938 8.87140625 7.1875 8.125 C6.12595703 7.04605469 6.12595703 7.04605469 5.04296875 5.9453125 C2.95600806 3.84641063 2.95600806 3.84641063 0 2 C0 1.34 0 0.68 0 0 Z " fill="#D0D1D3" transform="translate(106,80)"/>
<path d="M0 0 C-1.875 4.75 -1.875 4.75 -3 7 C-4.65 6.67 -6.3 6.34 -8 6 C-8.33 4.68 -8.66 3.36 -9 2 C-8.01 2 -7.02 2 -6 2 C-6 2.66 -6 3.32 -6 4 C-5.38125 3.34 -4.7625 2.68 -4.125 2 C-2 0 -2 0 0 0 Z " fill="#DDDDDD" transform="translate(28,39)"/>
<path d="M0 0 C4.12751449 0.60698743 7.3321148 2.03810791 11 4 C10.34 5.65 9.68 7.3 9 9 C8.34 8.67 7.68 8.34 7 8 C7.33 7.01 7.66 6.02 8 5 C7.05125 4.690625 6.1025 4.38125 5.125 4.0625 C2 3 2 3 0 2 C0 1.34 0 0.68 0 0 Z " fill="#393B40" transform="translate(102,7)"/>
<path d="M0 0 C0.33 0.66 0.66 1.32 1 2 C2.65 2 4.3 2 6 2 C6 3.65 6 5.3 6 7 C2.62537285 6.45276317 0.91765 5.9451 -2 4 C-1.34 4 -0.68 4 0 4 C0 2.68 0 1.36 0 0 Z " fill="#5A5B5B" transform="translate(45,130)"/>
<path d="M0 0 C2 1 2 1 3 3 C-0.85756507 5.15305957 -3.55129785 6.39253254 -8 6 C-5.54080489 3.3651481 -3.42227589 1.25483449 0 0 Z " fill="#9B9C9E" transform="translate(68,92)"/>
<path d="M0 0 C0.33 1.32 0.66 2.64 1 4 C-2 6 -2 6 -6 6 C-5.67 5.01 -5.34 4.02 -5 3 C-5.99 2.34 -6.98 1.68 -8 1 C-6.865625 1.020625 -5.73125 1.04125 -4.5625 1.0625 C-1.18424326 1.41577477 -1.18424326 1.41577477 0 0 Z " fill="#B9B9B9" transform="translate(46,21)"/>
<path d="M0 0 C1.32 0 2.64 0 4 0 C3.44894091 3.9492568 2.61064629 7.34920174 1 11 C0.34 10.67 -0.32 10.34 -1 10 C-1 9.34 -1 8.68 -1 8 C-0.34 8 0.32 8 1 8 C0.67 5.36 0.34 2.72 0 0 Z " fill="#494949" transform="translate(134,96)"/>
<path d="M0 0 C1.60875 0.928125 1.60875 0.928125 3.25 1.875 C5.79780984 3.3323679 8.35259355 4.72924491 11 6 C10.01 6.495 10.01 6.495 9 7 C8.01 8.485 8.01 8.485 7 10 C6.79375 9.4225 6.5875 8.845 6.375 8.25 C4.50249112 5.18589456 2.03041481 3.84460032 -1 2 C-0.67 1.34 -0.34 0.68 0 0 Z " fill="#C3C5C6" transform="translate(51,75)"/>
<path d="M0 0 C-1 3 -1 3 -4 5 C-6.1875 4.625 -6.1875 4.625 -8 4 C-8 3.34 -8 2.68 -8 2 C-4.91190305 0.23537317 -3.76687864 0 0 0 Z " fill="#E3E3E3" transform="translate(131,40)"/>
<path d="M0 0 C1.32 0 2.64 0 4 0 C4 0.99 4 1.98 4 3 C4.66 3 5.32 3 6 3 C6 2.34 6 1.68 6 1 C7.32 0.67 8.64 0.34 10 0 C5.25 4.875 5.25 4.875 3 6 C3 5.34 3 4.68 3 4 C1.35 4.33 -0.3 4.66 -2 5 C-2 4.34 -2 3.68 -2 3 C-0.35 3 1.3 3 3 3 C3 2.34 3 1.68 3 1 C2.01 0.67 1.02 0.34 0 0 Z " fill="#3A3D4A" transform="translate(34,29)"/>
<path d="M0 0 C0.33 0.66 0.66 1.32 1 2 C2.32 2 3.64 2 5 2 C5 2.99 5 3.98 5 5 C5.66 5.33 6.32 5.66 7 6 C6.01 6.33 5.02 6.66 4 7 C3.01 6.34 2.02 5.68 1 5 C1 4.34 1 3.68 1 3 C0.01 2.67 -0.98 2.34 -2 2 C-1.34 1.34 -0.68 0.68 0 0 Z " fill="#222222" transform="translate(32,122)"/>
<path d="M0 0 C0.66 0 1.32 0 2 0 C2.33 0.66 2.66 1.32 3 2 C5.3140622 2.73075648 7.64828869 3.40138258 10 4 C10 4.33 10 4.66 10 5 C5.71 5 1.42 5 -3 5 C-1.68 4.67 -0.36 4.34 1 4 C0.67 2.68 0.34 1.36 0 0 Z " fill="#D1D1D2" transform="translate(100,99)"/>
<path d="M0 0 C1.32 0 2.64 0 4 0 C5.60725635 3.21451269 5.05748185 6.43612536 5 10 C4.34 10 3.68 10 3 10 C1.97147292 6.91441876 2 5.22643349 2 2 C1.34 1.34 0.68 0.68 0 0 Z " fill="#202121" transform="translate(10,89)"/>
<path d="M0 0 C1.65 0.33 3.3 0.66 5 1 C5 3.64 5 6.28 5 9 C4.938125 8.071875 4.938125 8.071875 4.875 7.125 C4.58625 6.42375 4.2975 5.7225 4 5 C1.00384054 3.6954344 1.00384054 3.6954344 -2 3 C-1.34 2.67 -0.68 2.34 0 2 C0 1.34 0 0.68 0 0 Z " fill="#C9CACC" transform="translate(53,48)"/>
<path d="M0 0 C1.21236328 0.01353516 1.21236328 0.01353516 2.44921875 0.02734375 C3.37154297 0.04474609 3.37154297 0.04474609 4.3125 0.0625 C3.9825 1.3825 3.6525 2.7025 3.3125 4.0625 C3.3125 3.0725 3.3125 2.0825 3.3125 1.0625 C1.0025 1.0625 -1.3075 1.0625 -3.6875 1.0625 C-3.6875 2.0525 -3.6875 3.0425 -3.6875 4.0625 C-5.0075 4.0625 -6.3275 4.0625 -7.6875 4.0625 C-7.6875 3.0725 -7.6875 2.0825 -7.6875 1.0625 C-4.80538698 0.10179566 -2.98899956 -0.04331883 0 0 Z " fill="#5D5E5E" transform="translate(85.6875,135.9375)"/>
<path d="M0 0 C0 0.99 0 1.98 0 3 C-3 5 -3 5 -5.1875 4.625 C-5.785625 4.41875 -6.38375 4.2125 -7 4 C-7 3.34 -7 2.68 -7 2 C-4 0 -4 0 0 0 Z " fill="#DCDCDC" transform="translate(135,50)"/>
<path d="M0 0 C1.32 0.66 2.64 1.32 4 2 C4 3.32 4 4.64 4 6 C3.01 6.33 2.02 6.66 1 7 C0.67 6.01 0.34 5.02 0 4 C-0.66 4 -1.32 4 -2 4 C-2 3.34 -2 2.68 -2 2 C-1.34 2 -0.68 2 0 2 C0 1.34 0 0.68 0 0 Z " fill="#2B2C2C" transform="translate(24,113)"/>
<path d="M0 0 C0.33 0 0.66 0 1 0 C1 2.31 1 4.62 1 7 C1.66 7.33 2.32 7.66 3 8 C2.34 8 1.68 8 1 8 C0.67 9.32 0.34 10.64 0 12 C-0.66 11.67 -1.32 11.34 -2 11 C-1.40049704 7.31733897 -0.75241109 3.65456815 0 0 Z " fill="#C3C3C3" transform="translate(92,80)"/>
<path d="M0 0 C0.33 0 0.66 0 1 0 C1.33 2.97 1.66 5.94 2 9 C0.68 9 -0.64 9 -2 9 C-1.125 2.25 -1.125 2.25 0 0 Z " fill="#6C6D6D" transform="translate(12,80)"/>
<path d="M0 0 C0.66 0 1.32 0 2 0 C3 3 3 3 2.0625 5.1875 C1.5365625 6.0846875 1.5365625 6.0846875 1 7 C0.01 7 -0.98 7 -2 7 C-1.125 2.25 -1.125 2.25 0 0 Z " fill="#7A7B7B" transform="translate(116,120)"/>
<path d="M0 0 C0.68707555 2.49064888 1 4.37886292 1 7 C-2 9 -2 9 -4 9 C-3.125 4.25 -3.125 4.25 -2 2 C-1.34 2 -0.68 2 0 2 C0 1.34 0 0.68 0 0 Z " fill="#4A4B4B" transform="translate(128,107)"/>
<path d="M0 0 C2.88437779 1.29299694 4.87219421 2.65941363 7 5 C6.34 5 5.68 5 5 5 C4.67 5.99 4.34 6.98 4 8 C0 3.375 0 3.375 0 0 Z " fill="#404040" transform="translate(116,28)"/>
<path d="M0 0 C0.99 0 1.98 0 3 0 C2.34 3.63 1.68 7.26 1 11 C0.01 10.67 -0.98 10.34 -2 10 C-1.34 10 -0.68 10 0 10 C0 8.35 0 6.7 0 5 C-0.66 4.67 -1.32 4.34 -2 4 C-1.34 2.68 -0.68 1.36 0 0 Z " fill="#B4B4B4" transform="translate(69,7)"/>
<path d="M0 0 C0.33 1.32 0.66 2.64 1 4 C-1.31 4 -3.62 4 -6 4 C-6 3.34 -6 2.68 -6 2 C-3 0 -3 0 0 0 Z " fill="#07070A" transform="translate(141,41)"/>
<path d="M0 0 C1.32 0 2.64 0 4 0 C3.34 1.98 2.68 3.96 2 6 C1.01 6 0.02 6 -1 6 C-0.67 4.02 -0.34 2.04 0 0 Z " fill="#EAEAEA" transform="translate(100,17)"/>
<path d="M0 0 C0.33 0.66 0.66 1.32 1 2 C3.31 2 5.62 2 8 2 C5.03312999 3.64826111 2.34373475 4.44271087 -1 5 C-1 4.34 -1 3.68 -1 3 C-1.66 2.67 -2.32 2.34 -3 2 C-2.01 2 -1.02 2 0 2 C0 1.34 0 0.68 0 0 Z " fill="#3F4254" transform="translate(59,18)"/>
<path d="M0 0 C0 0.66 0 1.32 0 2 C-0.639375 2.12375 -1.27875 2.2475 -1.9375 2.375 C-2.618125 2.58125 -3.29875 2.7875 -4 3 C-4.33 3.66 -4.66 4.32 -5 5 C-5.99 4.67 -6.98 4.34 -8 4 C-7.67 3.01 -7.34 2.02 -7 1 C-4.52260646 0.09162237 -2.66420516 0 0 0 Z " fill="#C6C6C6" transform="translate(57,10)"/>
<path d="M0 0 C1.32 0.33 2.64 0.66 4 1 C4 2.32 4 3.64 4 5 C2.68 4.67 1.36 4.34 0 4 C0 2.68 0 1.36 0 0 Z " fill="#3C3C3C" transform="translate(109,126)"/>
<path d="M0 0 C0.66 0 1.32 0 2 0 C0.79618552 2.49361571 -0.45428722 4.68143083 -2 7 C-2.99 6.67 -3.98 6.34 -5 6 C-3.38405168 3.95880212 -1.7143618 1.95927063 0 0 Z " fill="#575C73" transform="translate(121,104)"/>
<path d="M0 0 C0 1.32 0 2.64 0 4 C-1.32 4.33 -2.64 4.66 -4 5 C-4.33 3.68 -4.66 2.36 -5 1 C-2 0 -2 0 0 0 Z " fill="#3B3B3B" transform="translate(20,103)"/>
<path d="M0 0 C1.65 0 3.3 0 5 0 C4.67 1.32 4.34 2.64 4 4 C2.68 3.67 1.36 3.34 0 3 C0 2.01 0 1.02 0 0 Z " fill="#7B7B7B" transform="translate(101,46)"/>
<path d="M0 0 C3 0 3 0 4.6875 1.3125 C6 3 6 3 6 6 C3.37812506 4.95125002 2.20628639 4.35068687 0.75 1.875 C0.5025 1.25625 0.255 0.6375 0 0 Z " fill="#F2F2F2" transform="translate(25,28)"/>
<path d="M0 0 C2 0 2 0 3.5 1.375 C3.995 1.91125 4.49 2.4475 5 3 C5.66 3.66 6.32 4.32 7 5 C6.01 5 5.02 5 4 5 C3.67 5.66 3.34 6.32 3 7 C0 3.375 0 3.375 0 0 Z " fill="#414141" transform="translate(120,24)"/>
<path d="M0 0 C2.64 0 5.28 0 8 0 C8 0.66 8 1.32 8 2 C6.68 2 5.36 2 4 2 C4 2.66 4 3.32 4 4 C2.68 3.67 1.36 3.34 0 3 C0 2.01 0 1.02 0 0 Z " fill="#D2D2D2" transform="translate(78,14)"/>
<path d="M0 0 C0.66 0 1.32 0 2 0 C2 0.66 2 1.32 2 2 C2.66 2 3.32 2 4 2 C4 2.66 4 3.32 4 4 C4.66 4.33 5.32 4.66 6 5 C3.69 4.67 1.38 4.34 -1 4 C-0.67 2.68 -0.34 1.36 0 0 Z " fill="#656666" transform="translate(30,119)"/>
<path d="M0 0 C1.32 0.66 2.64 1.32 4 2 C3.67 2.99 3.34 3.98 3 5 C2.01 5 1.02 5 0 5 C0 4.34 0 3.68 0 3 C-0.66 2.67 -1.32 2.34 -2 2 C-1.34 1.34 -0.68 0.68 0 0 Z " fill="#989898" transform="translate(28,25)"/>
<path d="M0 0 C1.98 0.99 3.96 1.98 6 3 C6 3.66 6 4.32 6 5 C3.03 4.505 3.03 4.505 0 4 C0 2.68 0 1.36 0 0 Z " fill="#333333" transform="translate(79,10)"/>
</svg>
